unna_regular.sfdir
StartChar: exclam
Encoding: 33 33 256
Width: 269
Flags: MW
HStem: -10 115<137.5 171.5>
VStem: 90 129<32 63 31.5 64> 143 23<213 253>
LayerCount: 2
Back
Fore
SplineSet
154 637 m 0xa0
 191 637 209 614 209 583 c 0
 209 565 207 547 203 520 c 2
 190 428 l 2
 181 363 166 289 166 217 c 0
 166 209 162 201 155 201 c 0
 147 201 143 209 143 217 c 0
 143 289 128 363 119 428 c 2
 106 520 l 2
 102 547 100 565 100 583 c 0
 100 614 118 637 154 637 c 0xa0
155 105 m 0xc0
 191 105 219 79 219 47 c 0
 219 16 189 -10 154 -10 c 0
 121 -10 90 16 90 48 c 0
 90 80 119 105 155 105 c 0xc0
EndSplineSet
EndChar
StartChar: quotedbl
Encoding: 34 34 262
Width: 252
Flags: MW
HStem: 409 231<63 71 181 189>
VStem: 34 66<585.5 612.5> 54 26<421.5 431.5> 152 66<585.5 612.5> 172 26<421.5 431.5>
LayerCount: 2
Back
Fore
SplineSet
34 600 m 0xd0
 34 625 47 640 67 640 c 0
 87 640 100 625 100 600 c 0xd0
 100 571 80 437 80 426 c 0
 80 417 75 409 67 409 c 0
 59 409 54 417 54 426 c 0xb0
 54 437 34 571 34 600 c 0xd0
152 600 m 0
 152 625 165 640 185 640 c 0
 205 640 218 625 218 600 c 0xd0
 218 571 198 437 198 426 c 0
 198 417 193 409 185 409 c 0
 177 409 172 417 172 426 c 0xc8
 172 437 152 571 152 600 c 0
EndSplineSet
EndChar
StartChar: numbersign
Encoding: 35 35 258
Width: 505
Flags: MW
HStem: -9 21G<56 96 56 56 210 250 210 210> 194 40<18 128 29 117 29 157 168 271 323 412> 405 40<91 180 80 191 91 220 231 334 386 476>
VStem: 18 469<194 445>
LayerCount: 2
Back
Fore
SplineSet
18 194 m 1
 29 234 l 1
 128 234 l 1
 180 405 l 1
 80 405 l 1
 91 445 l 1
 191 445 l 1
 250 639 l 1
 290 639 l 1
 231 445 l 1
 345 445 l 1
 404 639 l 1
 444 639 l 1
 386 445 l 1
 487 445 l 1
 476 405 l 1
 374 405 l 1
 323 234 l 1
 424 234 l 1
 412 194 l 1
 311 194 l 1
 250 -9 l 1
 210 -9 l 1
 271 194 l 1
 157 194 l 1
 96 -9 l 1
 56 -9 l 1
 117 194 l 1
 18 194 l 1
168 234 m 1
 283 234 l 1
 334 405 l 1
 220 405 l 1
 168 234 l 1
EndSplineSet
EndChar
StartChar: dollar
Encoding: 36 36 290
Width: 447
Flags: MW
HStem: 120 23<206 206 243 243> 140 101.5 369 84<318 323.5 309 339 318 318> 447 24<206 206 206 253.5>
VStem: 85 26 89 71<385 395> 206 37<-95 120 -95 120 471 647> 295 69<198.5 211> 318 23.5
LayerCount: 2
Back
Fore
SplineSet
364 232 m 0x97
 364 165 314 126 243 120 c 1
 243 -95 l 1
 206 -95 l 1
 206 120 l 1x9a80
 188 122 167 127 130 137 c 0
 120 139 113 140 107 140 c 0
 96 140 88 138 83 135 c 1
 87 241 l 1x5a80
 111 242 l 1x9a80
 111 184 166 143 230 143 c 0
 270 143 295 164 295 198 c 0
 295 224 281 241 239 251 c 1
 169 270 l 2
 117 284 89 318 89 366 c 0
 89 424 131 467 206 471 c 1x97
 206 647 l 1
 243 647 l 1
 243 469 l 1
 274 465 298 453 320 453 c 0
 327 453 337 456 344 460 c 1
 339 369 l 1xaa80
 318 369 l 1x9a80
 318 407 285 447 222 447 c 0
 183 447 160 425 160 397 c 0
 160 373 177 357 209 349 c 2
 278 331 l 2
 346 313 364 279 364 232 c 0x97
EndSplineSet
EndChar
StartChar: percent
Encoding: 37 37 315
Width: 572
Flags: MW
HStem: -10 18<400.5 439.5 400.5 462> 251 18<400.5 439.5> 328 18<133.5 172.5 133.5 195> 585 20G 589 18<133.5 172.5>
VStem: 26 74<429.5 507> 206 73<428.5 506 428.5 511> 293 74<91.5 169> 473 73<90.5 168 90.5 173>
LayerCount: 2
Back
Fore
SplineSet
26 467 m 0xee80
 26 547 72 607 153 607 c 0
 236 607 279 545 279 467 c 0
 279 390 237 328 153 328 c 0
 67 328 26 392 26 467 c 0xee80
51 5 m 1
 479 605 l 1xee80
 513 585 l 1xf680
 84 -18 l 1
 51 5 l 1
100 468 m 0
 100 380 114 346 153 346 c 0
 192 346 206 382 206 468 c 0
 206 554 192 589 153 589 c 0
 114 589 100 551 100 468 c 0
293 129 m 0xef80
 293 209 339 269 420 269 c 0
 503 269 546 207 546 129 c 0
 546 52 504 -10 420 -10 c 0
 334 -10 293 54 293 129 c 0xef80
367 130 m 0
 367 42 381 8 420 8 c 0
 459 8 473 44 473 130 c 0
 473 216 459 251 420 251 c 0
 381 251 367 213 367 130 c 0
EndSplineSet
EndChar
StartChar: ampersand
Encoding: 38 38 326
Width: 610
Flags: MW
HStem: -10 31<201 258.5> 0 26<562.5 569 562.5 625> 372 27<447 452.5 501.5 506> 575 31<261 303.5>
VStem: 22 89<122.5 198.5 122.5 199> 132 77<504.5 526> 356 30<490.5 530.5> 461 91<315.5 399>
LayerCount: 2
Back
Fore
SplineSet
569 26 m 2x7b
 625 28 l 1
 625 0 l 1
 458 0 l 1x7f
 401 77 l 1
 360 26 301 -10 216 -10 c 0
 114 -10 22 42 22 157 c 0xbb
 22 241 70 290 192 360 c 1
 185 369 l 2
 155 409 132 450 132 492 c 0x7f
 132 560 194 606 271 606 c 0
 347 606 386 562 386 511 c 0
 386 458 346 416 287 383 c 1
 430 187 l 1
 450 237 461 291 461 340 c 0
 461 365 458 372 447 372 c 2
 401 370 l 1
 401 399 l 1
 552 399 l 1
 552 370 l 1
 506 372 l 2
 497 372 494 365 493 350 c 0
 489 306 479 231 450 160 c 1
 539 39 l 2
 546 30 556 26 569 26 c 2x7b
282 575 m 0
 240 575 209 553 209 520 c 0
 209 489 237 450 265 412 c 2
 271 404 l 1
 328 436 356 471 356 510 c 0
 356 551 325 575 282 575 c 0
239 21 m 0xbb
 296 21 345 54 382 102 c 1
 209 337 l 1
 139 288 111 231 111 166 c 0
 111 79 163 21 239 21 c 0xbb
EndSplineSet
EndChar
StartChar: quotesingle
Encoding: 39 39 263
Width: 133
Flags: MW
HStem: 409 231<63 71>
VStem: 34 66<585.5 612.5> 54 26<421.5 431.5>
LayerCount: 2
Back
Fore
SplineSet
34 600 m 0xc0
 34 625 47 640 67 640 c 0
 87 640 100 625 100 600 c 0xc0
 100 571 80 437 80 426 c 0
 80 417 75 409 67 409 c 0
 59 409 54 417 54 426 c 0xa0
 54 437 34 571 34 600 c 0xc0
EndSplineSet
Substitution2: "Single Substitution lookup 17 subtable" quoteright
Position2: "Single Positioning lookup 5 subtable" dx=0 dy=0 dh=-40 dv=0
EndChar
StartChar: parenleft
Encoding: 40 40 271
Width: 254
Flags: MW
HStem: -231 942<211 254 211 254>
VStem: 18 94<173 307 173 328.5>
LayerCount: 2
Back
Fore
SplineSet
18 240 m 0
 18 417 96 575 211 711 c 1
 254 711 l 1
 163 596 112 374 112 240 c 0
 112 106 163 -116 254 -231 c 1
 211 -231 l 1
 96 -95 18 63 18 240 c 0
EndSplineSet
Position2: "'cpsp' Capital Spacing lookup 0 per glyph data 0" dx=0 dy=20 dh=0 dv=0
EndChar
StartChar: parenright
Encoding: 41 41 272
Width: 254
Flags: MW
HStem: -231 942<0 43 0 43>
VStem: 142 94<173 307>
LayerCount: 2
Back
Fore
SplineSet
236 240 m 0
 236 63 158 -95 43 -231 c 1
 0 -231 l 1
 91 -116 142 106 142 240 c 0
 142 374 91 596 0 711 c 1
 43 711 l 1
 158 575 236 417 236 240 c 0
EndSplineSet
Position2: "'cpsp' Capital Spacing lookup 0 per glyph data 0" dx=0 dy=20 dh=0 dv=0
EndChar
StartChar: asterisk
Encoding: 42 42 249
Width: 338
Flags: MW
HStem: 354 66.54 400.54 20G 478 28<85 113.5 224.5 253> 563.46 66.54
VStem: 71 70.37 71 76.06 190.93 76.07 196.6 70.4
LayerCount: 2
Back
Fore
SplineSet
285 530 m 0x79
 310 530 318 521 318 492 c 0
 318 463 310 454 285 454 c 0
 260 454 276 478 230 478 c 0
 219 478 209 475 202 472 c 1
 203 464 206 456 212 446 c 0
 235 406 247 432 260 411 c 0
 264 403 267 396 267 390 c 0
 267 380 260 372 244 363 c 0
 233 357 225 354 218 354 c 0
 209 354 202 360 194 373 c 0
 192 377 191 380 191 383 c 0
 191 395 206 400 187 432 c 0
 182 442 175 448 169 453 c 1
 163 448 156 442 151 432 c 0
 144 419 142 411 142 405 c 0
 142 391 152 387 144 373 c 0
 136 360 129 354 120 354 c 0xb9
 113 354 105 357 95 363 c 0
 78 372 71 380 71 390 c 0xb5
 71 396 74 403 78 411 c 0
 91 432 103 406 126 446 c 0
 132 456 134 465 135 473 c 1
 128 476 119 478 108 478 c 0x75
 62 478 78 454 53 454 c 0
 28 454 20 463 20 492 c 0
 20 521 28 530 53 530 c 0
 78 530 62 506 108 506 c 0
 119 506 129 509 136 512 c 1
 135 520 132 528 126 538 c 0
 103 578 91 552 78 573 c 0
 74 581 71 588 71 594 c 0
 71 604 78 612 95 621 c 0
 105 627 113 630 120 630 c 0
 129 630 136 624 144 611 c 0
 146 607 147 604 147 601 c 0
 147 589 132 584 151 552 c 0
 156 542 163 536 169 531 c 1
 175 536 182 542 187 552 c 0
 194 565 196 573 196 579 c 0
 196 593 186 597 194 611 c 0
 202 624 209 630 218 630 c 0x79
 225 630 233 627 243 621 c 0
 260 612 267 604 267 594 c 0
 267 588 264 581 260 573 c 0
 247 552 235 578 212 538 c 0
 206 528 204 519 203 511 c 1
 210 508 219 506 230 506 c 0x7a
 276 506 260 530 285 530 c 0x79
EndSplineSet
EndChar
StartChar: plus
Encoding: 43 43 317
Width: 460
Flags: MW
HStem: 259 44<20 206 20 206 255 440>
VStem: 206 49<73 259 73 259 303 488>
LayerCount: 2
Back
Fore
SplineSet
20 259 m 1
 20 303 l 1
 206 303 l 1
 206 488 l 1
 255 488 l 1
 255 303 l 1
 440 303 l 1
 440 259 l 1
 255 259 l 1
 255 73 l 1
 206 73 l 1
 206 259 l 1
 20 259 l 1
EndSplineSet
EndChar
StartChar: comma
Encoding: 44 44 254
Width: 250
Flags: MW
HStem: -5 21G<79.5 103> -5 96<79.5 142.5>
VStem: 129 60<-29 -22.5>
LayerCount: 2
Back
Fore
SplineSet
60 -149 m 1xa0
 91 -120 129 -67 129 -34 c 0
 129 -11 113 -5 93 -5 c 0
 66 -5 61 21 61 38 c 0
 61 66 88 91 119 91 c 0
 166 91 189 61 189 8 c 0x60
 189 -66 123 -130 79 -160 c 1
 60 -149 l 1xa0
EndSplineSet
EndChar
StartChar: hyphen
Encoding: 45 45 275
Width: 250
Flags: MW
HStem: 189 55<22 228 22 228>
VStem: 22 206<189 244 189 244>
LayerCount: 2
Back
Fore
SplineSet
22 189 m 1
 22 244 l 1
 228 244 l 1
 228 189 l 1
 22 189 l 1
EndSplineSet
Position2: "'cpsp' Capital Spacing lookup 0 per glyph data 0" dx=0 dy=20 dh=0 dv=0
EndChar
StartChar: period
Encoding: 46 46 259
Width: 250
Flags: MW
HStem: -10 115<106.5 143.5>
VStem: 60 130<29.5 64.5>
LayerCount: 2
Back
Fore
SplineSet
60 47 m 0
 60 82 88 105 125 105 c 0
 162 105 190 83 190 47 c 0
 190 12 162 -10 125 -10 c 0
 88 -10 60 12 60 47 c 0
EndSplineSet
EndChar
StartChar: slash
Encoding: 47 47 265
Width: 247
Flags: MW
HStem: -5 21G<34 34>
VStem: -5 257
LayerCount: 2
Back
Fore
SplineSet
-5 6 m 1
 214 635 l 1
 252 626 l 1
 34 -5 l 1
 -5 6 l 1
EndSplineSet
EndChar
StartChar: zero
Encoding: 48 48 232
Width: 538
Flags: MW
HStem: -10 30<220.5 316.5 220.5 339.5> 580 27<220.5 316.5>
VStem: 30 89<196.5 402.5> 421 87<194.5 400.5 194.5 408.5>
LayerCount: 2
Back
Fore
SplineSet
30 297 m 0
 30 508 130 607 268 607 c 0
 409 607 508 504 508 297 c 0
 508 92 411 -10 268 -10 c 0
 124 -10 30 96 30 297 c 0
119 298 m 0
 119 78 173 20 268 20 c 0
 365 20 421 83 421 298 c 0
 421 519 365 580 268 580 c 0
 173 580 119 512 119 298 c 0
EndSplineSet
EndChar
StartChar: one
Encoding: 49 49 233
Width: 387
Flags: MW
HStem: 0 23<144 151 254.5 261>
VStem: 165 77<43 497 497 503>
LayerCount: 2
Back
Fore
SplineSet
62 513 m 1
 111 527 151 554 179 576 c 0
 196 589 211 603 225 617 c 1
 242 617 l 1
 242 43 l 2
 242 30 248 23 261 23 c 2
 326 24 l 1
 326 0 l 1
 78 0 l 1
 78 24 l 1
 144 23 l 2
 158 23 165 30 165 43 c 2
 165 497 l 2
 165 509 156 518 144 512 c 2
 70 479 l 1
 62 513 l 1
EndSplineSet
Substitution2: "'sups' Superscript lookup 7 subtable" uni00B9
Substitution2: "'aalt' Access All Alternates lookup 0 subtable" uni00B9
EndChar
StartChar: two
Encoding: 50 50 234
Width: 506
Flags: MW
HStem: 0 66<126 303 303 339 126 376> 580 27<208.5 268>
VStem: 52 85<491.5 502> 338 90<406.5 492>
LayerCount: 2
Back
Fore
SplineSet
419 165 m 1
 455 165 l 1
 437 64 431 21 430 -3 c 1
 424 -1 393 0 376 0 c 2
 49 0 l 1
 47 45 l 1
 164 156 l 2
 263 251 338 333 338 449 c 0
 338 535 298 580 238 580 c 0
 179 580 137 552 137 503 c 0
 137 480 148 468 148 449 c 0
 148 419 119 412 102 412 c 0
 71 412 52 433 52 469 c 0
 52 535 110 607 246 607 c 0
 340 607 428 570 428 445 c 0
 428 368 393 303 242 168 c 1
 126 66 l 1
 303 66 l 2
 375 66 411 87 419 165 c 1
EndSplineSet
Substitution2: "'sups' Superscript lookup 7 subtable" uni00B2
Substitution2: "'aalt' Access All Alternates lookup 0 subtable" uni00B2
EndChar
StartChar: three
Encoding: 51 51 235
Width: 498
Flags: MW
HStem: -10 27<197.5 276.5 197.5 294> 299 19 580 27<205 268>
VStem: 35 86<81.5 86.5 57.5 130> 48 86<510 520.5> 335 89<442 513> 373 89<123.5 201>
LayerCount: 2
Back
Fore
SplineSet
218 320 m 1xea
 218 318 l 1xea
 383 314 462 260 462 162 c 0
 462 48 355 -10 233 -10 c 0
 114 -10 35 48 35 115 c 0
 35 145 52 165 84 165 c 0
 113 165 131 149 131 126 c 0
 131 107 121 96 121 77 c 0
 121 38 170 17 225 17 c 0
 328 17 373 88 373 159 c 0xf2
 373 243 312 294 160 299 c 1
 160 327 l 1
 251 340 335 398 335 486 c 0
 335 540 304 580 232 580 c 0
 178 580 134 556 134 519 c 0
 134 501 145 490 145 471 c 0
 145 443 120 432 97 432 c 0
 62 432 48 456 48 484 c 0
 48 557 142 607 245 607 c 0
 337 607 424 569 424 485 c 0xec
 424 395 326 335 218 320 c 1xea
EndSplineSet
Substitution2: "'sups' Superscript lookup 7 subtable" uni00B3
Substitution2: "'aalt' Access All Alternates lookup 0 subtable" uni00B3
EndChar
StartChar: four
Encoding: 52 52 236
Width: 470
Flags: MW
HStem: 0 23<268 274.5 377 383> 155 69<72 286 72 286 17 286 364 444> 584 20G<339 364 364 364>
VStem: 286 78<43 155 224 488 488 488>
LayerCount: 2
Back
Fore
SplineSet
364 604 m 1
 364 224 l 1
 444 224 l 1
 444 155 l 1
 364 155 l 1
 364 43 l 2
 364 30 371 23 383 23 c 2
 429 24 l 1
 429 0 l 1
 201 0 l 1
 201 24 l 1
 268 23 l 2
 281 23 286 30 286 43 c 2
 286 155 l 1
 17 155 l 1
 17 215 l 1
 26 223 37 233 47 245 c 2
 76 276 l 1
 302 554 l 1
 318 576 l 1
 339 604 l 1
 364 604 l 1
286 488 m 1
 72 224 l 1
 286 224 l 1
 286 488 l 1
EndSplineSet
EndChar
StartChar: five
Encoding: 53 53 237
Width: 492
Flags: MW
HStem: -10 27<209 274 209 292> 341 41<226.5 265.5> 531 66<122 349 349 374.5 91 418 122 122> 580 20G
VStem: 38 85<77 97 62.5 141.5> 80.5 33 362 90<137.5 236>
LayerCount: 2
Back
Fore
SplineSet
251 382 m 0xe6
 369 382 452 317 452 187 c 0
 452 63 350 -10 234 -10 c 0
 143 -10 38 31 38 123 c 0
 38 160 59 175 89 175 c 0
 111 175 134 163 134 136 c 0
 134 115 123 106 123 88 c 0xea
 123 37 183 17 235 17 c 0
 313 17 362 84 362 191 c 0
 362 281 308 341 223 341 c 0
 170 341 121 318 97 288 c 1
 70 288 l 1
 91 597 l 1
 349 597 l 2xe6
 400 597 418 599 432 600 c 1xd6
 424 584 420 553 418 531 c 1
 122 531 l 1
 105 332 l 1
 142 361 202 382 251 382 c 0xe6
EndSplineSet
EndChar
StartChar: six
Encoding: 54 54 238
Width: 485
Flags: MW
HStem: -11 25<212 297.5 212 309.5> 372 27<235 304> 579 28<224 290.5>
VStem: 45 86 337 89<522 532.5 497.5 544> 369 86<135 225.5>
LayerCount: 2
Back
Fore
SplineSet
270 399 m 0xf4
 382 399 455 320 455 200 c 0xf4
 455 70 371 -11 248 -11 c 0
 101 -11 45 103 45 270 c 0
 45 421 92 607 282 607 c 0
 383 607 426 554 426 511 c 0
 426 484 410 457 374 457 c 0
 349 457 329 470 329 493 c 0
 329 508 337 514 337 530 c 0xf8
 337 558 310 579 271 579 c 0
 177 579 132 458 131 316 c 1
 154 366 200 399 270 399 c 0xf4
258 14 m 0
 337 14 369 81 369 187 c 0
 369 264 352 372 256 372 c 0
 173 372 130 294 130 193 c 0
 130 104 166 14 258 14 c 0
EndSplineSet
EndChar
StartChar: seven
Encoding: 55 55 239
Width: 427
Flags: MW
HStem: 0 21G<140 234 140 140> 530 67<126 417 164 361> 555 42<164 421>
VStem: 140 90<0 173>
LayerCount: 2
Back
Fore
SplineSet
230 75 m 0xd0
 230 66 229 55 234 0 c 1
 140 0 l 1
 143 145 169 315 361 530 c 1
 155 530 l 2
 97 530 72 514 66 472 c 1
 30 472 l 1
 35 510 45 581 45 600 c 1
 58 597 103 597 164 597 c 2
 417 597 l 1xd0
 421 555 l 1xb0
 313 435 230 271 230 75 c 0xd0
EndSplineSet
EndChar
StartChar: eight
Encoding: 56 56 240
Width: 493
Flags: MW
HStem: -10 27<196.5 276.5 196.5 293.5> 580 27<236.5 306.5>
VStem: 37 66<101 167 101 170> 63 92<450 502.5> 369 94<105 163.5> 385 63<447.5 510>
LayerCount: 2
Back
Fore
SplineSet
312 327 m 1xe8
 388 284 463 238 463 155 c 0
 463 55 353 -10 234 -10 c 0
 136 -10 37 31 37 130 c 0xe8
 37 210 102 274 183 305 c 1
 111 346 63 388 63 456 c 0
 63 549 153 607 266 607 c 0
 367 607 448 563 448 476 c 0xd4
 448 391 370 342 312 327 c 1xe8
272 580 m 0xd4
 201 580 155 543 155 484 c 0
 155 416 218 379 288 340 c 1
 358 372 385 420 385 475 c 0
 385 545 341 580 272 580 c 0xd4
240 17 m 0xe8
 313 17 369 53 369 121 c 0
 369 206 281 252 208 291 c 1
 151 263 103 200 103 134 c 0
 103 68 153 17 240 17 c 0xe8
EndSplineSet
EndChar
StartChar: nine
Encoding: 57 57 241
Width: 485
Flags: MW
HStem: -11 28<211.5 278 211.5 315> 197 27<198 267> 582 25<204.5 290>
VStem: 47 86<370.5 461> 76 89<63.5 74 52 98.5> 371 86
LayerCount: 2
Back
Fore
SplineSet
254 607 m 0xf4
 401 607 457 493 457 326 c 0
 457 175 410 -11 220 -11 c 0
 119 -11 76 42 76 85 c 0
 76 112 92 139 128 139 c 0
 153 139 173 126 173 103 c 0
 173 88 165 82 165 66 c 0xec
 165 38 192 17 231 17 c 0
 325 17 370 138 371 280 c 1
 348 230 302 197 232 197 c 0
 120 197 47 276 47 396 c 0
 47 526 131 607 254 607 c 0xf4
246 224 m 0
 329 224 372 302 372 403 c 0
 372 492 336 582 244 582 c 0
 165 582 133 515 133 409 c 0
 133 332 150 224 246 224 c 0
EndSplineSet
EndChar
StartChar: semicolon
Encoding: 59 59 264
Width: 250
Flags: MW
HStem: -5 21G<81.5 105> -5 96<81.5 144.5> 288 115<100.5 137.5>
VStem: 54 130<327.5 362.5> 131 60<-29 -22.5>
LayerCount: 2
Back
Fore
SplineSet
54 345 m 0xb0
 54 380 82 403 119 403 c 0
 156 403 184 381 184 345 c 0
 184 310 156 288 119 288 c 0
 82 288 54 310 54 345 c 0xb0
62 -149 m 1x68
 93 -120 131 -67 131 -34 c 0
 131 -11 115 -5 95 -5 c 0
 68 -5 63 21 63 38 c 0
 63 66 90 91 121 91 c 0
 168 91 191 61 191 8 c 0
 191 -66 125 -130 81 -160 c 1
 62 -149 l 1x68
EndSplineSet
EndChar
StartChar: less
Encoding: 60 60 307
Width: 460
Flags: MW
HStem: -6 21G<406 406>
VStem: 54 352<-6 229 -6 229>
LayerCount: 2
Back
Fore
SplineSet
406 441 m 1
 406 393 l 1
 150 238 l 1
 107 218 l 1
 150 197 l 1
 406 43 l 1
 406 -6 l 1
 54 205 l 1
 54 229 l 1
 406 441 l 1
EndSplineSet
EndChar
StartChar: equal
Encoding: 61 61 301
Width: 460
Flags: MW
HStem: 103 43<35 425 35 425> 302 43<35 425 35 425>
VStem: 35 390<103 146 103 146 302 345 103 345>
LayerCount: 2
Back
Fore
SplineSet
35 302 m 1
 35 345 l 1
 425 345 l 1
 425 302 l 1
 35 302 l 1
35 103 m 1
 35 146 l 1
 425 146 l 1
 425 103 l 1
 35 103 l 1
EndSplineSet
EndChar
StartChar: greater
Encoding: 62 62 302
Width: 460
Flags: MW
HStem: -5 21G<54 54>
VStem: 54 352<-5 231 43 231 207 442 207 442>
LayerCount: 2
Back
Fore
SplineSet
54 -5 m 1
 54 43 l 1
 310 198 l 1
 353 218 l 1
 310 239 l 1
 54 393 l 1
 54 442 l 1
 406 231 l 1
 406 207 l 1
 54 -5 l 1
EndSplineSet
EndChar
StartChar: question
Encoding: 63 63 260
Width: 400
Flags: MW
HStem: -10 115<165.5 196 161 197.5> 643 27<156 210>
VStem: 20 74<594.5 613.5> 109 73<302.5 358.5 296.5 365> 115 130<29.5 61> 273 91<531 591>
LayerCount: 2
Back
Fore
SplineSet
217 219 m 1xd4
 177 229 109 278 109 327 c 0xd4
 109 403 273 489 273 573 c 0
 273 609 243 643 177 643 c 0
 135 643 94 629 94 601 c 0
 94 588 103 580 103 566 c 0
 103 545 85 538 67 538 c 0
 32 538 20 564 20 585 c 0xf4
 20 642 108 670 193 670 c 0
 295 670 364 630 364 561 c 0
 364 450 182 407 182 310 c 0
 182 283 196 256 229 238 c 1
 217 219 l 1xd4
181 -10 m 0xcc
 150 -10 115 8 115 45 c 0
 115 77 142 105 180 105 c 0
 212 105 245 86 245 48 c 0
 245 11 214 -10 181 -10 c 0xcc
EndSplineSet
EndChar
StartChar: at
Encoding: 64 64 325
Width: 741
Flags: MW
HStem: -145 29<291.5 440.5> -10 21G<234.5 295.5 449.5 474> -10 55<294.5 295.5> 400 30<408.5 453.5> 567 29<309 495>
VStem: 26 56<87 264.5 87 285.5> 172 89<97 141.5 97 182> 435 93<20.5 110> 683 31<256 376.5>
LayerCount: 2
Back
Fore
SplineSet
26 178 m 0xbf80
 26 393 194 596 421 596 c 0
 589 596 714 469 714 306 c 0
 714 206 657 105 561 36 c 0
 511 -1 489 -10 459 -10 c 0
 440 -10 435 5 435 36 c 0
 435 65 444 123 459 187 c 1
 382 41 327 -10 264 -10 c 0xbf80
 205 -10 172 36 172 112 c 0
 172 252 297 430 439 430 c 0
 468 430 483 418 496 391 c 1
 501 411 l 1
 593 428 l 1
 570 330 l 1
 548 230 528 128 528 92 c 0
 528 81 532 75 541 75 c 0
 595 75 683 192 683 305 c 0
 683 448 569 567 421 567 c 0
 197 567 82 356 82 173 c 0
 82 1 198 -116 385 -116 c 0
 504 -116 590 -79 676 9 c 1xdf80
 694 -13 l 1
 601 -109 505 -145 376 -145 c 0
 164 -145 26 -21 26 178 c 0xbf80
261 123 m 0
 261 71 278 45 311 45 c 0
 350 45 484 230 484 348 c 0
 484 376 466 400 441 400 c 0
 376 400 319 336 284 241 c 0
 269 199 261 160 261 123 c 0
EndSplineSet
EndChar
StartChar: B
Encoding: 66 66 13
Width: 573
GlyphClass: 2
Flags: MW
HStem: 0 28<225 295 295 312> 299 28<211 287 287 314 211 287> 569 28<101 106.5 219.5 223 223 281>
VStem: 118 93<49 299 327 549 549 553.5> 405 95<418.5 489> 436 97<120 206.5 108 208>
LayerCount: 2
Back
Fore
SplineSet
327 597 m 2xf8
 439 597 500 549 500 454 c 0xf8
 500 383 445 332 362 317 c 1
 457 317 533 251 533 162 c 0xf4
 533 54 459 0 312 0 c 2
 50 0 l 1
 50 29 l 1
 100 27 l 2
 112 27 118 34 118 49 c 2
 118 549 l 2
 118 558 112 569 101 569 c 2
 50 567 l 1
 50 597 l 1
 327 597 l 2xf8
281 569 m 2
 223 569 l 2
 216 569 212 565 211 557 c 1
 211 327 l 1
 287 327 l 2
 366 327 405 369 405 453 c 0
 405 525 360 569 281 569 c 2
314 299 m 2
 211 299 l 1
 211 41 l 2
 211 32 216 28 225 28 c 2
 295 28 l 2
 379 28 436 78 436 162 c 0xf4
 436 254 394 299 314 299 c 2
EndSplineSet
Position2: "'cpsp' Capital Spacing lookup 0 per glyph data 2" dx=5 dy=0 dh=10 dv=0
EndChar
StartChar: C
Encoding: 67 67 14
Width: 607
GlyphClass: 2
Flags: MW
HStem: -10 27<285 383.5> 35 132<534 553 553 559> 433 131<529 553 529 529> 582 25<280 385>
VStem: 45 102<213 381 213 393.5> 529 24<433 433>
AnchorPoint: "Anchor-0" 304 0 basechar 0
LayerCount: 2
Back
Fore
SplineSet
45 295 m 0
 45 492 157 607 345 607 c 0x9c
 448 607 478 564 553 564 c 1
 550 541 549 513 549 489 c 0
 549 459 551 435 553 433 c 1xbc
 529 433 l 1
 511 515 430 582 340 582 c 0
 220 582 147 467 147 295 c 0
 147 131 225 17 345 17 c 0x9c
 439 17 515 82 534 167 c 1
 562 167 l 1
 557 128 556 95 556 82 c 0xdc
 556 63 557 47 559 35 c 1
 553 35 l 2
 501 35 427 -10 340 -10 c 0
 158 -10 45 106 45 295 c 0
EndSplineSet
Position2: "'cpsp' Capital Spacing lookup 0 per glyph data 2" dx=5 dy=0 dh=10 dv=0
EndChar
StartChar: D
Encoding: 68 68 18
Width: 623
GlyphClass: 2
Flags: MW
HStem: 0 28<213 258 258 287> 569 28<89 95.5 209 213 213 258>
VStem: 108 93<49 548 548 553.5> 486 102<201.5 396>
LayerCount: 2
Back
Fore
SplineSet
50 0 m 1
 50 29 l 1
 93 27 l 2
 104 27 108 37 108 49 c 2
 108 548 l 2
 108 559 102 569 89 569 c 2
 50 567 l 1
 50 597 l 1
 275 597 l 2
 484 597 588 516 588 299 c 0
 588 104 492 0 287 0 c 2
 50 0 l 1
201 41 m 2
 201 32 205 28 213 28 c 2
 258 28 l 2
 423 28 486 101 486 298 c 0
 486 494 423 569 258 569 c 2
 213 569 l 2
 205 569 201 565 201 556 c 2
 201 41 l 2
EndSplineSet
Position2: "'cpsp' Capital Spacing lookup 0 per glyph data 2" dx=5 dy=0 dh=10 dv=0
EndChar
StartChar: F
Encoding: 70 70 31
Width: 529
GlyphClass: 2
Flags: MW
HStem: 0 27<90 96 214.5 220> 287 28<201 276 201 276> 443 154<472 484 484 487.5 50 499 472 472> 569 28<89 91 89 89 209 213 213 330>
VStem: 108 93<49 287 315 548 548 555> 355 27<187 217.5 385 417> 472 27<443 487>
LayerCount: 2
Back
Fore
SplineSet
50 0 m 1xde
 50 30 l 1
 90 27 l 2
 102 27 108 34 108 49 c 2
 108 548 l 2
 108 562 102 569 91 569 c 2
 89 569 l 1
 50 567 l 1
 50 597 l 1
 484 597 l 2
 491 597 496 597 499 598 c 1xde
 499 443 l 1
 472 443 l 1xee
 472 531 429 569 330 569 c 2
 213 569 l 2
 205 569 201 565 201 556 c 2
 201 315 l 1
 276 315 l 2
 323 315 355 353 355 417 c 1
 382 417 l 1
 382 187 l 1
 355 187 l 1
 355 248 323 287 276 287 c 2
 201 287 l 1
 201 48 l 2
 201 36 209 27 220 27 c 2
 272 30 l 1
 272 0 l 1
 50 0 l 1xde
EndSplineSet
Position2: "'cpsp' Capital Spacing lookup 0 per glyph data 2" dx=5 dy=0 dh=10 dv=0
EndChar
StartChar: G
Encoding: 71 71 32
Width: 646
GlyphClass: 2
Flags: MW
HStem: -10 27<283 374.5 283 392.5> 245 27<454 460.5 579 585> 433 131<531 553 531 553 513 553> 582 25<284.5 397.5>
VStem: 45 102<197.5 392.5 197.5 399> 473 93<63 223 223 224 35 230.5> 514 39<433 489>
AnchorPoint: "Anchor-0" 323 0 basechar 0
LayerCount: 2
Back
Fore
SplineSet
45 295 m 0xdc
 45 503 154 607 345 607 c 0xda
 457 607 509 564 553 564 c 1
 550 549 549 526 549 495 c 0
 549 472 552 454 553 433 c 1
 513 433 l 1xfa
 514 438 514 443 514 448 c 0xda
 514 530 455 582 340 582 c 0
 229 582 147 490 147 295 c 0
 147 100 221 17 345 17 c 0
 404 17 436 27 473 63 c 1
 473 223 l 2
 473 238 467 245 454 245 c 2
 395 243 l 1
 395 272 l 1
 626 272 l 1
 626 243 l 1
 585 245 l 2
 573 245 566 235 566 224 c 2
 566 35 l 1
 562 36 556 36 553 36 c 0
 509 36 445 -10 340 -10 c 0
 156 -10 45 91 45 295 c 0xdc
EndSplineSet
Position2: "'cpsp' Capital Spacing lookup 0 per glyph data 2" dx=5 dy=0 dh=10 dv=0
EndChar
StartChar: H
Encoding: 72 72 35
Width: 696
GlyphClass: 2
Flags: MW
HStem: 0 27<89 95.5 214.5 221 476 482.5 600.5 607> 294 28<201 495 201 495> 568 29
VStem: 108 93<49 294 322 548> 495 93<49 294 294 294 322 548>
LayerCount: 2
Back
Fore
SplineSet
50 0 m 1
 50 29 l 1
 89 27 l 2
 102 27 108 34 108 49 c 2
 108 548 l 2
 108 559 104 570 89 569 c 2
 50 567 l 1
 50 597 l 1
 270 597 l 1
 270 567 l 1
 221 569 l 2
 208 570 201 560 201 548 c 2
 201 322 l 1
 495 322 l 1
 495 548 l 2
 495 559 491 570 476 569 c 2
 427 567 l 1
 427 597 l 1
 646 597 l 1
 646 567 l 1
 607 569 l 2
 594 570 588 560 588 548 c 2
 588 49 l 2
 588 34 594 27 607 27 c 2
 646 29 l 1
 646 0 l 1
 427 0 l 1
 427 29 l 1
 476 27 l 2
 489 27 495 34 495 49 c 2
 495 294 l 1
 201 294 l 1
 201 49 l 2
 201 34 208 27 221 27 c 2
 270 29 l 1
 270 0 l 1
 50 0 l 1
EndSplineSet
Position2: "'cpsp' Capital Spacing lookup 0 per glyph data 2" dx=5 dy=0 dh=10 dv=0
EndChar
StartChar: I
Encoding: 73 73 36
Width: 310
GlyphClass: 2
Flags: MW
HStem: 0 27<89 95.5 214.5 221> 568 29
VStem: 108 93<49 548>
LayerCount: 2
Back
Fore
SplineSet
50 0 m 1
 50 29 l 1
 89 27 l 2
 102 27 108 34 108 49 c 2
 108 548 l 2
 108 559 102 570 89 569 c 2
 50 567 l 1
 50 597 l 1
 260 597 l 1
 260 567 l 1
 221 569 l 2
 209 570 201 560 201 548 c 2
 201 49 l 2
 201 34 208 27 221 27 c 2
 260 29 l 1
 260 0 l 1
 50 0 l 1
EndSplineSet
Position2: "'cpsp' Capital Spacing lookup 0 per glyph data 2" dx=5 dy=0 dh=10 dv=0
EndChar
StartChar: J
Encoding: 74 74 45
Width: 451
GlyphClass: 2
Flags: MW
HStem: -10 26<153 197 123.5 235.5> -1 21G<24 24> 568 29
VStem: 24 36<142.5 172 142.5 172 142.5 172> 255 93<179 548 548 549>
LayerCount: 2
Back
Fore
SplineSet
24 -1 m 1x78
 24 172 l 1
 60 172 l 1
 60 113 82 16 165 16 c 0
 229 16 255 59 255 179 c 2
 255 548 l 2
 255 560 247 570 236 569 c 2
 167 567 l 1
 167 597 l 1
 406 597 l 1
 406 567 l 1
 368 569 l 2
 355 570 348 560 348 549 c 2
 348 179 l 2
 348 51 290 -10 181 -10 c 0xb8
 125 -10 87 5 59 5 c 0
 48 5 31 6 24 -1 c 1x78
EndSplineSet
Position2: "'cpsp' Capital Spacing lookup 0 per glyph data 2" dx=5 dy=0 dh=10 dv=0
EndChar
StartChar: K
Encoding: 75 75 46
Width: 617
GlyphClass: 2
Flags: MW
HStem: 0 27<89 95.5 214.5 221 572.5 582.5> 569 28<89 89 214.5 221 423 426.5 525 525>
VStem: 108 93<49 234 278 547> 381 178<567 597 567 597> 445.1 165.9
AnchorPoint: "Anchor-0" 309 0 basechar 0
LayerCount: 2
Back
Fore
SplineSet
577 27 m 0xf0
 588 27 605 29 611 30 c 1
 611 0 l 1
 374 0 l 1
 374 30 l 1
 425 27 l 2
 442 26 452 33 440 52 c 1xe8
 257 299 l 1
 201 234 l 1
 201 49 l 2
 201 34 208 27 221 27 c 2
 270 29 l 1
 270 0 l 1
 50 0 l 1
 50 29 l 1
 89 27 l 2
 102 27 108 34 108 49 c 2
 108 548 l 2
 108 560 102 570 89 569 c 2
 50 567 l 1
 50 597 l 1
 270 597 l 1
 270 567 l 1
 221 569 l 2
 208 569 201 562 201 547 c 2
 201 278 l 1
 416 533 l 2
 432 552 433 557 433 560 c 0
 433 566 430 569 423 569 c 2
 381 567 l 1
 381 597 l 1
 559 597 l 1
 559 567 l 1
 525 569 l 2
 505 570 490 565 467 540 c 2
 314 365 l 1
 553 41 l 2
 560 32 568 27 577 27 c 0xf0
EndSplineSet
Position2: "'cpsp' Capital Spacing lookup 0 per glyph data 2" dx=5 dy=0 dh=10 dv=0
EndChar
StartChar: L
Encoding: 76 76 48
Width: 514
GlyphClass: 2
Flags: MW
HStem: 0 28<213 326 326 368> 568 29
VStem: 108 93<49 548> 466 26<124.5 171>
AnchorPoint: "Anchor-0" 257 0 basechar 0
LayerCount: 2
Back
Fore
SplineSet
50 0 m 1
 50 30 l 1
 93 27 l 2
 104 27 108 37 108 49 c 2
 108 548 l 2
 108 559 100 570 89 569 c 2
 50 567 l 1
 50 597 l 1
 270 597 l 1
 270 567 l 1
 221 569 l 2
 209 570 201 560 201 548 c 2
 201 41 l 2
 201 32 205 28 213 28 c 2
 326 28 l 2
 418 28 466 78 466 171 c 1
 492 171 l 1
 492 -3 l 1
 480 -1 439 0 368 0 c 2
 50 0 l 1
EndSplineSet
Position2: "Single Positioning lookup 4 subtable" dx=0 dy=0 dh=-40 dv=0
Position2: "'cpsp' Capital Spacing lookup 0 per glyph data 2" dx=5 dy=0 dh=10 dv=0
EndChar
StartChar: M
Encoding: 77 77 54
Width: 858
GlyphClass: 2
Flags: MW
HStem: -10 21G<395 419 395 395> 0 27<84 90.5 150.5 157 637 643.5 762.5 769> 568 29
VStem: 104 34<49 527> 657 92<49 519 519 519>
LayerCount: 2
Back
Fore
SplineSet
769 27 m 2x78
 808 29 l 1
 808 0 l 1
 588 0 l 1
 588 29 l 1
 637 27 l 2
 650 27 657 34 657 49 c 2x78
 657 519 l 1
 419 -10 l 1
 395 -10 l 1xb8
 138 527 l 1
 138 49 l 2
 138 34 144 27 157 27 c 2
 206 29 l 1
 206 0 l 1
 45 0 l 1
 45 29 l 1
 84 27 l 2
 97 27 104 34 104 49 c 2
 104 563 l 2
 104 568 101 570 94 569 c 2
 52 567 l 1
 52 597 l 1
 206 597 l 1
 439 113 l 1
 658 597 l 1
 803 597 l 1
 803 567 l 1
 769 569 l 2
 757 570 749 560 749 549 c 2
 749 49 l 2
 749 34 756 27 769 27 c 2x78
EndSplineSet
Position2: "'cpsp' Capital Spacing lookup 0 per glyph data 2" dx=5 dy=0 dh=10 dv=0
EndChar
StartChar: N
Encoding: 78 78 55
Width: 662
GlyphClass: 2
Flags: MW
HStem: -6 21G<529 559 529 529> 0 27<84 90.5 150.5 157> 569 28<84 84 505 505 505 508 570.5 576 576 578>
VStem: 104 34<49 525> 525 34<155 548 -6 549 -6 555.5>
AnchorPoint: "Anchor-0" 331 0 basechar 0
LayerCount: 2
Back
Fore
SplineSet
456 597 m 1x78
 617 597 l 1
 617 567 l 1
 578 569 l 1
 576 569 l 2
 565 569 559 562 559 548 c 2
 559 -6 l 1
 529 -6 l 1xb8
 138 525 l 1
 138 49 l 2
 138 34 144 27 157 27 c 2
 206 29 l 1
 206 0 l 1
 45 0 l 1
 45 29 l 1
 84 27 l 2
 97 27 104 34 104 49 c 2
 104 548 l 2
 104 559 97 570 84 569 c 2
 45 567 l 1
 45 597 l 1
 200 597 l 1
 525 155 l 1
 525 549 l 2
 525 562 519 569 508 569 c 2
 505 569 l 1
 456 567 l 1
 456 597 l 1x78
EndSplineSet
Position2: "'cpsp' Capital Spacing lookup 0 per glyph data 2" dx=5 dy=0 dh=10 dv=0
EndChar
StartChar: O
Encoding: 79 79 60
Width: 670
GlyphClass: 2
Flags: MW
HStem: -10 27<271 399 271 426.5> 580 27<271 399>
VStem: 45 102<201 399> 523 102<201 396 201 400>
LayerCount: 2
Back
Fore
SplineSet
45 299 m 0
 45 499 154 607 335 607 c 0
 522 607 625 493 625 299 c 0
 625 103 518 -10 335 -10 c 0
 152 -10 45 103 45 299 c 0
147 299 m 0
 147 96 207 17 335 17 c 0
 463 17 523 96 523 299 c 0
 523 501 463 580 335 580 c 0
 207 580 147 501 147 299 c 0
EndSplineSet
Substitution2: "Single Substitution lookup 17 subtable" ordmasculine
Substitution2: "'aalt' Access All Alternates lookup 0 subtable" ordmasculine
Position2: "'cpsp' Capital Spacing lookup 0 per glyph data 2" dx=5 dy=0 dh=10 dv=0
EndChar
StartChar: P
Encoding: 80 80 70
Width: 523
GlyphClass: 2
Flags: MW
HStem: 0 27<89 95.5 214.5 221> 263 28<201 285 285 306 201 285> 569 28<85 85 210.5 213 213 269>
VStem: 108 93<49 263 291 547 547 554.5> 392 96<394 475.5>
LayerCount: 2
Back
Fore
SplineSet
50 0 m 1
 50 29 l 1
 89 27 l 2
 102 27 108 34 108 49 c 2
 108 547 l 2
 108 562 104 570 85 569 c 2
 50 567 l 1
 50 597 l 1
 285 597 l 2
 425 597 488 544 488 436 c 0
 488 332 419 263 306 263 c 2
 201 263 l 1
 201 49 l 2
 201 34 208 27 221 27 c 2
 270 29 l 1
 270 0 l 1
 50 0 l 1
201 291 m 1
 285 291 l 2
 346 291 392 352 392 436 c 0
 392 515 345 569 269 569 c 2
 213 569 l 2
 208 569 201 564 201 557 c 2
 201 291 l 1
EndSplineSet
Position2: "'cpsp' Capital Spacing lookup 0 per glyph data 2" dx=5 dy=0 dh=10 dv=0
EndChar
StartChar: Q
Encoding: 81 81 72
Width: 670
GlyphClass: 2
Flags: MW
HStem: -196 30<503 541> -7 24 580 27<271 399>
VStem: 45 102<210.5 399> 523 102<210 396 210 400>
LayerCount: 2
Back
Fore
SplineSet
385 -7 m 1
 385 -98 452 -166 554 -166 c 1
 541 -196 l 1
 392 -196 283 -118 284 -7 c 1
 132 13 45 122 45 299 c 0
 45 499 154 607 335 607 c 0
 522 607 625 493 625 299 c 0
 625 121 537 12 385 -7 c 1
147 299 m 0
 147 96 207 17 335 17 c 0
 463 17 523 96 523 299 c 0
 523 501 463 580 335 580 c 0
 207 580 147 501 147 299 c 0
EndSplineSet
Position2: "'cpsp' Capital Spacing lookup 0 per glyph data 2" dx=5 dy=0 dh=10 dv=0
EndChar
StartChar: S
Encoding: 83 83 77
Width: 494
GlyphClass: 2
Flags: MW
HStem: -10 28<249.5 290.5> 434 138<393.5 429 393.5 403> 580 27<220 267 179.5 296>
VStem: 56 82<449.5 485> 367 90<138 164.5> 403 20<434 518>
AnchorPoint: "Anchor-0" 247 0 basechar 0
LayerCount: 2
Back
Fore
SplineSet
48 203 m 1xb4
 73 203 l 1
 88 82 148 18 257 18 c 0
 324 18 366 66 367 138 c 0
 367 191 327 231 268 254 c 2
 166 295 l 2
 94 324 56 374 56 441 c 0
 56 529 118 607 241 607 c 0xb8
 293 607 321 595 370 578 c 0
 381 574 390 572 397 572 c 0
 408 572 418 573 426 576 c 1
 424 560 423 535 423 501 c 0
 423 461 424 449 429 434 c 1xf4
 403 434 l 1xb4
 403 522 338 580 254 580 c 0
 186 580 138 541 138 472 c 0
 138 427 171 391 224 370 c 2
 316 333 l 2
 417 292 457 247 457 168 c 0xb8
 457 62 370 -10 268 -10 c 0
 231 -10 202 -8 165 3 c 0
 126 14 105 18 86 18 c 0
 78 18 53 14 52 13 c 1
 55 29 56 57 56 96 c 0
 56 145 53 187 48 203 c 1xb4
EndSplineSet
Position2: "'cpsp' Capital Spacing lookup 0 per glyph data 2" dx=5 dy=0 dh=10 dv=0
EndChar
StartChar: T
Encoding: 84 84 82
Width: 529
GlyphClass: 2
Flags: MW
HStem: 0 27<199 205 324.5 331> 444 154<15 474 15 474 55 488 55 514> 570 28<120.5 165 165 206 319.5 323 323 365>
VStem: 15 26<444 486.5 444 600> 218 93<52 558 558 559> 488 26<444 486.5>
AnchorPoint: "Anchor-0" 265 0 basechar 0
LayerCount: 2
Back
Fore
SplineSet
15 444 m 1xdc
 15 600 l 1
 22 599 36 598 55 598 c 2
 474 598 l 2
 497 598 510 599 514 600 c 1xbc
 514 444 l 1
 488 444 l 1xdc
 488 529 454 570 365 570 c 2
 323 570 l 2
 316 570 312 566 311 559 c 1
 311 49 l 2
 311 34 318 27 331 27 c 2
 384 29 l 1
 384 0 l 1
 145 0 l 1
 145 29 l 1
 199 27 l 2
 211 27 218 39 218 52 c 2
 218 558 l 2
 218 566 214 570 206 570 c 2
 165 570 l 2xbc
 76 570 41 529 41 444 c 1
 15 444 l 1xdc
EndSplineSet
Position2: "'cpsp' Capital Spacing lookup 0 per glyph data 2" dx=5 dy=0 dh=10 dv=0
EndChar
StartChar: U
Encoding: 85 85 86
Width: 651
GlyphClass: 2
Flags: MW
HStem: -10 31<306 408.5> 568 29
VStem: 92 93<199 548 548 549> 532 35<198 548 548 549>
LayerCount: 2
Back
Fore
SplineSet
35 567 m 1
 35 597 l 1
 254 597 l 1
 254 567 l 1
 205 569 l 2
 193 570 185 561 185 549 c 2
 185 199 l 2
 185 87 250 21 362 21 c 0
 460 21 532 97 532 198 c 2
 532 548 l 2
 532 561 525 570 514 569 c 2
 465 567 l 1
 465 597 l 1
 626 597 l 1
 626 567 l 1
 587 569 l 2
 575 570 567 561 567 549 c 2
 567 189 l 2
 567 74 473 -10 344 -10 c 0
 183 -10 92 62 92 199 c 2
 92 548 l 2
 92 559 84 570 73 569 c 2
 35 567 l 1
EndSplineSet
Position2: "'cpsp' Capital Spacing lookup 0 per glyph data 2" dx=5 dy=0 dh=10 dv=0
EndChar
StartChar: V
Encoding: 86 86 95
Width: 584
GlyphClass: 2
Flags: MW
HStem: -4 21G<283 309 283 283> 569 28<23 27.5 152.5 157 498 505.5 568 568>
VStem: -5 153<545 597 545 597> 509.87 94.13
LayerCount: 2
Back
Fore
SplineSet
447 597 m 1
 604 597 l 1
 604 567 l 1
 568 569 l 2
 557 570 554 562 547 546 c 2
 309 -4 l 1
 283 -4 l 1
 46 546 l 2
 39 561 32 569 23 569 c 2
 -5 567 l 1
 -5 597 l 1
 210 597 l 1
 210 567 l 1
 157 569 l 2
 148 569 144 556 148 545 c 2
 329 129 l 1
 503 534 l 2
 513 557 513 569 498 569 c 2
 447 567 l 1
 447 597 l 1
EndSplineSet
Position2: "'cpsp' Capital Spacing lookup 0 per glyph data 2" dx=5 dy=0 dh=10 dv=0
EndChar
StartChar: W
Encoding: 87 87 96
Width: 884
GlyphClass: 2
Flags: MW
HStem: -10 21G<257 276 257 257 652 668 652 652> 569 28<25 29.5 153.5 158 406 406 525.5 531 803 803 874 874>
VStem: 365 208<567 597 567 597> 751 153<567 597 567 597>
LayerCount: 2
Back
Fore
SplineSet
751 597 m 1
 904 597 l 1
 904 567 l 1
 874 569 l 2
 861 570 852 557 849 548 c 2
 668 -10 l 1
 652 -10 l 1
 446 509 l 1
 276 -10 l 1
 257 -10 l 1
 46 547 l 2
 41 562 34 569 25 569 c 2
 -5 567 l 1
 -5 597 l 1
 211 597 l 1
 211 567 l 1
 158 569 l 2
 149 569 145 567 145 558 c 0
 145 557 146 553 148 547 c 2
 297 155 l 1
 427 556 l 1
 421 567 416 570 406 569 c 2
 365 567 l 1
 365 597 l 1
 573 597 l 1
 573 567 l 1
 531 569 l 2
 520 569 518 555 521 547 c 2
 684 143 l 1
 814 549 l 2
 818 560 814 570 803 569 c 2
 751 567 l 1
 751 597 l 1
EndSplineSet
Position2: "'cpsp' Capital Spacing lookup 0 per glyph data 2" dx=5 dy=0 dh=10 dv=0
EndChar
StartChar: X
Encoding: 88 88 101
Width: 566
GlyphClass: 2
Flags: MW
HStem: 0 28.5 569 28<71 76.5 225 225 431 431 503 509>
VStem: 30 159<0 30 0 30> 39 168.83 388 152<567 597 567 597> 404.12 173.88
LayerCount: 2
Back
Fore
SplineSet
539 27 m 2xe8
 578 30 l 1
 578 0 l 1
 343 0 l 1
 343 30 l 1
 392 27 l 2
 407 26 407 39 399 50 c 1
 273 262 l 1
 138 47 l 2
 131 35 136 26 144 27 c 2
 189 30 l 1
 189 0 l 1
 30 0 l 1
 30 30 l 1
 66 28 l 2
 80 28 91 35 100 50 c 2xe4
 254 296 l 1
 103 550 l 2
 95 565 82 569 71 569 c 2
 39 567 l 1
 39 597 l 1
 267 597 l 1
 267 567 l 1
 225 569 l 2
 208 570 204 557 211 548 c 1
 320 361 l 1xd8
 439 549 l 2
 446 560 446 570 431 569 c 2
 388 567 l 1
 388 597 l 1
 540 597 l 1
 540 567 l 1
 509 569 l 2
 497 569 487 562 478 549 c 2
 340 328 l 1
 509 44 l 2
 514 35 524 26 539 27 c 2xe8
EndSplineSet
Position2: "'cpsp' Capital Spacing lookup 0 per glyph data 2" dx=5 dy=0 dh=10 dv=0
EndChar
StartChar: Y
Encoding: 89 89 102
Width: 507
GlyphClass: 2
Flags: MW
HStem: 0 27<201 207.5 325.5 333> 569 28<23 27.5 163 163 417 423 481.5 487>
VStem: -5 156.25 220 93<49 263 263 263> 365 152<567 597 567 597>
LayerCount: 2
Back
Fore
SplineSet
365 597 m 1
 517 597 l 1
 517 567 l 1
 487 569 l 2
 476 569 467 562 459 548 c 2
 313 287 l 1
 313 48 l 2
 313 36 318 27 333 27 c 2
 381 29 l 1
 381 0 l 1
 152 0 l 1
 152 29 l 1
 201 27 l 2
 214 27 220 34 220 49 c 2
 220 263 l 1
 47 550 l 2
 40 563 32 569 23 569 c 2
 -5 567 l 1
 -5 597 l 1
 216 597 l 1
 216 567 l 1
 163 569 l 2
 148 570 149 556 156 545 c 2
 293 317 l 1
 424 549 l 2
 428 557 429 569 417 569 c 2
 365 567 l 1
 365 597 l 1
EndSplineSet
Position2: "'cpsp' Capital Spacing lookup 0 per glyph data 2" dx=5 dy=0 dh=10 dv=0
EndChar
StartChar: Z
Encoding: 90 90 107
Width: 512
GlyphClass: 2
Flags: MW
HStem: 0 27<141 315 315 360.5 34 34> 443 154<35 464 35 464> 569 28<155.5 203 203 355>
VStem: 35 27<443 486.5 443 600> 465 23
LayerCount: 2
Back
Fore
SplineSet
465 167 m 1xb8
 492 167 l 1
 484 -4 l 1
 475 -1 438 0 371 0 c 2
 34 0 l 1
 34 27 l 1
 355 569 l 1
 203 569 l 2xb8
 108 569 62 530 62 443 c 1
 35 443 l 1xd8
 35 600 l 1
 71 600 103 597 144 597 c 2
 464 597 l 1
 464 573 l 1
 141 27 l 1
 315 27 l 2
 406 27 465 79 465 167 c 1xb8
EndSplineSet
Position2: "'cpsp' Capital Spacing lookup 0 per glyph data 2" dx=5 dy=0 dh=10 dv=0
EndChar
StartChar: bracketleft
Encoding: 91 91 269
Width: 256
Flags: MW
HStem: -147 27<119 223 119 223> 648 27<119 223 119 119>
VStem: 46 73<-120 648 -120 675 -120 675>
LayerCount: 2
Back
Fore
SplineSet
46 -147 m 1
 46 675 l 1
 223 675 l 1
 223 648 l 1
 119 648 l 1
 119 -120 l 1
 223 -120 l 1
 223 -147 l 1
 46 -147 l 1
EndSplineSet
Position2: "'cpsp' Capital Spacing lookup 0 per glyph data 0" dx=0 dy=20 dh=0 dv=0
EndChar
StartChar: backslash
Encoding: 92 92 250
Width: 248
Flags: MW
HStem: -5 21G<210 210>
VStem: -8 258
LayerCount: 2
Back
Fore
SplineSet
-8 626 m 1
 31 635 l 1
 250 6 l 1
 210 -5 l 1
 -8 626 l 1
EndSplineSet
EndChar
StartChar: bracketright
Encoding: 93 93 270
Width: 256
Flags: MW
HStem: -147 27<34 138 34 211 34 138> 648 27<34 138 34 211>
VStem: 138 73<-120 648 648 648>
LayerCount: 2
Back
Fore
SplineSet
211 -147 m 1
 34 -147 l 1
 34 -120 l 1
 138 -120 l 1
 138 648 l 1
 34 648 l 1
 34 675 l 1
 211 675 l 1
 211 -147 l 1
EndSplineSet
Position2: "'cpsp' Capital Spacing lookup 0 per glyph data 0" dx=0 dy=20 dh=0 dv=0
EndChar
StartChar: asciicircum
Encoding: 94 94 335
Width: 460
Flags: MW
HStem: 321 336<18 242 18 242 219 395 219 442>
VStem: 18 424<321 321>
LayerCount: 2
Back
Fore
SplineSet
18 321 m 1
 219 657 l 1
 242 657 l 1
 442 321 l 1
 395 321 l 1
 250 566 l 1
 230 608 l 1
 211 566 l 1
 64 321 l 1
 18 321 l 1
EndSplineSet
EndChar
StartChar: underscore
Encoding: 95 95 266
Width: 493
Flags: MW
HStem: -183 40<0 493 0 493>
VStem: 0 493<-183 -143 -183 -143>
LayerCount: 2
Back
Fore
SplineSet
0 -143 m 1
 493 -143 l 1
 493 -183 l 1
 0 -183 l 1
 0 -143 l 1
EndSplineSet
EndChar
StartChar: grave
Encoding: 96 96 345
Width: 276
Flags: MW
HStem: 493 160<80 232.5>
VStem: 35 206<498.5 631>
LayerCount: 2
Back
Fore
SplineSet
35 627 m 0
 35 635 68 653 92 653 c 0
 107 653 111 647 128 628 c 2
 223 524 l 2
 231 515 241 506 241 501 c 0
 241 496 237 493 228 493 c 0
 221 493 212 499 208 502 c 2
 45 614 l 2
 41 617 35 620 35 627 c 0
EndSplineSet
Substitution2: "'case' Case-Sensitive Forms lookup 10 subtable" grave.case
Substitution2: "'aalt' Access All Alternates lookup 0 subtable" grave.case
EndChar
StartChar: a
Encoding: 97 97 111
Width: 450
GlyphClass: 2
Flags: MW
HStem: -5 36<164 186> 0 24<388.5 393 388.5 430> 231 27<231 294> 403 27<170.5 233.5>
VStem: 27 91<87.5 156 87.5 159> 51 74<353 363.5> 294 86<76 76 162 231 231 231 258 289>
LayerCount: 2
Back
Fore
SplineSet
393 24 m 2x7a
 430 26 l 1
 430 0 l 1
 288 0 l 1
 289 5 292 32 292 37 c 2x7a
 294 76 l 1
 263 16 217 -5 155 -5 c 0
 72 -5 27 32 27 108 c 0xba
 27 210 109 258 294 258 c 1
 294 316 l 2
 294 379 266 403 201 403 c 0
 140 403 125 382 125 361 c 0
 125 345 134 340 134 323 c 0
 134 300 117 289 95 289 c 0
 66 289 51 309 51 336 c 0x76
 51 391 113 430 213 430 c 0
 321 430 380 385 380 289 c 2
 380 43 l 2
 380 30 384 24 393 24 c 2x7a
185 31 m 0xba
 243 31 290 84 294 162 c 1
 294 231 l 1
 168 231 118 196 118 116 c 0
 118 59 143 31 185 31 c 0xba
EndSplineSet
Substitution2: "Single Substitution lookup 17 subtable" ordfeminine
Substitution2: "'aalt' Access All Alternates lookup 0 subtable" ordfeminine
Position2: "Single Positioning lookup 5 subtable" dx=0 dy=0 dh=-40 dv=0
EndChar
StartChar: b
Encoding: 98 98 122
Width: 481
GlyphClass: 2
Flags: MW
HStem: -10 27<234 309 228.5 335.5> -5 21G<70 103 70 70> 403 27<254.5 314.5> 707 23<57 61.5>
VStem: 70 87<342 687 687 693.5> 370 91<136.5 281.5 136.5 284>
LayerCount: 2
Back
Fore
SplineSet
21 705 m 1xbc
 21 730 l 1
 157 730 l 1
 157 342 l 1
 180 397 221 430 288 430 c 0
 405 430 461 354 461 209 c 0
 461 64 400 -10 271 -10 c 0
 197 -10 172 21 149 52 c 1
 146 58 140 61 131 61 c 0xbc
 112 61 103 34 103 -5 c 1
 70 -5 l 1x7c
 70 687 l 2
 70 700 66 707 57 707 c 2
 21 705 l 1xbc
159 184 m 2
 159 86 186 17 271 17 c 0
 347 17 370 63 370 209 c 0
 370 359 352 403 277 403 c 0
 201 403 159 333 159 226 c 2
 159 184 l 2
EndSplineSet
Position2: "Single Positioning lookup 5 subtable" dx=0 dy=0 dh=-40 dv=0
EndChar
StartChar: c
Encoding: 99 99 123
Width: 425
GlyphClass: 2
Flags: MW
HStem: -10 27<204 273.5 204 281.5> 403 27<203 254.5>
VStem: 36 93<149.5 274.5> 313 74<342 357 316 369>
AnchorPoint: "Anchor-0" 213 0 basechar 0
LayerCount: 2
Back
Fore
SplineSet
232 430 m 0
 315 430 387 386 387 328 c 0
 387 304 375 278 339 278 c 0
 318 278 304 287 304 308 c 0
 304 324 313 333 313 351 c 0
 313 387 274 403 235 403 c 0
 171 403 129 361 129 217 c 0
 129 82 166 17 242 17 c 0
 305 17 366 53 383 124 c 1
 407 106 l 1
 384 36 326 -10 237 -10 c 0
 111 -10 36 72 36 206 c 0
 36 343 115 430 232 430 c 0
EndSplineSet
Position2: "Single Positioning lookup 5 subtable" dx=0 dy=0 dh=-40 dv=0
EndChar
StartChar: f
Encoding: 102 102 140
Width: 296
GlyphClass: 2
Flags: MW
HStem: 0 24<72 76.5 179.5 184> 395 25<46 85 46 85 171 171 171 277> 709 27<233 269.5>
VStem: 85 86<43 395> 303 74<647.5 662.5 620 670.5>
LayerCount: 2
Back
Fore
SplineSet
35 0 m 1
 35 26 l 1
 72 24 l 2
 81 24 85 30 85 43 c 2
 85 395 l 1
 46 395 l 1
 46 420 l 1
 85 420 l 1
 85 486 l 2
 85 597 110 736 259 736 c 0
 320 736 377 692 377 633 c 0
 377 607 363 584 329 584 c 0
 308 584 294 593 294 613 c 0
 294 629 303 638 303 657 c 0
 303 684 287 709 252 709 c 0
 214 709 164 690 164 589 c 0
 164 553 170 490 170 449 c 2
 170 420 l 1
 277 420 l 1
 277 395 l 1
 171 395 l 1
 171 43 l 2
 171 30 175 24 184 24 c 2
 250 26 l 1
 250 0 l 1
 35 0 l 1
EndSplineSet
Substitution2: "Single Substitution lookup 17 subtable" f.ss01
Substitution2: "'ss01' Style Set 1 lookup 15 subtable" f.ss01
Substitution2: "'salt' Stylistic Alternatives lookup 14 subtable" f.ss01
Substitution2: "'aalt' Access All Alternates lookup 0 subtable" f.ss01
Position2: "Single Positioning lookup 5 subtable" dx=0 dy=0 dh=-40 dv=0
Position2: "Single Positioning lookup 4 subtable" dx=0 dy=0 dh=50 dv=0
EndChar
StartChar: g
Encoding: 103 103 141
Width: 460
GlyphClass: 2
Flags: MW
HStem: -245 26<168.5 270.5 168.5 287> 0 65<171 189 189 289> 131 23<213.5 259 195 279> 403 27<196.5 240.5 177 258.5> 424 81<419 439.5 407.5 445>
VStem: 32 49<-141.5 -84> 48 67<52.5 110.5> 57 89<252 324.5> 309 89<236 313 236 324> 387 66<-121.5 -53.5>
LayerCount: 2
Back
Fore
SplineSet
390 447 m 0xec40
 380 447 343 433 324 409 c 1
 368 387 398 346 398 280 c 0
 398 192 331 131 227 131 c 0
 200 131 173 136 149 146 c 1
 128 133 115 119 115 102 c 0
 115 77 134 65 171 65 c 2xea80
 304 65 l 2
 399 65 453 29 453 -74 c 0
 453 -178 359 -245 215 -245 c 0
 98 -245 32 -199 32 -112 c 0xf440
 32 -56 65 -22 122 5 c 1
 76 14 48 34 48 71 c 0
 48 99 65 114 95 138 c 2xf240
 122 160 l 1
 84 184 57 224 57 280 c 0
 57 369 127 430 227 430 c 0xf140
 254 430 280 426 303 418 c 1
 337 463 394 505 421 505 c 0
 458 505 467 479 467 461 c 0
 467 445 455 424 435 424 c 0
 403 424 409 447 390 447 c 0xec40
227 154 m 0xf180
 291 154 309 191 309 280 c 0
 309 368 290 403 227 403 c 0
 166 403 146 373 146 280 c 0
 146 185 163 154 227 154 c 0xf180
289 0 m 2xf440
 189 0 l 2
 129 0 81 -55 81 -110 c 0
 81 -173 123 -219 214 -219 c 0
 327 -219 387 -162 387 -81 c 0
 387 -26 357 0 289 0 c 2xf440
EndSplineSet
Position2: "Single Positioning lookup 5 subtable" dx=0 dy=0 dh=-40 dv=0
EndChar
StartChar: h
Encoding: 104 104 144
Width: 525
GlyphClass: 2
Flags: MW
HStem: 0 24<72 72 179.5 184 463.5 468> 398 32<286.5 332.5> 707 23<72 76.5>
VStem: 85 86<43 219 330 686 686 693> 369 86<43 270 270 288>
LayerCount: 2
Back
Fore
SplineSet
468 24 m 2
 505 26 l 1
 505 0 l 1
 310 0 l 1
 310 26 l 1
 356 24 l 1
 365 26 369 32 369 43 c 2
 369 270 l 2
 369 355 363 398 302 398 c 0
 225 398 175 327 171 219 c 1
 171 43 l 2
 171 30 175 24 184 24 c 2
 230 26 l 1
 230 0 l 1
 35 0 l 1
 35 26 l 1
 72 24 l 1
 81 26 85 32 85 43 c 2
 85 686 l 2
 85 700 81 707 72 707 c 2
 35 705 l 1
 35 730 l 1
 171 730 l 1
 171 330 l 1
 198 391 252 430 321 430 c 0
 416 430 455 388 455 288 c 2
 455 43 l 2
 455 30 459 24 468 24 c 2
EndSplineSet
Position2: "Single Positioning lookup 5 subtable" dx=0 dy=0 dh=-40 dv=0
EndChar
StartChar: i
Encoding: 105 105 145
Width: 255
GlyphClass: 2
Flags: MW
HStem: 0 24<72 76.5 179.5 184> 395 25 548 95<105.5 137>
VStem: 67 109<580.5 610.5> 85 86<43 376 376 381.5>
LayerCount: 2
Back
Fore
SplineSet
121 643 m 0xf0
 153 643 176 625 176 596 c 0
 176 565 153 548 121 548 c 0
 90 548 67 565 67 596 c 0
 67 625 90 643 121 643 c 0xf0
171 420 m 1xc8
 171 43 l 2
 171 30 175 24 184 24 c 2
 220 26 l 1
 220 0 l 1
 35 0 l 1
 35 26 l 1
 72 24 l 2
 81 24 85 30 85 43 c 2
 85 376 l 2
 85 387 81 394 73 396 c 1
 36 394 l 1
 36 420 l 1
 171 420 l 1xc8
EndSplineSet
Substitution2: "'locl' Localized Forms in Latin lookup 6 subtable" i.loclTRK
Substitution2: "'locl' Localized Forms in Latin lookup 5 subtable" i.loclTRK
Substitution2: "'locl' Localized Forms in Latin lookup 3 subtable" i.loclTRK
Substitution2: "'locl' Localized Forms in Latin lookup 2 subtable" i.loclTRK
Substitution2: "'locl' Localized Forms in Latin lookup 1 subtable" i.loclTRK
Substitution2: "'aalt' Access All Alternates lookup 0 subtable" i.loclTRK
Position2: "Single Positioning lookup 5 subtable" dx=0 dy=0 dh=-40 dv=0
EndChar
StartChar: j
Encoding: 106 106 155
Width: 251
GlyphClass: 2
Flags: MW
HStem: -243 27<24.5 51.5 24.5 74.5> 396 24<72 76.5> 548 95<107 138.5>
VStem: -73 76<-193.5 -186.5 -199 -162.5> 69 109<580.5 610.5> 85 86<-59 -4 -4 376 376 381.5>
LayerCount: 2
Back
Fore
SplineSet
123 643 m 0xe8
 154 643 178 625 178 596 c 0
 178 565 154 548 123 548 c 0
 91 548 69 565 69 596 c 0
 69 625 91 643 123 643 c 0xe8
171 420 m 1xd4
 171 -4 l 2
 171 -169 121 -243 28 -243 c 0
 -36 -243 -73 -211 -73 -176 c 0
 -73 -149 -54 -132 -26 -132 c 0
 -16 -132 9 -136 9 -160 c 0
 9 -170 3 -182 3 -191 c 0
 3 -207 15 -216 34 -216 c 0
 69 -216 87 -188 87 -133 c 0
 87 -128 85 -85 85 -59 c 2
 85 376 l 2
 85 387 81 396 72 396 c 2
 31 394 l 1
 31 420 l 1
 171 420 l 1xd4
EndSplineSet
Position2: "Single Positioning lookup 5 subtable" dx=0 dy=0 dh=-40 dv=0
EndChar
StartChar: k
Encoding: 107 107 157
Width: 511
GlyphClass: 2
Flags: MW
HStem: 0 24<72 72 179.5 184 464 468> 397 23<331 331 408.5 414> 707 23<73 77>
VStem: 85 86<43 202 237 686 686 693> 288 162<395 420 395 420>
AnchorPoint: "Anchor-0" 256 0 basechar 0
LayerCount: 2
Back
Fore
SplineSet
468 24 m 2
 504 26 l 1
 504 0 l 1
 289 0 l 1
 289 26 l 1
 334 24 l 2
 346 23 348 31 343 38 c 2
 204 230 l 1
 171 202 l 1
 171 43 l 2
 171 30 175 24 184 24 c 2
 230 26 l 1
 230 0 l 1
 35 0 l 1
 35 26 l 1
 72 24 l 1
 81 26 85 32 85 43 c 2
 85 686 l 2
 85 700 81 707 73 707 c 2
 36 705 l 1
 36 730 l 1
 171 730 l 1
 171 237 l 1
 334 377 l 2
 341 384 343 398 331 397 c 2
 288 395 l 1
 288 420 l 1
 450 420 l 1
 450 395 l 1
 414 397 l 2
 403 397 393 392 383 383 c 2
 266 283 l 1
 441 42 l 2
 449 31 460 24 468 24 c 2
EndSplineSet
Position2: "Single Positioning lookup 5 subtable" dx=0 dy=0 dh=-40 dv=0
EndChar
StartChar: m
Encoding: 109 109 165
Width: 801
GlyphClass: 2
Flags: MW
HStem: 0 24<72 72 179.5 184 459.5 464 739.5 744> 396 24<72 76> 398 32<562.5 608.5>
VStem: 85 86<195 203> 365 86<43 223> 645 86<43 270 270 288>
LayerCount: 2
Back
Fore
SplineSet
744 24 m 2xdc
 781 26 l 1
 781 0 l 1
 586 0 l 1
 586 26 l 1
 632 24 l 1
 641 26 645 32 645 43 c 2
 645 270 l 2
 645 355 639 398 578 398 c 0
 508 398 455 329 451 223 c 1
 451 43 l 2
 451 30 455 24 464 24 c 2
 511 26 l 1
 511 0 l 1
 306 0 l 1
 306 26 l 1
 352 24 l 1
 361 26 365 32 365 43 c 2
 365 272 l 2
 365 371 354 397 294 397 c 0xbc
 225 397 178 328 172 231 c 1
 171 43 l 2
 171 30 175 24 184 24 c 2
 230 26 l 1
 230 0 l 1
 35 0 l 1
 35 26 l 1
 72 24 l 1
 81 26 85 32 85 43 c 2
 85 376 l 2
 85 387 80 396 72 396 c 2
 35 394 l 1
 35 420 l 1
 177 420 l 1
 174 411 172 400 172 386 c 2xdc
 172 331 l 1
 191 386 242 430 317 430 c 0
 386 430 435 409 448 317 c 1
 471 392 528 430 597 430 c 0xbc
 692 430 731 388 731 288 c 2
 731 43 l 2
 731 30 735 24 744 24 c 2xdc
171 203 m 1
 171 195 l 1
 171 203 l 1
EndSplineSet
Position2: "Single Positioning lookup 5 subtable" dx=0 dy=0 dh=-40 dv=0
EndChar
StartChar: p
Encoding: 112 112 181
Width: 494
GlyphClass: 2
Flags: MW
HStem: -239 24<56 56 163.5 168> -10 27<241.5 307 233.5 334.5> 396 24<56 60.5> 403 27<253.5 313>
VStem: 69 86<-195 43 340 369> 368 91<136.5 279.5 136.5 281>
LayerCount: 2
Back
Fore
SplineSet
287 430 m 0xdc
 404 430 459 350 459 209 c 0
 459 64 400 -10 269 -10 c 0
 214 -10 174 8 155 43 c 1
 155 -195 l 2
 155 -208 159 -215 168 -215 c 2
 230 -213 l 1
 230 -239 l 1
 24 -239 l 1
 24 -213 l 1
 56 -215 l 1
 65 -214 69 -208 69 -195 c 2
 69 376 l 2
 69 389 65 396 56 396 c 2
 20 394 l 1
 20 420 l 1
 159 420 l 1
 156 401 155 382 155 369 c 2xec
 155 340 l 1
 174 396 220 430 287 430 c 0xdc
276 403 m 0
 199 403 157 330 157 226 c 2
 157 184 l 2
 157 64 198 17 269 17 c 0xec
 345 17 368 62 368 209 c 0
 368 353 350 403 276 403 c 0
EndSplineSet
Position2: "Single Positioning lookup 5 subtable" dx=0 dy=0 dh=-40 dv=0
EndChar
StartChar: q
Encoding: 113 113 183
Width: 490
GlyphClass: 2
Flags: MW
HStem: -239 25.5 -10 27<195.5 254> 400 20G<392 425 425 425> 403 27<194.5 252 159.5 274.5>
VStem: 35 92<125 279.5 125 281.5> 339 86<-195 62 62 62>
LayerCount: 2
Back
Fore
SplineSet
224 430 m 0xdc
 280 430 312 415 341 375 c 0
 344 371 350 361 361 361 c 0xdc
 378 361 392 373 392 420 c 1
 425 420 l 1xec
 425 -195 l 2
 425 -208 429 -215 438 -214 c 2
 470 -213 l 1
 470 -239 l 1
 270 -239 l 1
 270 -213 l 1
 326 -214 l 1
 335 -213 339 -207 339 -195 c 2
 339 62 l 1
 326 25 286 -10 222 -10 c 0
 103 -10 35 37 35 209 c 0
 35 354 95 430 224 430 c 0xdc
231 403 m 0
 158 403 127 350 127 209 c 0
 127 41 164 17 227 17 c 0
 310 17 337 124 337 185 c 2
 337 226 l 2
 337 298 318 403 231 403 c 0
EndSplineSet
Position2: "Single Positioning lookup 5 subtable" dx=0 dy=0 dh=-40 dv=0
EndChar
StartChar: r
Encoding: 114 114 184
Width: 383
GlyphClass: 2
Flags: MW
HStem: 0 24<71 75.5 178.5 183> 396 24<71 75.5> 402 28<263.5 284>
VStem: 84 86<43 216 325 374> 290 79<336 345>
AnchorPoint: "Anchor-0" 137 0 basechar 0
LayerCount: 2
Back
Fore
SplineSet
287 430 m 0xb8
 341 430 369 395 369 352 c 0
 369 320 351 305 327 305 c 0
 311 305 290 313 290 336 c 0
 290 354 298 364 298 381 c 0
 298 390 293 402 275 402 c 0xb8
 209 402 173 290 170 216 c 1
 170 43 l 2
 170 30 174 24 183 24 c 2
 244 26 l 1
 244 0 l 1
 39 0 l 1
 39 26 l 1
 71 24 l 2
 80 24 84 30 84 43 c 2
 84 376 l 2
 84 389 80 396 71 396 c 2
 35 394 l 1
 35 420 l 1
 176 420 l 1
 173 412 170 390 170 374 c 2xd0
 170 325 l 1
 202 402 240 430 287 430 c 0xb8
EndSplineSet
Position2: "Single Positioning lookup 5 subtable" dx=0 dy=0 dh=-40 dv=0
EndChar
StartChar: s
Encoding: 115 115 188
Width: 411
GlyphClass: 2
Flags: MW
HStem: -10 27<197.5 246.5 181 260> 16 127 302 106<325 329 308.5 347 325 325> 403 27<182 231.5 157 246>
VStem: 46.5 28.5 52 75<315.5 342> 304 74<81.5 111.5> 325 25
AnchorPoint: "Anchor-0" 216 0 basechar 0
LayerCount: 2
Back
Fore
SplineSet
44 10 m 1x59
 49 142 l 1x59
 75 144 l 1x99
 75 69 142 17 220 17 c 0
 273 17 304 46 304 93 c 0
 304 130 286 153 234 168 c 2
 138 195 l 2
 86 210 52 249 52 306 c 0
 52 378 109 430 205 430 c 0x96
 258 430 292 408 325 408 c 0
 333 408 345 411 353 416 c 1
 347 302 l 1xa9
 325 302 l 1x99
 325 352 284 403 208 403 c 0
 156 403 127 372 127 332 c 0
 127 299 148 277 189 266 c 2
 285 239 l 2
 356 219 378 182 378 126 c 0
 378 37 308 -10 212 -10 c 0x96
 183 -10 160 -5 100 12 c 0
 89 15 80 16 73 16 c 0
 60 16 50 14 44 10 c 1x59
EndSplineSet
Position2: "Single Positioning lookup 5 subtable" dx=0 dy=0 dh=-40 dv=0
EndChar
StartChar: t
Encoding: 116 116 194
Width: 313
GlyphClass: 2
Flags: MW
HStem: -6 29<196.5 209.5> 395 25<25 62.5 25 85 25 62.5 171 281>
VStem: 85 86<96 395>
AnchorPoint: "Anchor-0" 157 0 basechar 0
LayerCount: 2
Back
Fore
SplineSet
171 522 m 1
 171 420 l 1
 281 420 l 1
 281 395 l 1
 171 395 l 1
 171 88 l 2
 171 37 181 23 212 23 c 0
 231 23 257 40 264 63 c 1
 285 50 l 1
 272 14 240 -6 179 -6 c 0
 111 -6 85 24 85 96 c 2
 85 395 l 1
 25 395 l 1
 25 420 l 1
 100 420 122 434 143 522 c 1
 171 522 l 1
EndSplineSet
Position2: "Single Positioning lookup 5 subtable" dx=0 dy=0 dh=-40 dv=0
EndChar
StartChar: v
Encoding: 118 118 207
Width: 444
GlyphClass: 2
Flags: MW
HStem: -5 21G<194 221 194 194> 396 24<20 24.5 141.5 146 338 338 396.5 402>
VStem: -13 203<394 420 394 420> 294 141<394 420 394 420>
LayerCount: 2
Back
Fore
SplineSet
294 420 m 1
 435 420 l 1
 435 394 l 1
 402 396 l 2
 391 396 383 392 379 381 c 2
 221 -5 l 1
 194 -5 l 1
 40 383 l 2
 37 390 29 396 20 396 c 2
 -13 394 l 1
 -13 420 l 1
 190 420 l 1
 190 394 l 1
 146 396 l 2
 137 396 127 387 131 376 c 2
 240 112 l 1
 346 380 l 2
 349 387 349 397 338 396 c 2
 294 394 l 1
 294 420 l 1
EndSplineSet
Position2: "Single Positioning lookup 5 subtable" dx=0 dy=0 dh=-40 dv=0
EndChar
StartChar: w
Encoding: 119 119 208
Width: 725
GlyphClass: 2
Flags: MW
HStem: -10 21G<191 211 191 191 483 505 483 483> 396 24<33 37 156 156 610 610 671 675> 405 20G<372 393 393 393>
VStem: -13 154<376 420 376 420> 557 159<394 420 394 420>
LayerCount: 2
Back
Fore
SplineSet
557 420 m 1xc8
 716 420 l 1
 716 394 l 1
 675 396 l 2
 667 396 658 391 654 379 c 2
 505 -10 l 1
 483 -10 l 1
 349 302 l 1
 211 -10 l 1
 191 -10 l 1
 50 383 l 2
 47 390 41 396 33 396 c 2
 -13 394 l 1
 -13 420 l 1
 200 420 l 1
 200 394 l 1
 156 396 l 2
 141 397 137 387 141 376 c 2xd8
 235 111 l 1
 372 425 l 1
 393 425 l 1xb0
 526 117 l 1
 621 379 l 2
 624 387 625 397 610 396 c 2
 557 394 l 1
 557 420 l 1xc8
EndSplineSet
Position2: "Single Positioning lookup 5 subtable" dx=0 dy=0 dh=-40 dv=0
EndChar
StartChar: x
Encoding: 120 120 213
Width: 486
GlyphClass: 2
Flags: MW
HStem: 0 24<48 51.5 109.5 114 430.5 434> 396 24<50 53.5 176 180 340 345.5 400.5 404>
VStem: 5 152<0 26 0 26> 297 149<394 420 394 420>
LayerCount: 2
Back
Fore
SplineSet
434 24 m 2
 478 26 l 1
 478 0 l 1
 257 0 l 1
 257 26 l 1
 306 23 l 2
 315 22 317 32 313 37 c 2
 211 182 l 1
 103 38 l 2
 102 37 101 35 101 34 c 0
 101 27 105 24 114 24 c 2
 157 26 l 1
 157 0 l 1
 5 0 l 1
 5 26 l 1
 48 24 l 2
 55 24 62 28 69 37 c 2
 194 206 l 1
 69 383 l 1
 64 392 57 396 50 396 c 2
 11 394 l 1
 11 420 l 1
 226 420 l 1
 226 394 l 1
 180 396 l 2
 172 396 164 391 171 383 c 1
 257 261 l 1
 346 379 l 2
 351 386 351 396 340 396 c 2
 297 394 l 1
 297 420 l 1
 446 420 l 1
 446 394 l 1
 404 396 l 2
 397 396 386 390 379 381 c 2
 274 237 l 1
 415 37 l 2
 421 28 427 24 434 24 c 2
EndSplineSet
Position2: "Single Positioning lookup 5 subtable" dx=0 dy=0 dh=-40 dv=0
EndChar
StartChar: y
Encoding: 121 121 214
Width: 485
GlyphClass: 2
Flags: MW
HStem: -239 58<107 111.5> 396 24<36 40 156.5 161 374 379.5 433.5 439 439 441>
VStem: 327 155<394 420 394 420>
LayerCount: 2
Back
Fore
SplineSet
327 420 m 1
 482 420 l 1
 482 394 l 1
 441 396 l 1
 439 396 l 2
 428 396 420 390 414 377 c 2
 203 -132 l 2
 171 -211 138 -239 85 -239 c 0
 50 -239 22 -222 19 -190 c 1
 19 -155 39 -139 58 -139 c 0
 99 -139 93 -181 121 -181 c 0
 136 -181 154 -168 167 -135 c 2
 225 4 l 1
 52 383 l 2
 48 391 44 396 36 396 c 2
 -13 394 l 1
 -13 420 l 1
 206 420 l 1
 206 394 l 1
 161 396 l 2
 152 396 145 387 149 379 c 2
 271 111 l 1
 384 381 l 2
 387 389 385 396 374 396 c 2
 327 394 l 1
 327 420 l 1
EndSplineSet
Position2: "Single Positioning lookup 5 subtable" dx=0 dy=0 dh=-40 dv=0
EndChar
StartChar: z
Encoding: 122 122 219
Width: 441
GlyphClass: 2
Flags: MW
HStem: 0 25<112.5 248 142 248 248 290> 395 25<151 185 185 283>
VStem: 377 21<101 139>
LayerCount: 2
Back
Fore
SplineSet
377 139 m 1
 398 139 l 1
 398 0 l 1
 138 0 l 2
 87 0 46 -2 34 -2 c 1
 34 18 l 1
 283 395 l 1
 185 395 l 2
 117 395 77 352 66 280 c 1
 45 280 l 1
 54 422 l 1
 58 422 99 420 150 420 c 2
 388 420 l 1
 388 401 l 1
 142 25 l 1
 248 25 l 2
 332 25 377 63 377 139 c 1
EndSplineSet
Position2: "Single Positioning lookup 5 subtable" dx=0 dy=0 dh=-40 dv=0
EndChar
StartChar: braceleft
Encoding: 123 123 267
Width: 280
Flags: MW
HStem: -146 30<161 235 208 235 208 235> 645 30<201 208 208 235>
VStem: 102 67<-53 176 358 582 582 589>
LayerCount: 2
Back
Fore
SplineSet
30 257 m 1
 30 277 l 1
 83 285 102 305 102 358 c 2
 102 582 l 2
 102 654 124 675 201 675 c 2
 235 675 l 1
 235 645 l 1
 208 645 l 2
 182 645 169 626 169 589 c 2
 169 358 l 2
 169 296 148 280 73 267 c 1
 148 251 169 238 169 176 c 2
 169 -60 l 2
 169 -95 180 -116 208 -116 c 2
 235 -116 l 1
 235 -146 l 1
 201 -146 l 2
 121 -146 102 -125 102 -53 c 2
 102 176 l 2
 102 237 89 244 30 257 c 1
EndSplineSet
Position2: "'cpsp' Capital Spacing lookup 0 per glyph data 0" dx=0 dy=20 dh=0 dv=0
EndChar
StartChar: bar
Encoding: 124 124 323
Width: 232
Flags: MW
HStem: -239 969<98 134 98 134>
VStem: 98 36<-239 730 -239 730>
LayerCount: 2
Back
Fore
SplineSet
98 -239 m 1
 98 730 l 1
 134 730 l 1
 134 -239 l 1
 98 -239 l 1
EndSplineSet
EndChar
StartChar: braceright
Encoding: 125 125 268
Width: 290
Flags: MW
HStem: -146 30<55 82 82 89 55 82> 645 30<55 82 55 89>
VStem: 121 67<-60 -53 -53 176 358 582>
LayerCount: 2
Back
Fore
SplineSet
260 257 m 1
 201 244 188 237 188 176 c 2
 188 -53 l 2
 188 -125 169 -146 89 -146 c 2
 55 -146 l 1
 55 -116 l 1
 82 -116 l 2
 110 -116 121 -95 121 -60 c 2
 121 176 l 2
 121 238 142 251 217 267 c 1
 142 280 121 296 121 358 c 2
 121 589 l 2
 121 626 108 645 82 645 c 2
 55 645 l 1
 55 675 l 1
 89 675 l 2
 166 675 188 654 188 582 c 2
 188 358 l 2
 188 305 207 285 260 277 c 1
 260 257 l 1
EndSplineSet
Position2: "'cpsp' Capital Spacing lookup 0 per glyph data 0" dx=0 dy=20 dh=0 dv=0
EndChar
StartChar: asciitilde
Encoding: 126 126 297
Width: 460
Flags: MW
HStem: 215 48<294.5 341.5 294.5 347> 280 48<114.5 161.5>
VStem: 22 417<255 293>
LayerCount: 2
Back
Fore
SplineSet
22 255 m 1
 51 304 87 328 131 328 c 0x60
 196 328 264 263 325 263 c 0
 358 263 380 277 411 322 c 1
 439 293 l 1
 410 245 369 215 325 215 c 0xe0
 262 215 192 280 131 280 c 0
 98 280 80 271 49 226 c 1
 22 255 l 1
EndSplineSet
EndChar
StartChar: exclamdown
Encoding: 161 161 257
Width: 269
Flags: MW
HStem: 330 115<97.5 131.5 97.5 133>
VStem: 50 129<372 403> 103 23<138 223.5>
LayerCount: 2
Back
Fore
SplineSet
114 445 m 0xc0
 149 445 179 419 179 388 c 0
 179 356 151 330 115 330 c 0
 79 330 50 355 50 387 c 0
 50 419 81 445 114 445 c 0xc0
115 234 m 0xa0
 122 234 126 229 126 218 c 0
 126 58 164 -135 164 -193 c 0
 164 -224 146 -242 114 -242 c 0
 83 -242 65 -224 65 -193 c 0
 65 -137 103 58 103 218 c 0
 103 229 107 234 115 234 c 0xa0
EndSplineSet
Position2: "'cpsp' Capital Spacing lookup 0 per glyph data 1" dx=0 dy=35 dh=0 dv=0
EndChar
StartChar: cent
Encoding: 162 162 288
Width: 394
Flags: MW
HStem: 115 25<206 206> 443 24<206 206 206 230.5>
VStem: 42 92<240.5 344.5> 206 37<-95 115 115 115 467 647> 274 72<396.5 404 373 417.5>
LayerCount: 2
Back
Fore
SplineSet
358 209 m 1
 340 155 300 124 243 117 c 1
 243 -95 l 1
 206 -95 l 1
 206 115 l 1
 110 118 42 175 42 288 c 0
 42 401 110 464 206 467 c 1
 206 647 l 1
 243 647 l 1
 243 465 l 1
 303 457 346 424 346 384 c 0
 346 362 334 340 302 340 c 0
 281 340 266 349 266 369 c 0
 266 382 274 389 274 404 c 0
 274 431 245 443 216 443 c 0
 167 443 134 410 134 298 c 0
 134 183 168 140 226 140 c 0
 273 140 319 164 336 222 c 1
 358 209 l 1
EndSplineSet
EndChar
StartChar: sterling
Encoding: 163 163 293
Width: 507
Flags: MW
HStem: -3 76 0 73<106.5 308 150 308 308 360.5 150 376> 306 23<36 116 36 116 212 331> 584 23<259.5 305>
VStem: 116 96<194.5 226 226 306 194.5 306> 335 82<509.5 521> 439 20
LayerCount: 2
Back
Fore
SplineSet
439 168 m 1x7a
 464 168 l 1x7a
 454 -3 l 1xba
 437 -3 412 -1 376 0 c 1x7a
 120 0 l 2
 93 0 50 -2 30 -3 c 1
 28 1 l 1
 81 34 116 94 116 156 c 2
 116 306 l 1
 36 306 l 1
 36 329 l 1
 116 329 l 1
 116 410 l 2
 116 547 167 607 292 607 c 0
 363 607 417 569 417 520 c 0
 417 499 397 480 376 480 c 0
 356 480 335 495 335 514 c 0
 335 528 343 536 343 547 c 0x7e
 343 572 324 584 286 584 c 0
 233 584 195 547 195 487 c 0
 195 463 210 386 212 329 c 1
 331 329 l 1
 331 306 l 1
 212 306 l 1
 212 226 l 2
 212 163 181 107 150 73 c 1
 308 73 l 2
 413 73 439 94 439 168 c 1x7a
EndSplineSet
EndChar
StartChar: currency
Encoding: 164 164 289
Width: 443
Flags: MW
HStem: 94 32<201.5 242> 399 20G<402 402> 400 20G<43 43> 403 32<202 243.5 202 260.5>
VStem: 52 31<244.5 286> 361 32<243 285 243 302.5>
LayerCount: 2
Back
Fore
SplineSet
393 265 m 0x9c
 393 221 378 183 353 155 c 1
 401 106 l 1
 378 83 l 1
 330 132 l 1
 300 108 262 94 222 94 c 0
 181 94 143 109 114 133 c 1
 65 84 l 1
 42 107 l 1
 91 156 l 1
 67 186 52 224 52 265 c 0
 52 307 67 344 90 373 c 1
 43 420 l 1
 66 443 l 1xac
 113 396 l 1
 143 421 182 435 222 435 c 0
 265 435 303 420 332 395 c 1
 379 442 l 1x9c
 402 419 l 1
 354 372 l 1xcc
 379 343 393 305 393 265 c 0x9c
222 126 m 0
 299 126 361 188 361 265 c 0
 361 340 299 403 222 403 c 0
 145 403 83 340 83 265 c 0
 83 188 145 126 222 126 c 0
EndSplineSet
EndChar
StartChar: yen
Encoding: 165 165 294
Width: 507
Flags: MW
HStem: 0 27<201 207.5 325.5 333> 202 29<88 220 88 220 313 445> 312 29<88 173 88 190 88 173 343 445> 569 28<23 27.5 163 163 417 423 481.5 487>
VStem: -5 156.25 220 93<49 202 231 263 263 263> 365 152<567 597 567 597>
LayerCount: 2
Back
Fore
SplineSet
365 597 m 1
 517 597 l 1
 517 567 l 1
 487 569 l 2
 476 569 467 562 459 548 c 2
 343 341 l 1
 445 341 l 1
 445 312 l 1
 327 312 l 1
 313 287 l 1
 313 231 l 1
 445 231 l 1
 445 202 l 1
 313 202 l 1
 313 48 l 2
 313 36 318 27 333 27 c 2
 381 29 l 1
 381 0 l 1
 152 0 l 1
 152 29 l 1
 201 27 l 2
 214 27 220 34 220 49 c 2
 220 202 l 1
 88 202 l 1
 88 231 l 1
 220 231 l 1
 220 263 l 1
 190 312 l 1
 88 312 l 1
 88 341 l 1
 173 341 l 1
 47 550 l 2
 40 563 32 569 23 569 c 2
 -5 567 l 1
 -5 597 l 1
 216 597 l 1
 216 567 l 1
 163 569 l 2
 148 570 149 556 156 545 c 2
 293 317 l 1
 424 549 l 2
 428 557 429 569 417 569 c 2
 365 567 l 1
 365 597 l 1
EndSplineSet
EndChar
StartChar: brokenbar
Encoding: 166 166 324
Width: 232
Flags: MW
HStem: 587 20G<97 135 135 135>
VStem: 97 38<-231 113 -231 113 265 607>
LayerCount: 2
Back
Fore
SplineSet
97 265 m 1
 97 607 l 1
 135 607 l 1
 135 265 l 1
 97 265 l 1
97 113 m 1
 135 113 l 1
 135 -231 l 1
 97 -231 l 1
 97 113 l 1
EndSplineSet
EndChar
StartChar: section
Encoding: 167 167 330
Width: 437
Flags: MW
HStem: -135 23<195.5 238.5 195.5 258> 584 23<203.5 246.5>
VStem: 35 65<279 281.5> 56 74<-71.5 -59.5 -81 -25.5> 62 75<490.5 515> 305 75<-43 -18.5> 312 74<531.5 543.5 497.5 553> 342 65<190.5 193>
LayerCount: 2
Back
Fore
SplineSet
316 105 m 1xcc
 361 68 380 36 380 -4 c 0
 380 -82 311 -135 205 -135 c 0
 119 -135 56 -100 56 -43 c 0
 56 -8 79 14 108 14 c 0
 130 14 150 1 150 -23 c 0
 150 -46 130 -51 130 -68 c 0xd4
 130 -94 176 -112 215 -112 c 0
 262 -112 305 -86 305 -37 c 0
 305 0 281 21 247 44 c 2
 123 129 l 2
 66 168 35 199 35 254 c 0xe4
 35 309 66 346 126 367 c 1
 81 404 62 436 62 476 c 0
 62 554 131 607 237 607 c 0
 323 607 386 572 386 515 c 0
 386 480 363 458 334 458 c 0
 312 458 292 471 292 495 c 0
 292 518 312 523 312 540 c 0xca
 312 566 266 584 227 584 c 0
 180 584 137 558 137 509 c 0
 137 472 161 451 195 428 c 2
 319 343 l 2
 376 304 407 273 407 218 c 0xc9
 407 163 376 126 316 105 c 1xcc
271 139 m 1
 295 122 l 1
 330 137 342 155 342 182 c 0
 342 204 334 221 299 245 c 2
 171 333 l 1
 147 350 l 1
 112 335 100 317 100 290 c 0
 100 268 108 251 143 227 c 2xe1
 271 139 l 1
EndSplineSet
EndChar
StartChar: dieresis
Encoding: 168 168 343
Width: 373
Flags: MW
HStem: 547 97<73.5 103.5 73.5 104.5 268.5 298.5>
VStem: 35 108<580.5 609> 230 108<580.5 609>
LayerCount: 2
Back
Fore
SplineSet
35 595 m 0
 35 623 58 644 89 644 c 0
 118 644 143 623 143 595 c 0
 143 566 120 547 89 547 c 0
 58 547 35 566 35 595 c 0
230 595 m 0
 230 623 253 644 284 644 c 0
 313 644 338 623 338 595 c 0
 338 566 315 547 284 547 c 0
 253 547 230 566 230 595 c 0
EndSplineSet
Substitution2: "'case' Case-Sensitive Forms lookup 10 subtable" dieresis.case
Substitution2: "'aalt' Access All Alternates lookup 0 subtable" dieresis.case
EndChar
StartChar: copyright
Encoding: 169 169 328
Width: 723
Flags: MW
HStem: -10 30<282 438 282 446> 131 22<347.5 390> 156 73<471 488 488 492> 375 72<469 488 469 469> 451 20<345.5 397> 577 30<282 438>
VStem: 53 32<220 376 220 383> 193 88<250 350.5 250 353.5> 469 19<375 375> 636 34<220 376>
LayerCount: 2
Back
Fore
SplineSet
53 298 m 0
 53 468 189 607 361 607 c 0
 531 607 670 468 670 298 c 0
 670 126 531 -10 361 -10 c 0
 189 -10 53 126 53 298 c 0
85 298 m 0
 85 142 204 20 360 20 c 0
 516 20 636 142 636 298 c 0
 636 454 516 577 360 577 c 0
 204 577 85 454 85 298 c 0
193 299 m 0
 193 408 258 471 368 471 c 0xcfc0
 431 471 446 447 488 447 c 1
 487 435 486 419 486 406 c 0
 486 389 487 376 488 375 c 1xd7c0
 469 375 l 1
 460 416 418 451 376 451 c 0
 315 451 281 402 281 299 c 0
 281 201 317 153 378 153 c 0xcfc0
 427 153 462 186 471 229 c 1
 493 229 l 1
 491 205 490 189 490 182 c 0xafc0
 490 172 491 163 492 156 c 1
 488 156 l 2
 453 156 415 131 365 131 c 0
 258 131 193 195 193 299 c 0
EndSplineSet
EndChar
StartChar: ordfeminine
Encoding: 170 170 226
Width: 350
GlyphClass: 2
Flags: MW
HStem: 350 23<274 276> 482 23<174 210> 592 23<138.5 175.5>
VStem: 44 63<401.5 438.5 401.5 443> 55 62<550.5 571.5 548.5 577.5> 210 60<457 482 482 482 505 527>
LayerCount: 2
Back
Fore
SplineSet
44 411 m 0xf4
 44 475 94 505 210 505 c 1
 210 542 l 2
 210 575 193 592 158 592 c 0
 119 592 117 585 117 558 c 0
 117 539 107 529 87 529 c 0
 66 529 55 540 55 561 c 0xec
 55 594 89 615 158 615 c 0
 235 615 270 588 270 527 c 2
 270 380 l 2
 270 375 272 373 276 373 c 2
 306 374 l 1
 306 350 l 1
 211 350 l 1
 214 397 l 1
 199 360 171 342 128 342 c 0
 72 342 44 365 44 411 c 0xf4
107 416 m 0
 107 387 122 373 145 373 c 0
 180 373 210 410 210 457 c 2
 210 482 l 1
 138 482 107 461 107 416 c 0
EndSplineSet
EndChar
StartChar: guillemotleft
Encoding: 171 171 277
Width: 428
Flags: MW
HStem: 16 342<174 210 174 210 174 342 342 378>
VStem: 25 353<16 187>
LayerCount: 2
Back
Fore
SplineSet
25 187 m 1
 174 358 l 1
 210 358 l 1
 112 187 l 1
 210 16 l 1
 174 16 l 1
 25 187 l 1
193 187 m 1
 342 358 l 1
 378 358 l 1
 280 187 l 1
 378 16 l 1
 342 16 l 1
 193 187 l 1
EndSplineSet
Position2: "'cpsp' Capital Spacing lookup 0 per glyph data 0" dx=0 dy=20 dh=0 dv=0
EndChar
StartChar: logicalnot
Encoding: 172 172 309
Width: 460
Flags: MW
HStem: 319 41<20 440 20 397>
VStem: 397 43<146 319 319 319>
LayerCount: 2
Back
Fore
SplineSet
20 319 m 1
 20 360 l 1
 440 360 l 1
 440 146 l 1
 397 146 l 1
 397 319 l 1
 20 319 l 1
EndSplineSet
EndChar
StartChar: uni00AD
Encoding: 173 173 276
Width: 250
Flags: MW
HStem: 189 55<22 228 22 228>
VStem: 22 206<189 244 189 244>
LayerCount: 2
Back
Fore
SplineSet
22 189 m 1
 22 244 l 1
 228 244 l 1
 228 189 l 1
 22 189 l 1
EndSplineSet
EndChar
StartChar: registered
Encoding: 174 174 329
Width: 492
Flags: MW
HStem: 220 26<196.5 293.5 196.5 300.5> 317 18<151 163 163 165 235 252 151 163> 400 19<228 238 228 247> 411 8 496 18<151 161 151 253 231.5 233 233 242> 581 26<196.5 293.5>
VStem: 46 29<364 462.5 364 469> 169 59<342 400 419 489 489 491> 272 58<451.5 472> 277 58<350 362 362 374 350 375.5> 416 30<364 462.5>
LayerCount: 2
Back
Fore
SplineSet
246 607 m 0xef60
 355 607 446 525 446 413 c 0
 446 303 355 220 246 220 c 0
 135 220 46 303 46 413 c 0
 46 525 135 607 246 607 c 0xef60
245 581 m 0
 148 581 75 512 75 413 c 0
 75 315 148 246 245 246 c 0
 342 246 416 315 416 413 c 0
 416 512 342 581 245 581 c 0
151 514 m 1
 253 514 l 2
 305 514 330 499 330 466 c 0xdfa0
 330 437 309 417 274 411 c 1
 301 411 335 392 335 356 c 0
 335 344 337 329 355 334 c 1xdf60
 355 317 l 1
 318 317 l 2
 292 317 277 326 277 348 c 2
 277 362 l 2
 277 389 257 400 238 400 c 2
 228 400 l 1
 228 342 l 2
 228 337 231 335 235 335 c 2
 252 335 l 1
 252 317 l 1
 151 317 l 1
 151 335 l 1
 163 335 l 2
 167 335 169 337 169 342 c 2
 169 489 l 2
 169 493 167 496 161 496 c 2
 151 496 l 1
 151 514 l 1
242 496 m 2
 233 496 l 2
 230 496 228 495 228 493 c 2
 228 419 l 1
 247 419 l 2xefa0
 263 419 272 436 272 459 c 0
 272 485 262 496 242 496 c 2
EndSplineSet
EndChar
StartChar: macron
Encoding: 175 175 347
Width: 447
Flags: MW
HStem: 567 40<104 343 104 343>
VStem: 104 239<567 607 567 607>
LayerCount: 2
Back
Fore
SplineSet
104 567 m 1
 104 607 l 1
 343 607 l 1
 343 567 l 1
 104 567 l 1
EndSplineSet
Substitution2: "'case' Case-Sensitive Forms lookup 10 subtable" macron.case
Substitution2: "'aalt' Access All Alternates lookup 0 subtable" macron.case
EndChar
StartChar: degree
Encoding: 176 176 332
Width: 374
Flags: MW
HStem: 411 42<171.5 202.5 171.5 214> 565 42<171.5 202.5>
VStem: 89 42<493.5 524.5 493.5 536> 243 42<493.5 524.5>
LayerCount: 2
Back
Fore
SplineSet
89 509 m 0
 89 563 133 607 187 607 c 0
 241 607 285 563 285 509 c 0
 285 455 241 411 187 411 c 0
 133 411 89 455 89 509 c 0
131 509 m 0
 131 478 156 453 187 453 c 0
 218 453 243 478 243 509 c 0
 243 540 218 565 187 565 c 0
 156 565 131 540 131 509 c 0
EndSplineSet
EndChar
StartChar: plusminus
Encoding: 177 177 318
Width: 460
Flags: MW
HStem: 0 41<20 440 20 440> 274 41<20 207 20 207 252 440>
VStem: 207 45<80 274 80 274 315 506>
LayerCount: 2
Back
Fore
SplineSet
20 274 m 1
 20 315 l 1
 207 315 l 1
 207 506 l 1
 252 506 l 1
 252 315 l 1
 440 315 l 1
 440 274 l 1
 252 274 l 1
 252 80 l 1
 207 80 l 1
 207 274 l 1
 20 274 l 1
20 0 m 1
 20 41 l 1
 440 41 l 1
 440 0 l 1
 20 0 l 1
EndSplineSet
EndChar
StartChar: uni00B2
Encoding: 178 178 247
Width: 262
Flags: MW
HStem: 403 51<70 165 165 183 70 200 29 165> 660 18<116 135.5>
VStem: 25 73<609.5 614 600.5 635> 163 75<589.5 631>
LayerCount: 2
Back
Fore
SplineSet
221 480 m 1
 241 480 l 1
 234 452 231 413 231 401 c 1
 227 402 210 403 200 403 c 2
 29 403 l 1
 27 447 l 1
 85 493 l 1
 145 542 163 566 163 613 c 0
 163 649 146 660 125 660 c 0
 107 660 93 652 93 638 c 0
 93 629 98 619 98 609 c 0
 98 592 82 583 63 583 c 0
 37 583 25 600 25 619 c 0
 25 651 63 678 128 678 c 0
 189 678 238 655 238 607 c 0
 238 566 219 545 126 488 c 2
 70 454 l 1
 165 454 l 2
 201 454 217 460 221 480 c 1
EndSplineSet
EndChar
StartChar: uni00B3
Encoding: 179 179 248
Width: 250
Flags: MW
HStem: 397 19<105.5 131.5 105.5 152> 537 16<67 88> 660 18<106.5 127.5>
VStem: 9 72<456 462> 16 72<615 620.5 606.5 641> 67 62<547 550 547 553 547 553> 152 75<599.5 631.5> 170 74<458 495.5>
LayerCount: 2
Back
Fore
SplineSet
67 537 m 1xe5
 67 553 l 1xe5
 109 553 152 576 152 621 c 0
 152 642 140 660 115 660 c 0
 98 660 84 652 84 638 c 0
 84 630 88 625 88 616 c 0
 88 597 70 590 53 590 c 0
 27 590 16 607 16 623 c 0
 16 659 68 678 122 678 c 0
 178 678 227 659 227 619 c 0xea
 227 580 183 556 129 550 c 1
 129 547 l 1xe5
 202 546 244 523 244 479 c 0
 244 430 189 397 115 397 c 0
 56 397 9 419 9 453 c 0
 9 471 22 486 47 486 c 0
 67 486 81 476 81 459 c 0
 81 453 77 444 77 438 c 0xf1
 77 421 97 416 114 416 c 0
 149 416 170 441 170 475 c 0
 170 516 143 530 67 537 c 1xe5
EndSplineSet
EndChar
StartChar: acute
Encoding: 180 180 338
Width: 276
Flags: MW
HStem: 493 160<43.5 196>
VStem: 35 206<498.5 631>
LayerCount: 2
Back
Fore
SplineSet
241 627 m 0
 241 620 235 617 231 614 c 2
 68 502 l 2
 64 499 55 493 48 493 c 0
 39 493 35 496 35 501 c 0
 35 506 45 515 53 524 c 2
 148 628 l 2
 165 647 169 653 184 653 c 0
 208 653 241 635 241 627 c 0
EndSplineSet
Substitution2: "'case' Case-Sensitive Forms lookup 10 subtable" acute.case
Substitution2: "'aalt' Access All Alternates lookup 0 subtable" acute.case
EndChar
StartChar: uni00B5
Encoding: 181 181 310
Width: 536
Flags: MW
HStem: -239 25.5 -10 33<214.5 258.5> 0 24<460.5 465 460.5 501> 396 24<68 72.5 353 357>
VStem: 81 86<106 148 148 377 377 383.5> 365 87<73 87 87 87 211 375 375 382>
LayerCount: 2
Back
Fore
SplineSet
465 24 m 2xbc
 501 26 l 1
 501 0 l 1
 359 0 l 1
 363 11 365 39 365 73 c 2xbc
 365 87 l 1
 342 31 293 -10 224 -10 c 0
 205 -10 178 -2 165 9 c 1
 165 -195 l 2
 165 -206 170 -212 179 -214 c 1
 225 -213 l 1
 225 -239 l 1
 20 -239 l 1
 20 -213 l 1
 66 -214 l 1
 74 -213 79 -206 81 -195 c 1
 81 377 l 2
 81 390 77 396 68 396 c 2
 32 394 l 1
 32 420 l 1
 167 420 l 1
 167 148 l 2
 167 64 176 23 228 23 c 0xdc
 309 23 365 94 365 211 c 2
 365 375 l 2
 365 389 361 396 353 396 c 2
 306 394 l 1
 306 420 l 1
 452 420 l 1
 452 43 l 2
 452 30 456 24 465 24 c 2xbc
EndSplineSet
EndChar
StartChar: paragraph
Encoding: 182 182 327
Width: 499
Flags: MW
HStem: 566 31<289.5 301 301 342 377 478 377 377>
VStem: 228 35<-269 288 288 288> 342 35<-269 566 -269 566>
LayerCount: 2
Back
Fore
SplineSet
30 442 m 0
 30 537 104 597 228 597 c 2
 478 597 l 1
 478 566 l 1
 377 566 l 1
 377 -269 l 1
 342 -269 l 1
 342 566 l 1
 301 566 l 2
 278 566 263 555 263 528 c 2
 263 -269 l 1
 228 -269 l 1
 228 288 l 1
 104 288 30 343 30 442 c 0
EndSplineSet
EndChar
StartChar: periodcentered
Encoding: 183 183 251
Width: 250
Flags: MW
HStem: 127 115<106.5 143.5>
VStem: 60 130<166.5 201.5>
LayerCount: 2
Back
Fore
SplineSet
60 184 m 0
 60 219 88 242 125 242 c 0
 162 242 190 220 190 184 c 0
 190 149 162 127 125 127 c 0
 88 127 60 149 60 184 c 0
EndSplineSet
EndChar
StartChar: cedilla
Encoding: 184 184 341
Width: 233
Flags: MW
HStem: -214 27<69.5 134.5>
VStem: 65 47<-67.5 -62.5> 133 65<-148.5 -124.5>
LayerCount: 2
Back
Fore
SplineSet
35 -198 m 1
 42 -174 l 1
 50 -183 62 -187 77 -187 c 0
 108 -187 133 -164 133 -133 c 0
 133 -116 116 -103 99 -94 c 1xa0
 76 -80 l 2
 69 -75 65 -70 65 -65 c 0
 65 -60 67 -56 71 -52 c 2
 112 0 l 1
 145 0 l 1
 118 -43 l 2
 114 -50 112 -57 112 -62 c 0xe0
 112 -85 198 -70 198 -122 c 0
 198 -178 165 -214 104 -214 c 0
 87 -214 58 -213 35 -198 c 1
EndSplineSet
EndChar
StartChar: uni00B9
Encoding: 185 185 246
Width: 187
Flags: MW
HStem: 403 21<33 59 59 62 145 171 33 59>
VStem: 68 69<433 613 613 615.5>
LayerCount: 2
Back
Fore
SplineSet
137 682 m 1
 137 433 l 2
 137 427 139 424 145 424 c 2
 171 424 l 1
 171 403 l 1
 33 403 l 1
 33 424 l 1
 59 424 l 2
 65 424 68 427 68 433 c 2
 68 613 l 2
 68 618 64 622 59 620 c 2
 29 612 l 1
 23 635 l 1
 68 644 101 665 126 682 c 1
 137 682 l 1
EndSplineSet
EndChar
StartChar: ordmasculine
Encoding: 186 186 227
Width: 351
GlyphClass: 2
Flags: MW
HStem: 344 24<149.5 197 149.5 217> 594 24<151 199>
VStem: 44 71<442 520.5 440.5 523.5> 236 71<437.5 522.5>
LayerCount: 2
Back
Fore
SplineSet
44 480 m 0
 44 567 94 618 175 618 c 0
 255 618 307 569 307 480 c 0
 307 395 259 344 175 344 c 0
 86 344 44 404 44 480 c 0
115 480 m 0
 115 401 124 368 175 368 c 0
 219 368 236 388 236 480 c 0
 236 565 223 594 175 594 c 0
 127 594 115 561 115 480 c 0
EndSplineSet
EndChar
StartChar: guillemotright
Encoding: 187 187 278
Width: 433
Flags: MW
HStem: 16 342<50 86 50 86 50 222 222 258>
VStem: 50 357<16 187 187 358>
LayerCount: 2
Back
Fore
SplineSet
235 187 m 1
 86 16 l 1
 50 16 l 1
 148 187 l 1
 50 358 l 1
 86 358 l 1
 235 187 l 1
407 187 m 1
 258 16 l 1
 222 16 l 1
 320 187 l 1
 222 358 l 1
 258 358 l 1
 407 187 l 1
EndSplineSet
Position2: "'cpsp' Capital Spacing lookup 0 per glyph data 0" dx=0 dy=20 dh=0 dv=0
EndChar
StartChar: onequarter
Encoding: 188 188 244
Width: 559
Flags: MW
HStem: 0 21<372 405 405 408 492 512 372 405> 65 37<324 414 324 414 483 519> 332 21<62 88 88 91 174 200 62 88> 585 20G
VStem: 97 69<362 542 542 544.5> 414 69<30 65 27 65 102 198 198 198>
LayerCount: 2
Back
Fore
SplineSet
88 549 m 2
 58 541 l 1
 52 564 l 1
 97 573 130 594 155 611 c 1
 166 611 l 1
 166 362 l 2
 166 356 168 353 174 353 c 2
 200 353 l 1
 200 332 l 1
 62 332 l 1
 62 353 l 1
 88 353 l 2
 94 353 97 356 97 362 c 2
 97 542 l 2
 97 547 93 551 88 549 c 2
479 605 m 1
 513 585 l 1
 84 -18 l 1
 51 5 l 1
 479 605 l 1
519 65 m 1
 483 65 l 1
 483 30 l 2
 483 24 486 21 492 21 c 2
 512 21 l 1
 512 0 l 1
 372 0 l 1
 372 21 l 1
 405 21 l 2
 411 21 414 24 414 30 c 2
 414 65 l 1
 287 65 l 1
 287 98 l 1
 450 274 l 1
 483 274 l 1
 483 102 l 1
 519 102 l 1
 519 65 l 1
324 102 m 1
 414 102 l 1
 414 198 l 1
 324 102 l 1
EndSplineSet
Ligature2: "'frac' Diagonal Fractions lookup 8 subtable" one slash four
EndChar
StartChar: onehalf
Encoding: 189 189 243
Width: 580
Flags: MW
HStem: 0 51<382 477 477 495 382 512 341 477> 257 18<428 447.5> 332 21<62 88 88 91 174 200 62 88> 585 20G
VStem: 97 69<362 542 542 544.5> 337 73<206.5 211 197.5 232> 475 75<186.5 228>
LayerCount: 2
Back
Fore
SplineSet
88 549 m 2
 58 541 l 1
 52 564 l 1
 97 573 130 594 155 611 c 1
 166 611 l 1
 166 362 l 2
 166 356 168 353 174 353 c 2
 200 353 l 1
 200 332 l 1
 62 332 l 1
 62 353 l 1
 88 353 l 2
 94 353 97 356 97 362 c 2
 97 542 l 2
 97 547 93 551 88 549 c 2
479 605 m 1
 513 585 l 1
 84 -18 l 1
 51 5 l 1
 479 605 l 1
533 77 m 1
 553 77 l 1
 546 49 543 10 543 -2 c 1
 539 -1 522 0 512 0 c 2
 341 0 l 1
 339 44 l 1
 397 90 l 1
 457 139 475 163 475 210 c 0
 475 246 458 257 437 257 c 0
 419 257 405 249 405 235 c 0
 405 226 410 216 410 206 c 0
 410 189 394 180 375 180 c 0
 349 180 337 197 337 216 c 0
 337 248 375 275 440 275 c 0
 501 275 550 252 550 204 c 0
 550 163 531 142 438 85 c 2
 382 51 l 1
 477 51 l 2
 513 51 529 57 533 77 c 1
EndSplineSet
Ligature2: "'frac' Diagonal Fractions lookup 8 subtable" one slash two
EndChar
StartChar: threequarters
Encoding: 190 190 245
Width: 559
Flags: MW
HStem: 0 21<382 415 415 418 502 522 382 415> 65 37<334 424 334 424 493 529> 326 19<129.5 155.5 129.5 176> 466 16<91 112> 585 20G 589 18<130.5 151.5>
VStem: 33 72<385 391> 40 72<544 549.5 535.5 570> 91 62<476 479 476 482 476 482> 176 75<528.5 560.5> 194 74<387 424.5> 424 69<30 65 27 65 102 198 198 198>
LayerCount: 2
Back
Fore
SplineSet
268 408 m 0xf4b0
 268 359 213 326 139 326 c 0
 80 326 33 348 33 382 c 0
 33 400 46 415 71 415 c 0
 91 415 105 405 105 388 c 0
 105 382 101 373 101 367 c 0xf630
 101 350 121 345 138 345 c 0
 173 345 194 370 194 404 c 0
 194 445 167 459 91 466 c 1
 91 482 l 1xf4b0
 133 482 176 505 176 550 c 0
 176 571 164 589 139 589 c 0
 122 589 108 581 108 567 c 0
 108 559 112 554 112 545 c 0
 112 526 94 519 77 519 c 0
 51 519 40 536 40 552 c 0
 40 588 92 607 146 607 c 0
 202 607 251 588 251 548 c 0xf550
 251 509 207 485 153 479 c 1
 153 476 l 1
 226 475 268 452 268 408 c 0xf4b0
489 605 m 1
 523 585 l 1xf8b0
 94 -18 l 1
 61 5 l 1
 489 605 l 1
529 65 m 1
 493 65 l 1
 493 30 l 2
 493 24 496 21 502 21 c 2
 522 21 l 1
 522 0 l 1
 382 0 l 1
 382 21 l 1
 415 21 l 2
 421 21 424 24 424 30 c 2
 424 65 l 1
 297 65 l 1
 297 98 l 1
 460 274 l 1
 493 274 l 1
 493 102 l 1
 529 102 l 1
 529 65 l 1
334 102 m 1
 424 102 l 1
 424 198 l 1
 334 102 l 1
EndSplineSet
Ligature2: "'frac' Diagonal Fractions lookup 8 subtable" three slash four
EndChar
StartChar: questiondown
Encoding: 191 191 261
Width: 400
Flags: MW
HStem: -235 27<190 244 190 249.5> 330 115<204 234.5 202.5 239>
VStem: 36 91<-156 -96 -156 -70.5> 155 130<374 405.5> 218 73<76.5 132.5 70 138.5> 306 74<-178.5 -159.5>
LayerCount: 2
Back
Fore
SplineSet
219 445 m 0xf0
 250 445 285 427 285 390 c 0
 285 358 258 330 220 330 c 0
 188 330 155 349 155 387 c 0
 155 424 186 445 219 445 c 0xf0
183 216 m 1xa8
 223 206 291 157 291 108 c 0xa8
 291 32 127 -54 127 -138 c 0
 127 -174 157 -208 223 -208 c 0
 265 -208 306 -194 306 -166 c 0
 306 -153 297 -145 297 -131 c 0
 297 -110 315 -103 333 -103 c 0
 368 -103 380 -129 380 -150 c 0xac
 380 -207 292 -235 207 -235 c 0
 105 -235 36 -195 36 -126 c 0
 36 -15 218 28 218 125 c 0
 218 152 204 179 171 197 c 1
 183 216 l 1xa8
EndSplineSet
Position2: "'cpsp' Capital Spacing lookup 0 per glyph data 1" dx=0 dy=35 dh=0 dv=0
EndChar
StartChar: Aacute
Encoding: 193 193 3
Width: 601
GlyphClass: 2
Flags: MW
HStem: 0 27<6 10 10 16.5 6 153 -20 10 583 588> 208 28<155 364 155 376 143 364> 587 20G<282 308 308 308>
VStem: -20 103 434.92 186.08
LayerCount: 2
Back
Fore
SplineSet
246 666 m 0
 237 666 233 669 233 674 c 0
 233 679 243 688 251 697 c 2
 346 801 l 2
 363 820 367 826 382 826 c 0
 406 826 439 808 439 800 c 0
 439 793 433 790 429 787 c 2
 266 675 l 2
 262 672 253 666 246 666 c 0
588 27 m 1
 621 29 l 1
 621 0 l 1
 356 0 l 1
 356 29 l 1
 405 27 l 1
 445 24 438 59 425 90 c 2
 376 208 l 1
 143 208 l 1
 97 96 l 2
 82 61 72 23 105 26 c 2
 153 29 l 1
 153 0 l 1
 -20 0 l 1
 -20 29 l 1
 6 27 l 1
 10 27 l 2
 23 27 34 33 43 46 c 0
 53 60 63 79 73 104 c 2
 282 607 l 1
 308 607 l 1
 519 102 l 2
 529 77 539 58 548 45 c 0
 557 33 568 27 583 27 c 2
 588 27 l 1
155 236 m 1
 364 236 l 1
 259 488 l 1
 155 236 l 1
EndSplineSet
Position2: "'cpsp' Capital Spacing lookup 0 per glyph data 2" dx=5 dy=0 dh=10 dv=0
EndChar
StartChar: Acircumflex
Encoding: 194 194 5
Width: 601
GlyphClass: 2
Flags: MW
HStem: 0 27<6 10 10 16.5 6 153 -20 10 583 588> 208 28<155 364 155 376 143 364> 587 20G<282 308 308 308>
VStem: -20 103 434.92 186.08
LayerCount: 2
Back
Fore
SplineSet
154 666 m 0
 146 666 145 671 145 674 c 0
 145 683 183 706 224 749 c 2
 247 773 l 1
 271 797 l 2
 287 812 298 822 301 822 c 0
 304 822 315 812 331 797 c 2
 355 773 l 1
 378 749 l 2
 419 706 457 683 457 674 c 0
 457 671 456 666 448 666 c 0
 441 666 428 673 420 678 c 2
 301 752 l 1
 182 678 l 2
 174 673 161 666 154 666 c 0
588 27 m 1
 621 29 l 1
 621 0 l 1
 356 0 l 1
 356 29 l 1
 405 27 l 1
 445 24 438 59 425 90 c 2
 376 208 l 1
 143 208 l 1
 97 96 l 2
 82 61 72 23 105 26 c 2
 153 29 l 1
 153 0 l 1
 -20 0 l 1
 -20 29 l 1
 6 27 l 1
 10 27 l 2
 23 27 34 33 43 46 c 0
 53 60 63 79 73 104 c 2
 282 607 l 1
 308 607 l 1
 519 102 l 2
 529 77 539 58 548 45 c 0
 557 33 568 27 583 27 c 2
 588 27 l 1
155 236 m 1
 364 236 l 1
 259 488 l 1
 155 236 l 1
EndSplineSet
Position2: "'cpsp' Capital Spacing lookup 0 per glyph data 2" dx=5 dy=0 dh=10 dv=0
EndChar
StartChar: Atilde
Encoding: 195 195 11
Width: 601
GlyphClass: 2
Flags: MW
HStem: 0 27<6 10 10 16.5 6 153 -20 10 583 588> 208 28<155 364 155 376 143 364> 587 20G<282 308 308 308> 675 49<371.5 398.5> 718 49<203.5 231>
VStem: -20 103 158 20<676 688 676 700.5> 424 20<754 766> 434.92 186.08
LayerCount: 2
Back
Fore
SplineSet
211 718 m 0xef
 192 718 178 700 178 676 c 1
 158 676 l 1
 158 725 185 767 222 767 c 0xef
 265 767 352 724 391 724 c 0
 410 724 424 742 424 766 c 1
 444 766 l 1
 444 717 417 675 380 675 c 0xf7
 336 675 251 718 211 718 c 0xef
588 27 m 1
 621 29 l 1
 621 0 l 1
 356 0 l 1
 356 29 l 1
 405 27 l 1
 445 24 438 59 425 90 c 2
 376 208 l 1xee80
 143 208 l 1
 97 96 l 2
 82 61 72 23 105 26 c 2
 153 29 l 1
 153 0 l 1
 -20 0 l 1
 -20 29 l 1
 6 27 l 1
 10 27 l 2
 23 27 34 33 43 46 c 0
 53 60 63 79 73 104 c 2
 282 607 l 1
 308 607 l 1
 519 102 l 2
 529 77 539 58 548 45 c 0
 557 33 568 27 583 27 c 2
 588 27 l 1
155 236 m 1
 364 236 l 1
 259 488 l 1
 155 236 l 1
EndSplineSet
Position2: "'cpsp' Capital Spacing lookup 0 per glyph data 2" dx=5 dy=0 dh=10 dv=0
EndChar
StartChar: Adieresis
Encoding: 196 196 6
Width: 601
GlyphClass: 2
Flags: MW
HStem: 0 27<6 10 10 16.5 6 153 -20 10 583 588> 208 28<155 364 155 376 143 364> 587 20G<282 308 308 308> 696 97<187.5 217.5 187.5 218.5 382.5 412.5>
VStem: -20 103 149 108<729.5 758> 344 108<729.5 758> 434.92 186.08
LayerCount: 2
Back
Fore
SplineSet
203 696 m 0xfe
 172 696 149 715 149 744 c 0
 149 772 172 793 203 793 c 0
 232 793 257 772 257 744 c 0
 257 715 234 696 203 696 c 0xfe
398 696 m 0
 367 696 344 715 344 744 c 0
 344 772 367 793 398 793 c 0
 427 793 452 772 452 744 c 0
 452 715 429 696 398 696 c 0
588 27 m 1
 621 29 l 1
 621 0 l 1
 356 0 l 1
 356 29 l 1
 405 27 l 1
 445 24 438 59 425 90 c 2
 376 208 l 1xfd
 143 208 l 1
 97 96 l 2
 82 61 72 23 105 26 c 2
 153 29 l 1
 153 0 l 1
 -20 0 l 1
 -20 29 l 1
 6 27 l 1
 10 27 l 2
 23 27 34 33 43 46 c 0
 53 60 63 79 73 104 c 2
 282 607 l 1
 308 607 l 1
 519 102 l 2
 529 77 539 58 548 45 c 0
 557 33 568 27 583 27 c 2
 588 27 l 1
155 236 m 1
 364 236 l 1
 259 488 l 1
 155 236 l 1
EndSplineSet
Position2: "'cpsp' Capital Spacing lookup 0 per glyph data 2" dx=5 dy=0 dh=10 dv=0
EndChar
StartChar: Aring
Encoding: 197 197 10
Width: 601
GlyphClass: 2
Flags: MW
HStem: 0 27<6 10 10 16.5 6 153 -20 10 583 588> 208 28<155 364 155 376 143 364> 587 20G<282 308 308 308> 666 36<287.5 312.5 287.5 323> 793 36<287.5 312.5>
VStem: -20 103 217 42<734 761.5> 342 42<734 761.5> 434.92 186.08
LayerCount: 2
Back
Fore
SplineSet
300 666 m 0
 254 666 217 703 217 748 c 0
 217 793 254 829 300 829 c 0
 346 829 384 793 384 748 c 0
 384 703 346 666 300 666 c 0
300 793 m 0
 275 793 259 775 259 748 c 0
 259 720 275 702 300 702 c 0
 325 702 342 720 342 748 c 0
 342 775 325 793 300 793 c 0
588 27 m 1
 621 29 l 1
 621 0 l 1
 356 0 l 1
 356 29 l 1
 405 27 l 1
 445 24 438 59 425 90 c 2
 376 208 l 1
 143 208 l 1
 97 96 l 2
 82 61 72 23 105 26 c 2
 153 29 l 1
 153 0 l 1
 -20 0 l 1
 -20 29 l 1
 6 27 l 1
 10 27 l 2
 23 27 34 33 43 46 c 0
 53 60 63 79 73 104 c 2
 282 607 l 1
 308 607 l 1
 519 102 l 2
 529 77 539 58 548 45 c 0
 557 33 568 27 583 27 c 2
 588 27 l 1
155 236 m 1
 364 236 l 1
 259 488 l 1
 155 236 l 1
EndSplineSet
Position2: "'cpsp' Capital Spacing lookup 0 per glyph data 2" dx=5 dy=0 dh=10 dv=0
EndChar
StartChar: AE
Encoding: 198 198 12
Width: 847
GlyphClass: 2
Flags: MW
HStem: 0 27<11 11 569 635 635 682> 208 28<190 414 190 420 174 414> 297 27<500 579 500 500> 406 20G<655 681 681 681> 569 28<451 615 451 451>
VStem: -20 104.5 655 26<195 225 395.5 426> 757 26<443 487> 776 27<123 171>
LayerCount: 2
Back
Fore
SplineSet
783 599 m 1xff
 783 443 l 1
 757 443 l 1xfb
 757 531 711 569 615 569 c 2
 451 569 l 1
 496 324 l 1
 579 324 l 2
 622 324 655 365 655 426 c 1
 681 426 l 1
 681 195 l 1
 655 195 l 1
 655 255 622 297 579 297 c 2
 500 297 l 1
 548 46 l 2
 551 35 558 27 569 27 c 2
 635 27 l 2
 729 27 776 75 776 171 c 1
 803 171 l 1
 803 -3 l 1
 767 0 730 0 715 0 c 2xfa80
 370 0 l 1
 370 30 l 1
 427 27 l 2
 444 26 452 40 449 52 c 2
 420 208 l 1
 174 208 l 1
 98 80 l 2
 87 61 71 24 104 27 c 1
 155 30 l 1
 155 0 l 1
 -20 0 l 1
 -20 30 l 1
 11 27 l 1
 30 24 44 43 71 86 c 2
 350 543 l 2
 357 555 346 567 335 567 c 2
 284 565 l 1
 284 597 l 1
 749 597 l 2
 764 597 776 598 783 599 c 1xff
362 515 m 1
 190 236 l 1
 414 236 l 1
 362 515 l 1
EndSplineSet
Position2: "'cpsp' Capital Spacing lookup 0 per glyph data 2" dx=5 dy=0 dh=10 dv=0
EndChar
StartChar: Ccedilla
Encoding: 199 199 17
Width: 607
GlyphClass: 2
Flags: MW
HStem: -214 27<253.5 318.5> -10 27<323 340 323 323> -7 24<291 291> 35 132<534 553 553 559> 433 131<529 553 529 529> 582 25<280 385>
VStem: 45 102<213 381 213 393.5> 249 47<-67.5 -62.5> 317 65<-148.5 -124.5> 529 24<433 433>
AnchorPoint: "Anchor-0" 304 0 basechar 0
LayerCount: 2
Back
Fore
SplineSet
562 167 m 1xd6c0
 557 128 556 95 556 82 c 0xd6c0
 556 63 557 47 559 35 c 1
 553 35 l 2
 501 35 427 -10 340 -10 c 2
 323 -10 l 1
 302 -43 l 2
 298 -50 296 -57 296 -62 c 0xc7c0
 296 -85 382 -70 382 -122 c 0
 382 -178 349 -214 288 -214 c 0
 271 -214 242 -213 219 -198 c 1
 226 -174 l 1
 234 -183 246 -187 261 -187 c 0
 292 -187 317 -164 317 -133 c 0
 317 -116 300 -103 283 -94 c 1xc6c0
 260 -80 l 2
 253 -75 249 -70 249 -65 c 0
 249 -60 251 -56 255 -52 c 2
 291 -7 l 1
 138 12 45 124 45 295 c 0
 45 492 157 607 345 607 c 0xa7c0
 448 607 478 564 553 564 c 1
 550 541 549 513 549 489 c 0
 549 459 551 435 553 433 c 1xcec0
 529 433 l 1
 511 515 430 582 340 582 c 0
 220 582 147 467 147 295 c 0
 147 131 225 17 345 17 c 0xc6c0
 439 17 515 82 534 167 c 1
 562 167 l 1xd6c0
EndSplineSet
Position2: "'cpsp' Capital Spacing lookup 0 per glyph data 2" dx=5 dy=0 dh=10 dv=0
EndChar
StartChar: Egrave
Encoding: 200 200 28
Width: 563
GlyphClass: 2
Flags: MW
HStem: 0 28<213 353 353 398.5> 297 28<201 295 201 295> 406 20G<371 398 398 398> 443 154<462 472 472 476 50 489 462 462> 569 28<88 88 209 213 213 320>
VStem: 108 93<49 297 325 548 548 554> 371 27<195 225 394 426> 462 27<443 487.5> 492 27<130.5 179>
AnchorPoint: "Anchor-0" 282 0 basechar 0
LayerCount: 2
Back
Fore
SplineSet
145 800 m 0xee80
 145 808 178 826 202 826 c 0
 217 826 221 820 238 801 c 2
 333 697 l 2
 341 688 351 679 351 674 c 0
 351 669 347 666 338 666 c 0
 331 666 322 672 318 675 c 2
 155 787 l 2
 151 790 145 793 145 800 c 0xee80
50 0 m 1
 50 30 l 1
 90 27 l 2
 102 27 108 34 108 49 c 2
 108 548 l 2
 108 560 100 570 88 569 c 2
 50 567 l 1
 50 597 l 1
 472 597 l 2
 480 597 486 597 489 598 c 1xef
 489 443 l 1
 462 443 l 1xf7
 462 532 419 569 320 569 c 2
 213 569 l 2
 205 569 201 564 201 555 c 2
 201 325 l 1
 295 325 l 2
 339 325 371 362 371 426 c 1
 398 426 l 1
 398 195 l 1
 371 195 l 1
 371 255 336 297 295 297 c 2
 201 297 l 1
 201 41 l 2
 201 32 205 28 213 28 c 2
 353 28 l 2
 444 28 492 82 492 179 c 1
 519 179 l 1
 519 -3 l 1
 504 -1 474 0 431 0 c 2
 50 0 l 1
EndSplineSet
Position2: "'cpsp' Capital Spacing lookup 0 per glyph data 2" dx=5 dy=0 dh=10 dv=0
EndChar
StartChar: Eacute
Encoding: 201 201 23
Width: 563
GlyphClass: 2
Flags: MW
HStem: 0 28<213 353 353 398.5> 297 28<201 295 201 295> 406 20G<371 398 398 398> 443 154<462 472 472 476 50 489 462 462> 569 28<88 88 209 213 213 320>
VStem: 108 93<49 297 325 548 548 554> 371 27<195 225 394 426> 462 27<443 487.5> 492 27<130.5 179>
AnchorPoint: "Anchor-0" 282 0 basechar 0
LayerCount: 2
Back
Fore
SplineSet
420 800 m 0xee80
 420 793 414 790 410 787 c 2
 247 675 l 2
 243 672 234 666 227 666 c 0
 218 666 214 669 214 674 c 0
 214 679 224 688 232 697 c 2
 327 801 l 2
 344 820 348 826 363 826 c 0
 387 826 420 808 420 800 c 0xee80
50 0 m 1
 50 30 l 1
 90 27 l 2
 102 27 108 34 108 49 c 2
 108 548 l 2
 108 560 100 570 88 569 c 2
 50 567 l 1
 50 597 l 1
 472 597 l 2
 480 597 486 597 489 598 c 1xef
 489 443 l 1
 462 443 l 1xf7
 462 532 419 569 320 569 c 2
 213 569 l 2
 205 569 201 564 201 555 c 2
 201 325 l 1
 295 325 l 2
 339 325 371 362 371 426 c 1
 398 426 l 1
 398 195 l 1
 371 195 l 1
 371 255 336 297 295 297 c 2
 201 297 l 1
 201 41 l 2
 201 32 205 28 213 28 c 2
 353 28 l 2
 444 28 492 82 492 179 c 1
 519 179 l 1
 519 -3 l 1
 504 -1 474 0 431 0 c 2
 50 0 l 1
EndSplineSet
Position2: "'cpsp' Capital Spacing lookup 0 per glyph data 2" dx=5 dy=0 dh=10 dv=0
EndChar
StartChar: Ecircumflex
Encoding: 202 202 25
Width: 563
GlyphClass: 2
Flags: MW
HStem: 0 28<213 353 353 398.5> 297 28<201 295 201 295> 406 20G<371 398 398 398> 443 154<462 472 472 476 50 489 462 462> 569 28<88 88 209 213 213 320>
VStem: 108 93<49 297 325 548 548 554> 371 27<195 225 394 426> 462 27<443 487.5> 492 27<130.5 179>
AnchorPoint: "Anchor-0" 282 0 basechar 0
LayerCount: 2
Back
Fore
SplineSet
438 674 m 0xee80
 438 671 437 666 429 666 c 0
 422 666 409 673 401 678 c 2
 282 752 l 1
 163 678 l 2
 155 673 142 666 135 666 c 0
 127 666 126 671 126 674 c 0
 126 683 164 706 205 749 c 2
 228 773 l 1
 252 797 l 2
 268 812 279 822 282 822 c 0
 285 822 296 812 312 797 c 2
 336 773 l 1
 359 749 l 2
 400 706 438 683 438 674 c 0xee80
50 0 m 1
 50 30 l 1
 90 27 l 2
 102 27 108 34 108 49 c 2
 108 548 l 2
 108 560 100 570 88 569 c 2
 50 567 l 1
 50 597 l 1
 472 597 l 2
 480 597 486 597 489 598 c 1xef
 489 443 l 1
 462 443 l 1xf7
 462 532 419 569 320 569 c 2
 213 569 l 2
 205 569 201 564 201 555 c 2
 201 325 l 1
 295 325 l 2
 339 325 371 362 371 426 c 1
 398 426 l 1
 398 195 l 1
 371 195 l 1
 371 255 336 297 295 297 c 2
 201 297 l 1
 201 41 l 2
 201 32 205 28 213 28 c 2
 353 28 l 2
 444 28 492 82 492 179 c 1
 519 179 l 1
 519 -3 l 1
 504 -1 474 0 431 0 c 2
 50 0 l 1
EndSplineSet
Position2: "'cpsp' Capital Spacing lookup 0 per glyph data 2" dx=5 dy=0 dh=10 dv=0
EndChar
StartChar: Edieresis
Encoding: 203 203 26
Width: 563
GlyphClass: 2
Flags: MW
HStem: 0 28<213 353 353 398.5> 297 28<201 295 201 295> 406 20G<371 398 398 398> 443 154<462 472 472 476 50 489 462 462> 569 28<88 88 209 213 213 320> 696 97<168.5 198.5 168.5 199.5 363.5 393.5>
VStem: 108 93<49 297 325 548 548 554> 130 108<729.5 758> 325 108<729.5 758> 371 27<195 225 394 426> 462 27<443 487.5> 492 27<130.5 179>
AnchorPoint: "Anchor-0" 282 0 basechar 0
LayerCount: 2
Back
Fore
SplineSet
130 744 m 0xed90
 130 772 153 793 184 793 c 0
 213 793 238 772 238 744 c 0
 238 715 215 696 184 696 c 0
 153 696 130 715 130 744 c 0xed90
325 744 m 0
 325 772 348 793 379 793 c 0
 408 793 433 772 433 744 c 0
 433 715 410 696 379 696 c 0
 348 696 325 715 325 744 c 0
50 0 m 1
 50 30 l 1
 90 27 l 2
 102 27 108 34 108 49 c 2
 108 548 l 2
 108 560 100 570 88 569 c 2
 50 567 l 1
 50 597 l 1
 472 597 l 2
 480 597 486 597 489 598 c 1xee60
 489 443 l 1
 462 443 l 1xf660
 462 532 419 569 320 569 c 2
 213 569 l 2
 205 569 201 564 201 555 c 2
 201 325 l 1
 295 325 l 2
 339 325 371 362 371 426 c 1
 398 426 l 1
 398 195 l 1
 371 195 l 1
 371 255 336 297 295 297 c 2
 201 297 l 1
 201 41 l 2
 201 32 205 28 213 28 c 2xee50
 353 28 l 2
 444 28 492 82 492 179 c 1
 519 179 l 1
 519 -3 l 1
 504 -1 474 0 431 0 c 2
 50 0 l 1
EndSplineSet
Position2: "'cpsp' Capital Spacing lookup 0 per glyph data 2" dx=5 dy=0 dh=10 dv=0
EndChar
StartChar: Igrave
Encoding: 204 204 42
Width: 310
GlyphClass: 2
Flags: MW
HStem: 0 27<89 95.5 214.5 221> 568 29
VStem: 108 93<49 548>
LayerCount: 2
Back
Fore
SplineSet
18 800 m 0
 18 808 51 826 75 826 c 0
 90 826 94 820 111 801 c 2
 206 697 l 2
 214 688 224 679 224 674 c 0
 224 669 220 666 211 666 c 0
 204 666 195 672 191 675 c 2
 28 787 l 2
 24 790 18 793 18 800 c 0
50 0 m 1
 50 29 l 1
 89 27 l 2
 102 27 108 34 108 49 c 2
 108 548 l 2
 108 559 102 570 89 569 c 2
 50 567 l 1
 50 597 l 1
 260 597 l 1
 260 567 l 1
 221 569 l 2
 209 570 201 560 201 548 c 2
 201 49 l 2
 201 34 208 27 221 27 c 2
 260 29 l 1
 260 0 l 1
 50 0 l 1
EndSplineSet
Position2: "'cpsp' Capital Spacing lookup 0 per glyph data 2" dx=5 dy=0 dh=10 dv=0
EndChar
StartChar: Iacute
Encoding: 205 205 38
Width: 310
GlyphClass: 2
Flags: MW
HStem: 0 27<89 95.5 214.5 221> 568 29
VStem: 108 93<49 548>
LayerCount: 2
Back
Fore
SplineSet
293 800 m 0
 293 793 287 790 283 787 c 2
 120 675 l 2
 116 672 107 666 100 666 c 0
 91 666 87 669 87 674 c 0
 87 679 97 688 105 697 c 2
 200 801 l 2
 217 820 221 826 236 826 c 0
 260 826 293 808 293 800 c 0
50 0 m 1
 50 29 l 1
 89 27 l 2
 102 27 108 34 108 49 c 2
 108 548 l 2
 108 559 102 570 89 569 c 2
 50 567 l 1
 50 597 l 1
 260 597 l 1
 260 567 l 1
 221 569 l 2
 209 570 201 560 201 548 c 2
 201 49 l 2
 201 34 208 27 221 27 c 2
 260 29 l 1
 260 0 l 1
 50 0 l 1
EndSplineSet
Position2: "'cpsp' Capital Spacing lookup 0 per glyph data 2" dx=5 dy=0 dh=10 dv=0
EndChar
StartChar: Icircumflex
Encoding: 206 206 39
Width: 310
GlyphClass: 2
Flags: MW
HStem: 0 27<89 95.5 214.5 221> 568 29
VStem: 108 93<49 548>
LayerCount: 2
Back
Fore
SplineSet
311 674 m 0
 311 671 310 666 302 666 c 0
 295 666 282 673 274 678 c 2
 155 752 l 1
 36 678 l 2
 28 673 15 666 8 666 c 0
 0 666 -1 671 -1 674 c 0
 -1 683 37 706 78 749 c 2
 101 773 l 1
 125 797 l 2
 141 812 152 822 155 822 c 0
 158 822 169 812 185 797 c 2
 209 773 l 1
 232 749 l 2
 273 706 311 683 311 674 c 0
50 0 m 1
 50 29 l 1
 89 27 l 2
 102 27 108 34 108 49 c 2
 108 548 l 2
 108 559 102 570 89 569 c 2
 50 567 l 1
 50 597 l 1
 260 597 l 1
 260 567 l 1
 221 569 l 2
 209 570 201 560 201 548 c 2
 201 49 l 2
 201 34 208 27 221 27 c 2
 260 29 l 1
 260 0 l 1
 50 0 l 1
EndSplineSet
Position2: "'cpsp' Capital Spacing lookup 0 per glyph data 2" dx=5 dy=0 dh=10 dv=0
EndChar
StartChar: Idieresis
Encoding: 207 207 40
Width: 310
GlyphClass: 2
Flags: MW
HStem: 0 27<89 95.5 214.5 221> 568 29 696 97<41.5 71.5 41.5 72.5 236.5 266.5>
VStem: 3 108<729.5 758> 108 93<49 548> 198 108<729.5 758>
LayerCount: 2
Back
Fore
SplineSet
3 744 m 0xf4
 3 772 26 793 57 793 c 0
 86 793 111 772 111 744 c 0
 111 715 88 696 57 696 c 0
 26 696 3 715 3 744 c 0xf4
198 744 m 0
 198 772 221 793 252 793 c 0
 281 793 306 772 306 744 c 0
 306 715 283 696 252 696 c 0
 221 696 198 715 198 744 c 0
50 0 m 1
 50 29 l 1
 89 27 l 2
 102 27 108 34 108 49 c 2
 108 548 l 2
 108 559 102 570 89 569 c 2
 50 567 l 1
 50 597 l 1
 260 597 l 1
 260 567 l 1
 221 569 l 2
 209 570 201 560 201 548 c 2
 201 49 l 2
 201 34 208 27 221 27 c 2
 260 29 l 1
 260 0 l 1xc8
 50 0 l 1
EndSplineSet
Position2: "'cpsp' Capital Spacing lookup 0 per glyph data 2" dx=5 dy=0 dh=10 dv=0
EndChar
StartChar: Ntilde
Encoding: 209 209 59
Width: 662
GlyphClass: 2
Flags: MW
HStem: -6 21G<529 559 529 529> 0 27<84 90.5 150.5 157> 569 28<84 84 505 505 505 508 570.5 576 576 578> 675 49<401.5 428.5> 718 49<233.5 261>
VStem: 104 34<49 525> 188 20<676 688 676 700.5> 454 20<754 766> 525 34<155 548 -6 549 -6 555.5>
AnchorPoint: "Anchor-0" 331 0 basechar 0
LayerCount: 2
Back
Fore
SplineSet
241 718 m 0x6f80
 222 718 208 700 208 676 c 1
 188 676 l 1
 188 725 215 767 252 767 c 0x6f80
 295 767 382 724 421 724 c 0
 440 724 454 742 454 766 c 1
 474 766 l 1
 474 717 447 675 410 675 c 0x7780
 366 675 281 718 241 718 c 0x6f80
456 597 m 1
 617 597 l 1
 617 567 l 1
 578 569 l 1
 576 569 l 2
 565 569 559 562 559 548 c 2
 559 -6 l 1
 529 -6 l 1xaf80
 138 525 l 1
 138 49 l 2
 138 34 144 27 157 27 c 2
 206 29 l 1
 206 0 l 1
 45 0 l 1
 45 29 l 1
 84 27 l 2
 97 27 104 34 104 49 c 2
 104 548 l 2
 104 559 97 570 84 569 c 2
 45 567 l 1
 45 597 l 1
 200 597 l 1
 525 155 l 1
 525 549 l 2
 525 562 519 569 508 569 c 2
 505 569 l 1
 456 567 l 1
 456 597 l 1
EndSplineSet
Position2: "'cpsp' Capital Spacing lookup 0 per glyph data 2" dx=5 dy=0 dh=10 dv=0
EndChar
StartChar: Ograve
Encoding: 210 210 64
Width: 670
GlyphClass: 2
Flags: MW
HStem: -10 27<271 399 271 426.5> 580 27<271 399>
VStem: 45 102<201 399> 523 102<201 396 201 400>
LayerCount: 2
Back
Fore
SplineSet
198 800 m 0
 198 808 231 826 255 826 c 0
 270 826 274 820 291 801 c 2
 386 697 l 2
 394 688 404 679 404 674 c 0
 404 669 400 666 391 666 c 0
 384 666 375 672 371 675 c 2
 208 787 l 2
 204 790 198 793 198 800 c 0
45 299 m 0
 45 499 154 607 335 607 c 0
 522 607 625 493 625 299 c 0
 625 103 518 -10 335 -10 c 0
 152 -10 45 103 45 299 c 0
147 299 m 0
 147 96 207 17 335 17 c 0
 463 17 523 96 523 299 c 0
 523 501 463 580 335 580 c 0
 207 580 147 501 147 299 c 0
EndSplineSet
Position2: "'cpsp' Capital Spacing lookup 0 per glyph data 2" dx=5 dy=0 dh=10 dv=0
EndChar
StartChar: Oacute
Encoding: 211 211 61
Width: 670
GlyphClass: 2
Flags: MW
HStem: -10 27<271 399 271 426.5> 580 27<271 399>
VStem: 45 102<201 399> 523 102<201 396 201 400>
LayerCount: 2
Back
Fore
SplineSet
473 800 m 0
 473 793 467 790 463 787 c 2
 300 675 l 2
 296 672 287 666 280 666 c 0
 271 666 267 669 267 674 c 0
 267 679 277 688 285 697 c 2
 380 801 l 2
 397 820 401 826 416 826 c 0
 440 826 473 808 473 800 c 0
45 299 m 0
 45 499 154 607 335 607 c 0
 522 607 625 493 625 299 c 0
 625 103 518 -10 335 -10 c 0
 152 -10 45 103 45 299 c 0
147 299 m 0
 147 96 207 17 335 17 c 0
 463 17 523 96 523 299 c 0
 523 501 463 580 335 580 c 0
 207 580 147 501 147 299 c 0
EndSplineSet
Position2: "'cpsp' Capital Spacing lookup 0 per glyph data 2" dx=5 dy=0 dh=10 dv=0
EndChar
StartChar: Ocircumflex
Encoding: 212 212 62
Width: 670
GlyphClass: 2
Flags: MW
HStem: -10 27<271 399 271 426.5> 580 27<271 399>
VStem: 45 102<201 399> 523 102<201 396 201 400>
LayerCount: 2
Back
Fore
SplineSet
491 674 m 0
 491 671 490 666 482 666 c 0
 475 666 462 673 454 678 c 2
 335 752 l 1
 216 678 l 2
 208 673 195 666 188 666 c 0
 180 666 179 671 179 674 c 0
 179 683 217 706 258 749 c 2
 281 773 l 1
 305 797 l 2
 321 812 332 822 335 822 c 0
 338 822 349 812 365 797 c 2
 389 773 l 1
 412 749 l 2
 453 706 491 683 491 674 c 0
45 299 m 0
 45 499 154 607 335 607 c 0
 522 607 625 493 625 299 c 0
 625 103 518 -10 335 -10 c 0
 152 -10 45 103 45 299 c 0
147 299 m 0
 147 96 207 17 335 17 c 0
 463 17 523 96 523 299 c 0
 523 501 463 580 335 580 c 0
 207 580 147 501 147 299 c 0
EndSplineSet
Position2: "'cpsp' Capital Spacing lookup 0 per glyph data 2" dx=5 dy=0 dh=10 dv=0
EndChar
StartChar: Otilde
Encoding: 213 213 68
Width: 670
GlyphClass: 2
Flags: MW
HStem: -10 27<271 399 271 426.5> 580 27<271 399> 675 49<405.5 432.5> 718 49<237.5 265>
VStem: 45 102<201 399> 192 20<676 688 676 700.5> 458 20<754 766> 523 102<201 396 201 400>
LayerCount: 2
Back
Fore
SplineSet
192 676 m 1xdf
 192 725 219 767 256 767 c 0xdf
 299 767 386 724 425 724 c 0
 444 724 458 742 458 766 c 1
 478 766 l 1
 478 717 451 675 414 675 c 0xef
 370 675 285 718 245 718 c 0
 226 718 212 700 212 676 c 1
 192 676 l 1xdf
45 299 m 0
 45 499 154 607 335 607 c 0
 522 607 625 493 625 299 c 0
 625 103 518 -10 335 -10 c 0
 152 -10 45 103 45 299 c 0
147 299 m 0
 147 96 207 17 335 17 c 0
 463 17 523 96 523 299 c 0
 523 501 463 580 335 580 c 0
 207 580 147 501 147 299 c 0
EndSplineSet
Position2: "'cpsp' Capital Spacing lookup 0 per glyph data 2" dx=5 dy=0 dh=10 dv=0
EndChar
StartChar: Odieresis
Encoding: 214 214 63
Width: 670
GlyphClass: 2
Flags: MW
HStem: -10 27<271 399 271 426.5> 580 27<271 399> 696 97<221.5 251.5 221.5 252.5 416.5 446.5>
VStem: 45 102<201 399> 183 108<729.5 758> 378 108<729.5 758> 523 102<201 396 201 400>
LayerCount: 2
Back
Fore
SplineSet
183 744 m 0
 183 772 206 793 237 793 c 0
 266 793 291 772 291 744 c 0
 291 715 268 696 237 696 c 0
 206 696 183 715 183 744 c 0
378 744 m 0
 378 772 401 793 432 793 c 0
 461 793 486 772 486 744 c 0
 486 715 463 696 432 696 c 0
 401 696 378 715 378 744 c 0
45 299 m 0
 45 499 154 607 335 607 c 0
 522 607 625 493 625 299 c 0
 625 103 518 -10 335 -10 c 0
 152 -10 45 103 45 299 c 0
147 299 m 0
 147 96 207 17 335 17 c 0
 463 17 523 96 523 299 c 0
 523 501 463 580 335 580 c 0
 207 580 147 501 147 299 c 0
EndSplineSet
Position2: "'cpsp' Capital Spacing lookup 0 per glyph data 2" dx=5 dy=0 dh=10 dv=0
EndChar
StartChar: multiply
Encoding: 215 215 312
Width: 460
Flags: MW
HStem: 102 331<366 368>
VStem: 64 332<130 131>
LayerCount: 2
Back
Fore
SplineSet
64 131 m 1
 202 268 l 1
 66 403 l 1
 95 432 l 1
 229 296 l 1
 366 433 l 1
 396 404 l 1
 259 268 l 1
 396 130 l 1
 368 102 l 1
 230 239 l 1
 94 103 l 1
 64 131 l 1
EndSplineSet
EndChar
StartChar: Oslash
Encoding: 216 216 67
Width: 664
GlyphClass: 2
Flags: MW
HStem: -10 27<309.5 399 309.5 426.5> 580 27<271 359.5>
VStem: 45 102<252 399> 523 102<201 347.5>
LayerCount: 2
Back
Fore
SplineSet
510 560 m 1
 585 509 625 420 625 299 c 0
 625 103 518 -10 335 -10 c 0
 280 -10 232 0 192 20 c 1
 126 -92 l 1
 89 -75 l 1
 157 40 l 1
 85 91 45 180 45 299 c 0
 45 499 154 607 335 607 c 0
 388 607 434 598 474 580 c 1
 535 685 l 1
 572 665 l 1
 510 560 l 1
147 299 m 0
 147 205 160 137 187 92 c 1
 452 543 l 1
 422 569 384 580 335 580 c 0
 207 580 147 501 147 299 c 0
335 17 m 0
 463 17 523 96 523 299 c 0
 523 396 509 465 481 510 c 1
 214 57 l 1
 244 30 284 17 335 17 c 0
EndSplineSet
Position2: "'cpsp' Capital Spacing lookup 0 per glyph data 2" dx=5 dy=0 dh=10 dv=0
EndChar
StartChar: Ugrave
Encoding: 217 217 90
Width: 651
GlyphClass: 2
Flags: MW
HStem: -10 31<306 408.5> 568 29
VStem: 92 93<199 548 548 549> 532 35<198 548 548 549>
LayerCount: 2
Back
Fore
SplineSet
199 800 m 0
 199 808 232 826 256 826 c 0
 271 826 275 820 292 801 c 2
 387 697 l 2
 395 688 405 679 405 674 c 0
 405 669 401 666 392 666 c 0
 385 666 376 672 372 675 c 2
 209 787 l 2
 205 790 199 793 199 800 c 0
35 567 m 1
 35 597 l 1
 254 597 l 1
 254 567 l 1
 205 569 l 2
 193 570 185 561 185 549 c 2
 185 199 l 2
 185 87 250 21 362 21 c 0
 460 21 532 97 532 198 c 2
 532 548 l 2
 532 561 525 570 514 569 c 2
 465 567 l 1
 465 597 l 1
 626 597 l 1
 626 567 l 1
 587 569 l 2
 575 570 567 561 567 549 c 2
 567 189 l 2
 567 74 473 -10 344 -10 c 0
 183 -10 92 62 92 199 c 2
 92 548 l 2
 92 559 84 570 73 569 c 2
 35 567 l 1
EndSplineSet
Position2: "'cpsp' Capital Spacing lookup 0 per glyph data 2" dx=5 dy=0 dh=10 dv=0
EndChar
StartChar: Ucircumflex
Encoding: 219 219 88
Width: 651
GlyphClass: 2
Flags: MW
HStem: -10 31<306 408.5> 568 29
VStem: 92 93<199 548 548 549> 532 35<198 548 548 549>
LayerCount: 2
Back
Fore
SplineSet
492 674 m 0
 492 671 491 666 483 666 c 0
 476 666 463 673 455 678 c 2
 336 752 l 1
 217 678 l 2
 209 673 196 666 189 666 c 0
 181 666 180 671 180 674 c 0
 180 683 218 706 259 749 c 2
 282 773 l 1
 306 797 l 2
 322 812 333 822 336 822 c 0
 339 822 350 812 366 797 c 2
 390 773 l 1
 413 749 l 2
 454 706 492 683 492 674 c 0
35 567 m 1
 35 597 l 1
 254 597 l 1
 254 567 l 1
 205 569 l 2
 193 570 185 561 185 549 c 2
 185 199 l 2
 185 87 250 21 362 21 c 0
 460 21 532 97 532 198 c 2
 532 548 l 2
 532 561 525 570 514 569 c 2
 465 567 l 1
 465 597 l 1
 626 597 l 1
 626 567 l 1
 587 569 l 2
 575 570 567 561 567 549 c 2
 567 189 l 2
 567 74 473 -10 344 -10 c 0
 183 -10 92 62 92 199 c 2
 92 548 l 2
 92 559 84 570 73 569 c 2
 35 567 l 1
EndSplineSet
Position2: "'cpsp' Capital Spacing lookup 0 per glyph data 2" dx=5 dy=0 dh=10 dv=0
EndChar
StartChar: Udieresis
Encoding: 220 220 89
Width: 651
GlyphClass: 2
Flags: MW
HStem: -10 31<306 408.5> 568 29 696 97<222.5 252.5 222.5 253.5 417.5 447.5>
VStem: 92 93<199 548 548 549> 184 108<729.5 758> 379 108<729.5 758> 532 35<198 548 548 549>
LayerCount: 2
Back
Fore
SplineSet
184 744 m 0xee
 184 772 207 793 238 793 c 0
 267 793 292 772 292 744 c 0
 292 715 269 696 238 696 c 0
 207 696 184 715 184 744 c 0xee
379 744 m 0
 379 772 402 793 433 793 c 0
 462 793 487 772 487 744 c 0
 487 715 464 696 433 696 c 0
 402 696 379 715 379 744 c 0
35 567 m 1xd2
 35 597 l 1
 254 597 l 1
 254 567 l 1
 205 569 l 2
 193 570 185 561 185 549 c 2
 185 199 l 2
 185 87 250 21 362 21 c 0
 460 21 532 97 532 198 c 2
 532 548 l 2
 532 561 525 570 514 569 c 2
 465 567 l 1
 465 597 l 1
 626 597 l 1
 626 567 l 1
 587 569 l 2
 575 570 567 561 567 549 c 2
 567 189 l 2
 567 74 473 -10 344 -10 c 0
 183 -10 92 62 92 199 c 2
 92 548 l 2
 92 559 84 570 73 569 c 2
 35 567 l 1xd2
EndSplineSet
Position2: "'cpsp' Capital Spacing lookup 0 per glyph data 2" dx=5 dy=0 dh=10 dv=0
EndChar
StartChar: Yacute
Encoding: 221 221 103
Width: 507
GlyphClass: 2
Flags: MW
HStem: 0 27<201 207.5 325.5 333> 569 28<23 27.5 163 163 417 423 481.5 487>
VStem: -5 156.25 220 93<49 263 263 263> 365 152<567 597 567 597>
LayerCount: 2
Back
Fore
SplineSet
209 666 m 0
 200 666 196 669 196 674 c 0
 196 679 206 688 214 697 c 2
 309 801 l 2
 326 820 330 826 345 826 c 0
 369 826 402 808 402 800 c 0
 402 793 396 790 392 787 c 2
 229 675 l 2
 225 672 216 666 209 666 c 0
365 597 m 1
 517 597 l 1
 517 567 l 1
 487 569 l 2
 476 569 467 562 459 548 c 2
 313 287 l 1
 313 48 l 2
 313 36 318 27 333 27 c 2
 381 29 l 1
 381 0 l 1
 152 0 l 1
 152 29 l 1
 201 27 l 2
 214 27 220 34 220 49 c 2
 220 263 l 1
 47 550 l 2
 40 563 32 569 23 569 c 2
 -5 567 l 1
 -5 597 l 1
 216 597 l 1
 216 567 l 1
 163 569 l 2
 148 570 149 556 156 545 c 2
 293 317 l 1
 424 549 l 2
 428 557 429 569 417 569 c 2
 365 567 l 1
 365 597 l 1
EndSplineSet
Position2: "'cpsp' Capital Spacing lookup 0 per glyph data 2" dx=5 dy=0 dh=10 dv=0
EndChar
StartChar: Thorn
Encoding: 222 222 71
Width: 524
GlyphClass: 2
Flags: MW
HStem: 0 28 162 26<214 283 283 304 201 283> 471 25<201 267 201 283> 569 28<89 95.5 215 221>
VStem: 108 93<49 162 197.5 201 201 471 496 548> 393 96<293 374.5>
LayerCount: 2
Back
Fore
SplineSet
50 0 m 1
 50 29 l 1
 89 27 l 2
 102 26 108 36 108 49 c 2
 108 548 l 2
 108 559 102 569 89 569 c 2
 50 567 l 1
 50 597 l 1
 270 597 l 1
 270 567 l 1
 221 569 l 2
 209 569 201 559 201 548 c 2
 201 496 l 1
 283 496 l 2
 424 496 489 446 489 334 c 0
 489 230 421 162 304 162 c 2
 201 162 l 1
 201 49 l 2
 201 36 206 26 221 27 c 2
 270 29 l 1
 270 0 l 1
 50 0 l 1
201 201 m 2
 201 194 207 188 214 188 c 2
 283 188 l 2
 342 188 393 252 393 334 c 0
 393 415 346 471 267 471 c 2
 201 471 l 1
 201 201 l 2
EndSplineSet
Position2: "'cpsp' Capital Spacing lookup 0 per glyph data 2" dx=5 dy=0 dh=10 dv=0
EndChar
StartChar: germandbls
Encoding: 223 223 193
Width: 528
GlyphClass: 2
Flags: MW
HStem: -8 29<358.5 393.5 358.5 412.5> 0 27<71 75.5 179.5 184> 712 25<227.5 290>
VStem: 84 86<48 434> 210 79 252 93<62.5 72> 359 79<595.5 641.5> 450 79<91.5 120.5>
LayerCount: 2
Back
Fore
SplineSet
257 737 m 0x7b
 366 737 438 693 438 622 c 0
 438 569 394 540 344 509 c 0
 309 487 289 470 289 427 c 0
 289 396 314 367 353 340 c 1x7b
 440 277 l 1
 496 238 529 195 529 139 c 0
 529 44 451 -8 374 -8 c 0
 305 -8 252 19 252 57 c 0
 252 87 271 107 300 107 c 0
 332 107 345 88 345 67 c 0
 345 58 343 48 343 40 c 0
 343 29 347 21 370 21 c 0
 417 21 450 43 450 99 c 0
 450 142 423 184 375 219 c 2xb5
 289 281 l 2
 244 314 210 347 210 386 c 0
 210 430 228 457 291 506 c 0
 335 540 359 559 359 612 c 0
 359 671 322 712 258 712 c 0
 197 712 155 670 155 601 c 0
 155 566 170 483 170 434 c 2
 170 48 l 2
 170 37 175 27 184 27 c 2
 230 29 l 1
 230 0 l 1
 35 0 l 1
 35 29 l 1
 71 27 l 2
 80 27 84 36 84 48 c 2
 84 512 l 2
 84 669 144 737 257 737 c 0x7b
EndSplineSet
EndChar
StartChar: aacute
Encoding: 225 225 112
Width: 450
GlyphClass: 2
Flags: MW
HStem: -5 36<164 186> 0 24<388.5 393 388.5 430> 231 27<231 294> 403 27<170.5 233.5>
VStem: 27 91<87.5 156 87.5 159> 51 74<353 363.5> 294 86<76 76 162 231 231 231 258 289>
LayerCount: 2
Back
Fore
SplineSet
169 493 m 0x7a
 160 493 156 496 156 501 c 0
 156 506 166 515 174 524 c 2
 269 628 l 2
 286 647 290 653 305 653 c 0
 329 653 362 635 362 627 c 0
 362 620 356 617 352 614 c 2
 189 502 l 2
 185 499 176 493 169 493 c 0x7a
393 24 m 2
 430 26 l 1
 430 0 l 1
 288 0 l 1
 289 5 292 32 292 37 c 2x7a
 294 76 l 1
 263 16 217 -5 155 -5 c 0
 72 -5 27 32 27 108 c 0xba
 27 210 109 258 294 258 c 1
 294 316 l 2
 294 379 266 403 201 403 c 0
 140 403 125 382 125 361 c 0
 125 345 134 340 134 323 c 0
 134 300 117 289 95 289 c 0
 66 289 51 309 51 336 c 0x76
 51 391 113 430 213 430 c 0
 321 430 380 385 380 289 c 2
 380 43 l 2
 380 30 384 24 393 24 c 2
185 31 m 0xba
 243 31 290 84 294 162 c 1
 294 231 l 1
 168 231 118 196 118 116 c 0
 118 59 143 31 185 31 c 0xba
EndSplineSet
EndChar
StartChar: acircumflex
Encoding: 226 226 114
Width: 450
GlyphClass: 2
Flags: MW
HStem: -5 36<164 186> 0 24<388.5 393 388.5 430> 231 27<231 294> 403 27<170.5 233.5>
VStem: 27 91<87.5 156 87.5 159> 51 74<353 363.5> 294 86<76 76 162 231 231 231 258 289>
LayerCount: 2
Back
Fore
SplineSet
78 493 m 0x7a
 70 493 69 498 69 501 c 0
 69 510 107 533 148 576 c 2
 171 600 l 1
 195 624 l 2
 211 639 222 649 225 649 c 0
 228 649 239 639 255 624 c 2
 279 600 l 1
 302 576 l 2
 343 533 381 510 381 501 c 0
 381 498 380 493 372 493 c 0
 365 493 352 500 344 505 c 2
 225 579 l 1
 106 505 l 2
 98 500 85 493 78 493 c 0x7a
393 24 m 2
 430 26 l 1
 430 0 l 1
 288 0 l 1
 289 5 292 32 292 37 c 2x7a
 294 76 l 1
 263 16 217 -5 155 -5 c 0
 72 -5 27 32 27 108 c 0xba
 27 210 109 258 294 258 c 1
 294 316 l 2
 294 379 266 403 201 403 c 0
 140 403 125 382 125 361 c 0
 125 345 134 340 134 323 c 0
 134 300 117 289 95 289 c 0
 66 289 51 309 51 336 c 0x76
 51 391 113 430 213 430 c 0
 321 430 380 385 380 289 c 2
 380 43 l 2
 380 30 384 24 393 24 c 2
185 31 m 0xba
 243 31 290 84 294 162 c 1
 294 231 l 1
 168 231 118 196 118 116 c 0
 118 59 143 31 185 31 c 0xba
EndSplineSet
EndChar
StartChar: atilde
Encoding: 227 227 120
Width: 450
GlyphClass: 2
Flags: MW
HStem: -5 36<164 186> 0 24<388.5 393 388.5 430> 231 27<231 294> 403 27<170.5 233.5> 529 49<295.5 322.5> 572 49<127.5 155>
VStem: 27 91<87.5 156 87.5 159> 51 74<353 363.5> 82 20<530 542 530 554.5> 294 86<76 76 162 231 231 231 258 289> 348 20<608 620>
LayerCount: 2
Back
Fore
SplineSet
135 572 m 0x74c0
 116 572 102 554 102 530 c 1
 82 530 l 1
 82 579 109 621 146 621 c 0x74c0
 189 621 276 578 315 578 c 0
 334 578 348 596 348 620 c 1
 368 620 l 1
 368 571 341 529 304 529 c 0x7a20
 260 529 175 572 135 572 c 0x74c0
393 24 m 2x7540
 430 26 l 1
 430 0 l 1
 288 0 l 1
 289 5 292 32 292 37 c 2x7640
 294 76 l 1
 263 16 217 -5 155 -5 c 0
 72 -5 27 32 27 108 c 0xb640
 27 210 109 258 294 258 c 1
 294 316 l 2
 294 379 266 403 201 403 c 0
 140 403 125 382 125 361 c 0
 125 345 134 340 134 323 c 0
 134 300 117 289 95 289 c 0
 66 289 51 309 51 336 c 0
 51 391 113 430 213 430 c 0
 321 430 380 385 380 289 c 2
 380 43 l 2
 380 30 384 24 393 24 c 2x7540
185 31 m 0xb640
 243 31 290 84 294 162 c 1
 294 231 l 1
 168 231 118 196 118 116 c 0
 118 59 143 31 185 31 c 0xb640
EndSplineSet
EndChar
StartChar: adieresis
Encoding: 228 228 115
Width: 450
GlyphClass: 2
Flags: MW
HStem: -5 36<164 186> 0 24<388.5 393 388.5 430> 231 27<231 294> 403 27<170.5 233.5> 547 97<111.5 141.5 111.5 142.5 306.5 336.5>
VStem: 27 91<87.5 156 87.5 159> 51 74<353 363.5> 73 108<580.5 609> 268 108<580.5 609> 294 86<76 76 162 231 231 231 258 289>
LayerCount: 2
Back
Fore
SplineSet
127 547 m 0x7980
 96 547 73 566 73 595 c 0
 73 623 96 644 127 644 c 0
 156 644 181 623 181 595 c 0
 181 566 158 547 127 547 c 0x7980
322 547 m 0
 291 547 268 566 268 595 c 0
 268 623 291 644 322 644 c 0
 351 644 376 623 376 595 c 0
 376 566 353 547 322 547 c 0
393 24 m 2x7240
 430 26 l 1
 430 0 l 1
 288 0 l 1
 289 5 292 32 292 37 c 2x7440
 294 76 l 1
 263 16 217 -5 155 -5 c 0
 72 -5 27 32 27 108 c 0xb440
 27 210 109 258 294 258 c 1
 294 316 l 2
 294 379 266 403 201 403 c 0
 140 403 125 382 125 361 c 0
 125 345 134 340 134 323 c 0
 134 300 117 289 95 289 c 0
 66 289 51 309 51 336 c 0
 51 391 113 430 213 430 c 0
 321 430 380 385 380 289 c 2
 380 43 l 2
 380 30 384 24 393 24 c 2x7240
185 31 m 0xb440
 243 31 290 84 294 162 c 1
 294 231 l 1
 168 231 118 196 118 116 c 0
 118 59 143 31 185 31 c 0xb440
EndSplineSet
EndChar
StartChar: aring
Encoding: 229 229 119
Width: 450
GlyphClass: 2
Flags: MW
HStem: -5 36<164 186> 0 24<388.5 393 388.5 430> 231 27<231 294> 403 27<170.5 233.5> 493 36<211.5 236.5 211.5 247> 620 36<211.5 236.5>
VStem: 27 91<87.5 156 87.5 159> 51 74<353 363.5> 141 42<561 588.5 561 597.5> 266 42<561 588.5> 294 86<76 76 162 231 231 231 258 289>
LayerCount: 2
Back
Fore
SplineSet
224 493 m 0x7ec0
 178 493 141 530 141 575 c 0
 141 620 178 656 224 656 c 0
 270 656 308 620 308 575 c 0
 308 530 270 493 224 493 c 0x7ec0
224 620 m 0
 199 620 183 602 183 575 c 0
 183 547 199 529 224 529 c 0
 249 529 266 547 266 575 c 0
 266 602 249 620 224 620 c 0
393 24 m 2x7d20
 430 26 l 1
 430 0 l 1
 288 0 l 1
 289 5 292 32 292 37 c 2x7e20
 294 76 l 1
 263 16 217 -5 155 -5 c 0
 72 -5 27 32 27 108 c 0xbe20
 27 210 109 258 294 258 c 1
 294 316 l 2
 294 379 266 403 201 403 c 0
 140 403 125 382 125 361 c 0
 125 345 134 340 134 323 c 0
 134 300 117 289 95 289 c 0
 66 289 51 309 51 336 c 0
 51 391 113 430 213 430 c 0
 321 430 380 385 380 289 c 2
 380 43 l 2
 380 30 384 24 393 24 c 2x7d20
185 31 m 0xbe20
 243 31 290 84 294 162 c 1
 294 231 l 1
 168 231 118 196 118 116 c 0
 118 59 143 31 185 31 c 0xbe20
EndSplineSet
EndChar
StartChar: ae
Encoding: 230 230 121
Width: 710
GlyphClass: 2
Flags: MW
HStem: -10 33<470 540 470 543.5> -5 33<170.5 208> 217 25<231.5 294 381 580 580 584> 403 27<170.5 233.5 468 535.5>
VStem: 27 91<69.5 133.5 69.5 153> 51 74<353 363.5> 294 87<177 217 158.5 217 242 296 158.5 316> 590 85<264 285.5 217 306>
LayerCount: 2
Back
Fore
SplineSet
500 430 m 0xbb
 617 430 675 354 675 217 c 1
 381 217 l 1
 381 100 426 23 514 23 c 0
 566 23 626 61 650 110 c 1
 674 92 l 1
 645 28 579 -10 508 -10 c 0xbb
 401 -10 347 27 318 87 c 1
 286 26 244 -5 172 -5 c 0
 89 -5 27 26 27 98 c 0x7b
 27 208 115 242 294 242 c 1
 294 316 l 2
 294 379 266 403 201 403 c 0
 140 403 125 382 125 361 c 0
 125 345 134 340 134 323 c 0
 134 300 117 289 95 289 c 0
 66 289 51 309 51 336 c 0xb7
 51 391 113 430 213 430 c 0
 278 430 325 414 352 381 c 1
 391 416 436 430 500 430 c 0xbb
501 403 m 0
 417 403 381 350 381 242 c 1
 580 242 l 2
 588 242 590 258 590 270 c 0
 590 342 570 403 501 403 c 0
294 217 m 1
 169 217 118 174 118 93 c 0
 118 46 150 28 191 28 c 0x7b
 244 28 294 89 294 177 c 2
 294 217 l 1
EndSplineSet
EndChar
StartChar: ccedilla
Encoding: 231 231 126
Width: 425
GlyphClass: 2
Flags: MW
HStem: -214 27<162.5 227.5> -10 27<232 232 232 237> -7 21G<199 199> 403 27<203 254.5>
VStem: 36 93<149.5 274.5> 158 47<-67.5 -62.5> 226 65<-148.5 -124.5> 313 74<342 357 316 369>
AnchorPoint: "Anchor-0" 213 0 basechar 0
LayerCount: 2
Back
Fore
SplineSet
232 -10 m 1xda
 211 -43 l 2
 207 -50 205 -57 205 -62 c 0xde
 205 -85 291 -70 291 -122 c 0
 291 -178 258 -214 197 -214 c 0
 180 -214 151 -213 128 -198 c 1
 135 -174 l 1
 143 -183 155 -187 170 -187 c 0
 201 -187 226 -164 226 -133 c 0
 226 -116 209 -103 192 -94 c 1xda
 169 -80 l 2
 162 -75 158 -70 158 -65 c 0
 158 -60 160 -56 164 -52 c 2xde
 199 -7 l 1
 96 8 36 86 36 206 c 0
 36 343 115 430 232 430 c 0
 315 430 387 386 387 328 c 0
 387 304 375 278 339 278 c 0
 318 278 304 287 304 308 c 0
 304 324 313 333 313 351 c 0xbb
 313 387 274 403 235 403 c 0
 171 403 129 361 129 217 c 0
 129 82 166 17 242 17 c 0
 305 17 366 53 383 124 c 1
 407 106 l 1
 384 36 326 -10 237 -10 c 2
 232 -10 l 1xda
EndSplineSet
EndChar
StartChar: egrave
Encoding: 232 232 137
Width: 449
GlyphClass: 2
Flags: MW
HStem: -10 33<252 275> 212 25<127 309 309 315 127 414 126 309> 403 27<196 270>
VStem: 35 91<151.5 212 151.5 281.5> 329 85<212 314.5>
AnchorPoint: "Anchor-0" 225 0 basechar 0
LayerCount: 2
Back
Fore
SplineSet
88 627 m 0
 88 635 121 653 145 653 c 0
 160 653 164 647 181 628 c 2
 276 524 l 2
 284 515 294 506 294 501 c 0
 294 496 290 493 281 493 c 0
 274 493 265 499 261 502 c 2
 98 614 l 2
 94 617 88 620 88 627 c 0
236 430 m 0
 341 430 411 360 414 241 c 1
 414 212 l 1
 126 212 l 1
 126 91 168 24 252 23 c 0
 324 23 368 67 387 110 c 1
 410 93 l 1
 383 28 312 -10 238 -10 c 0
 97 -10 35 68 35 209 c 0
 35 354 104 430 236 430 c 0
236 403 m 0
 156 403 127 327 127 237 c 1
 309 237 l 2
 321 237 329 243 329 270 c 0
 329 359 304 403 236 403 c 0
EndSplineSet
EndChar
StartChar: eacute
Encoding: 233 233 132
Width: 449
GlyphClass: 2
Flags: MW
HStem: -10 33<252 275> 212 25<127 309 309 315 127 414 126 309> 403 27<196 270>
VStem: 35 91<151.5 212 151.5 281.5> 329 85<212 314.5>
AnchorPoint: "Anchor-0" 225 0 basechar 0
LayerCount: 2
Back
Fore
SplineSet
362 627 m 0
 362 620 356 617 352 614 c 2
 189 502 l 2
 185 499 176 493 169 493 c 0
 160 493 156 496 156 501 c 0
 156 506 166 515 174 524 c 2
 269 628 l 2
 286 647 290 653 305 653 c 0
 329 653 362 635 362 627 c 0
236 430 m 0
 341 430 411 360 414 241 c 1
 414 212 l 1
 126 212 l 1
 126 91 168 24 252 23 c 0
 324 23 368 67 387 110 c 1
 410 93 l 1
 383 28 312 -10 238 -10 c 0
 97 -10 35 68 35 209 c 0
 35 354 104 430 236 430 c 0
236 403 m 0
 156 403 127 327 127 237 c 1
 309 237 l 2
 321 237 329 243 329 270 c 0
 329 359 304 403 236 403 c 0
EndSplineSet
EndChar
StartChar: ecircumflex
Encoding: 234 234 134
Width: 449
GlyphClass: 2
Flags: MW
HStem: -10 33<252 275> 212 25<127 309 309 315 127 414 126 309> 403 27<196 270>
VStem: 35 91<151.5 212 151.5 281.5> 329 85<212 314.5>
AnchorPoint: "Anchor-0" 225 0 basechar 0
LayerCount: 2
Back
Fore
SplineSet
381 501 m 0
 381 498 380 493 372 493 c 0
 365 493 352 500 344 505 c 2
 225 579 l 1
 106 505 l 2
 98 500 85 493 78 493 c 0
 70 493 69 498 69 501 c 0
 69 510 107 533 148 576 c 2
 171 600 l 1
 195 624 l 2
 211 639 222 649 225 649 c 0
 228 649 239 639 255 624 c 2
 279 600 l 1
 302 576 l 2
 343 533 381 510 381 501 c 0
236 430 m 0
 341 430 411 360 414 241 c 1
 414 212 l 1
 126 212 l 1
 126 91 168 24 252 23 c 0
 324 23 368 67 387 110 c 1
 410 93 l 1
 383 28 312 -10 238 -10 c 0
 97 -10 35 68 35 209 c 0
 35 354 104 430 236 430 c 0
236 403 m 0
 156 403 127 327 127 237 c 1
 309 237 l 2
 321 237 329 243 329 270 c 0
 329 359 304 403 236 403 c 0
EndSplineSet
EndChar
StartChar: edieresis
Encoding: 235 235 135
Width: 449
GlyphClass: 2
Flags: MW
HStem: -10 33<252 275> 212 25<127 309 309 315 127 414 126 309> 403 27<196 270> 547 97<111.5 141.5 111.5 142.5 306.5 336.5>
VStem: 35 91<151.5 212 151.5 281.5> 73 108<580.5 609> 268 108<580.5 609> 329 85<212 314.5>
AnchorPoint: "Anchor-0" 225 0 basechar 0
LayerCount: 2
Back
Fore
SplineSet
73 595 m 0xf6
 73 623 96 644 127 644 c 0
 156 644 181 623 181 595 c 0
 181 566 158 547 127 547 c 0
 96 547 73 566 73 595 c 0xf6
268 595 m 0
 268 623 291 644 322 644 c 0
 351 644 376 623 376 595 c 0
 376 566 353 547 322 547 c 0
 291 547 268 566 268 595 c 0
236 430 m 0xe9
 341 430 411 360 414 241 c 1
 414 212 l 1
 126 212 l 1
 126 91 168 24 252 23 c 0
 324 23 368 67 387 110 c 1
 410 93 l 1
 383 28 312 -10 238 -10 c 0
 97 -10 35 68 35 209 c 0
 35 354 104 430 236 430 c 0xe9
236 403 m 0
 156 403 127 327 127 237 c 1
 309 237 l 2
 321 237 329 243 329 270 c 0
 329 359 304 403 236 403 c 0
EndSplineSet
EndChar
StartChar: igrave
Encoding: 236 236 151
Width: 255
GlyphClass: 2
Flags: MW
HStem: 0 24<72 76.5 179.5 184> 395 25
VStem: 85 86<43 376 376 381.5>
LayerCount: 2
Back
Fore
SplineSet
-9 627 m 0
 -9 635 24 653 48 653 c 0
 63 653 67 647 84 628 c 2
 179 524 l 2
 187 515 197 506 197 501 c 0
 197 496 193 493 184 493 c 0
 177 493 168 499 164 502 c 2
 1 614 l 2
 -3 617 -9 620 -9 627 c 0
171 420 m 1
 171 43 l 2
 171 30 175 24 184 24 c 2
 220 26 l 1
 220 0 l 1
 35 0 l 1
 35 26 l 1
 72 24 l 2
 81 24 85 30 85 43 c 2
 85 376 l 2
 85 387 81 394 73 396 c 1
 36 394 l 1
 36 420 l 1
 171 420 l 1
EndSplineSet
EndChar
StartChar: iacute
Encoding: 237 237 147
Width: 255
GlyphClass: 2
Flags: MW
HStem: 0 24<72 76.5 179.5 184> 395 25
VStem: 85 86<43 376 376 381.5>
LayerCount: 2
Back
Fore
SplineSet
265 627 m 0
 265 620 259 617 255 614 c 2
 92 502 l 2
 88 499 79 493 72 493 c 0
 63 493 59 496 59 501 c 0
 59 506 69 515 77 524 c 2
 172 628 l 2
 189 647 193 653 208 653 c 0
 232 653 265 635 265 627 c 0
171 420 m 1
 171 43 l 2
 171 30 175 24 184 24 c 2
 220 26 l 1
 220 0 l 1
 35 0 l 1
 35 26 l 1
 72 24 l 2
 81 24 85 30 85 43 c 2
 85 376 l 2
 85 387 81 394 73 396 c 1
 36 394 l 1
 36 420 l 1
 171 420 l 1
EndSplineSet
EndChar
StartChar: icircumflex
Encoding: 238 238 148
Width: 255
GlyphClass: 2
Flags: MW
HStem: 0 24<72 76.5 179.5 184> 395 25
VStem: 85 86<43 376 376 381.5>
LayerCount: 2
Back
Fore
SplineSet
30 506 m 2
 21 499 9 493 1 493 c 0
 -3 493 -7 496 -7 500 c 0
 -7 503 4 515 19 533 c 2
 113 644 l 2
 120 653 126 659 128 659 c 0
 130 659 136 653 143 644 c 2
 237 533 l 2
 252 515 263 503 263 500 c 0
 263 496 259 493 255 493 c 0
 247 493 235 499 226 506 c 2
 128 584 l 1
 30 506 l 2
171 420 m 1
 171 43 l 2
 171 30 175 24 184 24 c 2
 220 26 l 1
 220 0 l 1
 35 0 l 1
 35 26 l 1
 72 24 l 2
 81 24 85 30 85 43 c 2
 85 376 l 2
 85 387 81 394 73 396 c 1
 36 394 l 1
 36 420 l 1
 171 420 l 1
EndSplineSet
EndChar
StartChar: idieresis
Encoding: 239 239 149
Width: 255
GlyphClass: 2
Flags: MW
HStem: 0 24<72 76.5 179.5 184> 395 25 547 97<14.5 44.5 14.5 45.5 209.5 239.5>
VStem: -24 108<580.5 609> 85 86<43 376 376 381.5> 171 108<580.5 609>
LayerCount: 2
Back
Fore
SplineSet
-24 595 m 0xf4
 -24 623 -1 644 30 644 c 0
 59 644 84 623 84 595 c 0
 84 566 61 547 30 547 c 0
 -1 547 -24 566 -24 595 c 0xf4
171 595 m 0
 171 623 194 644 225 644 c 0
 254 644 279 623 279 595 c 0
 279 566 256 547 225 547 c 0
 194 547 171 566 171 595 c 0
171 420 m 1xc8
 171 43 l 2
 171 30 175 24 184 24 c 2
 220 26 l 1
 220 0 l 1
 35 0 l 1
 35 26 l 1
 72 24 l 2
 81 24 85 30 85 43 c 2
 85 376 l 2
 85 387 81 394 73 396 c 1
 36 394 l 1
 36 420 l 1
 171 420 l 1xc8
EndSplineSet
EndChar
StartChar: eth
Encoding: 240 240 128
Width: 492
GlyphClass: 2
Flags: MW
HStem: -11 25<202.5 290 202.5 314> 404 25<200.5 260.5 177.5 288.5> 585 22<112 132>
VStem: 35 91<136.5 281> 366 91<145 279>
LayerCount: 2
Back
Fore
SplineSet
297 547 m 1
 387 482 457 368 457 213 c 0
 457 77 382 -11 246 -11 c 0
 109 -11 35 64 35 209 c 0
 35 353 109 429 246 429 c 0
 275 429 311 419 328 404 c 1
 314 445 282 486 246 518 c 1
 140 457 l 1
 125 483 l 1
 221 538 l 1
 183 567 142 585 112 585 c 1
 132 607 l 1
 178 605 225 591 269 565 c 1
 364 620 l 1
 378 594 l 1
 297 547 l 1
246 14 m 0
 334 14 366 72 366 209 c 0
 366 349 331 404 246 404 c 0
 155 404 126 357 126 209 c 0
 126 62 159 14 246 14 c 0
EndSplineSet
EndChar
StartChar: ograve
Encoding: 242 242 175
Width: 472
GlyphClass: 2
Flags: MW
HStem: -10 27<196 276 196 303.5> 403 27<196 276>
VStem: 35 91<143.5 276.5 142.5 277> 346 91<143.5 276.5>
LayerCount: 2
Back
Fore
SplineSet
99 627 m 0
 99 635 132 653 156 653 c 0
 171 653 175 647 192 628 c 2
 287 524 l 2
 295 515 305 506 305 501 c 0
 305 496 301 493 292 493 c 0
 285 493 276 499 272 502 c 2
 109 614 l 2
 105 617 99 620 99 627 c 0
35 211 m 0
 35 343 101 430 236 430 c 0
 371 430 437 343 437 211 c 0
 437 76 371 -10 236 -10 c 0
 101 -10 35 76 35 211 c 0
126 209 m 0
 126 76 156 17 236 17 c 0
 316 17 346 76 346 209 c 0
 346 344 316 403 236 403 c 0
 156 403 126 344 126 209 c 0
EndSplineSet
EndChar
StartChar: oacute
Encoding: 243 243 172
Width: 472
GlyphClass: 2
Flags: MW
HStem: -10 27<196 276 196 303.5> 403 27<196 276>
VStem: 35 91<143.5 276.5 142.5 277> 346 91<143.5 276.5>
LayerCount: 2
Back
Fore
SplineSet
373 627 m 0
 373 620 367 617 363 614 c 2
 200 502 l 2
 196 499 187 493 180 493 c 0
 171 493 167 496 167 501 c 0
 167 506 177 515 185 524 c 2
 280 628 l 2
 297 647 301 653 316 653 c 0
 340 653 373 635 373 627 c 0
35 211 m 0
 35 343 101 430 236 430 c 0
 371 430 437 343 437 211 c 0
 437 76 371 -10 236 -10 c 0
 101 -10 35 76 35 211 c 0
126 209 m 0
 126 76 156 17 236 17 c 0
 316 17 346 76 346 209 c 0
 346 344 316 403 236 403 c 0
 156 403 126 344 126 209 c 0
EndSplineSet
EndChar
StartChar: ocircumflex
Encoding: 244 244 173
Width: 472
GlyphClass: 2
Flags: MW
HStem: -10 27<196 276 196 303.5> 403 27<196 276>
VStem: 35 91<143.5 276.5 142.5 277> 346 91<143.5 276.5>
LayerCount: 2
Back
Fore
SplineSet
392 501 m 0
 392 498 391 493 383 493 c 0
 376 493 363 500 355 505 c 2
 236 579 l 1
 117 505 l 2
 109 500 96 493 89 493 c 0
 81 493 80 498 80 501 c 0
 80 510 118 533 159 576 c 2
 182 600 l 1
 206 624 l 2
 222 639 233 649 236 649 c 0
 239 649 250 639 266 624 c 2
 290 600 l 1
 313 576 l 2
 354 533 392 510 392 501 c 0
35 211 m 0
 35 343 101 430 236 430 c 0
 371 430 437 343 437 211 c 0
 437 76 371 -10 236 -10 c 0
 101 -10 35 76 35 211 c 0
126 209 m 0
 126 76 156 17 236 17 c 0
 316 17 346 76 346 209 c 0
 346 344 316 403 236 403 c 0
 156 403 126 344 126 209 c 0
EndSplineSet
EndChar
StartChar: otilde
Encoding: 245 245 179
Width: 472
GlyphClass: 2
Flags: MW
HStem: -10 27<196 276 196 303.5> 403 27<196 276> 529 49<306.5 333.5> 572 49<138.5 166>
VStem: 35 91<143.5 276.5 142.5 277> 93 20<530 542 530 554.5> 346 91<143.5 276.5> 359 20<608 620>
LayerCount: 2
Back
Fore
SplineSet
93 530 m 1xd6
 93 579 120 621 157 621 c 0xd6
 200 621 287 578 326 578 c 0
 345 578 359 596 359 620 c 1
 379 620 l 1
 379 571 352 529 315 529 c 0xe9
 271 529 186 572 146 572 c 0
 127 572 113 554 113 530 c 1
 93 530 l 1xd6
35 211 m 0xda
 35 343 101 430 236 430 c 0
 371 430 437 343 437 211 c 0
 437 76 371 -10 236 -10 c 0
 101 -10 35 76 35 211 c 0xda
126 209 m 0
 126 76 156 17 236 17 c 0
 316 17 346 76 346 209 c 0
 346 344 316 403 236 403 c 0
 156 403 126 344 126 209 c 0
EndSplineSet
EndChar
StartChar: odieresis
Encoding: 246 246 174
Width: 472
GlyphClass: 2
Flags: MW
HStem: -10 27<196 276 196 303.5> 403 27<196 276> 547 97<122.5 152.5 122.5 153.5 317.5 347.5>
VStem: 35 91<143.5 276.5 142.5 277> 84 108<580.5 609> 279 108<580.5 609> 346 91<143.5 276.5>
LayerCount: 2
Back
Fore
SplineSet
84 595 m 0xec
 84 623 107 644 138 644 c 0
 167 644 192 623 192 595 c 0
 192 566 169 547 138 547 c 0
 107 547 84 566 84 595 c 0xec
279 595 m 0
 279 623 302 644 333 644 c 0
 362 644 387 623 387 595 c 0
 387 566 364 547 333 547 c 0
 302 547 279 566 279 595 c 0
35 211 m 0xd2
 35 343 101 430 236 430 c 0
 371 430 437 343 437 211 c 0
 437 76 371 -10 236 -10 c 0
 101 -10 35 76 35 211 c 0xd2
126 209 m 0
 126 76 156 17 236 17 c 0
 316 17 346 76 346 209 c 0
 346 344 316 403 236 403 c 0
 156 403 126 344 126 209 c 0
EndSplineSet
EndChar
StartChar: divide
Encoding: 247 247 299
Width: 460
Flags: MW
HStem: 50 95<213.5 244.5 213.5 245> 244 51<19 441 19 441> 389 95<213.5 244.5 213.5 245>
VStem: 175 109<82.5 111.5 421.5 451.5>
LayerCount: 2
Back
Fore
SplineSet
175 436 m 0
 175 467 198 484 229 484 c 0
 260 484 284 467 284 436 c 0
 284 407 261 389 229 389 c 0
 197 389 175 407 175 436 c 0
19 244 m 1
 19 295 l 1
 441 295 l 1
 441 244 l 1
 19 244 l 1
175 97 m 0
 175 126 198 145 229 145 c 0
 260 145 284 128 284 97 c 0
 284 68 261 50 229 50 c 0
 197 50 175 68 175 97 c 0
EndSplineSet
EndChar
StartChar: oslash
Encoding: 248 248 178
Width: 472
GlyphClass: 2
Flags: MW
HStem: -10 27<223 276 223 303.5> 403 27<196 253>
VStem: 35 91<179 276.5 179 277> 346 91<143.5 233>
LayerCount: 2
Back
Fore
SplineSet
369 388 m 1
 415 350 437 288 437 211 c 0
 437 76 371 -10 236 -10 c 0
 205 -10 178 -6 155 3 c 1
 106 -85 l 1
 68 -68 l 1
 118 21 l 1
 62 58 35 124 35 211 c 0
 35 343 101 430 236 430 c 0
 275 430 308 423 335 410 c 1
 388 504 l 1
 422 483 l 1
 369 388 l 1
126 209 m 0
 126 149 132 103 146 72 c 1
 313 369 l 1
 295 392 270 403 236 403 c 0
 156 403 126 344 126 209 c 0
236 17 m 0
 316 17 346 76 346 209 c 0
 346 257 342 295 334 325 c 1
 173 36 l 1
 189 23 210 17 236 17 c 0
EndSplineSet
EndChar
StartChar: uacute
Encoding: 250 250 199
Width: 524
GlyphClass: 2
Flags: MW
HStem: -10 33<190 232> 0 24<448.5 453 448.5 489> 396 24<56 60.5 341 345>
VStem: 69 86<148 376 376 382.5> 353 87<220 226 220 226 375 382>
LayerCount: 2
Back
Fore
SplineSet
206 493 m 0x78
 197 493 193 496 193 501 c 0
 193 506 203 515 211 524 c 2
 306 628 l 2
 323 647 327 653 342 653 c 0
 366 653 399 635 399 627 c 0
 399 620 393 617 389 614 c 2
 226 502 l 2
 222 499 213 493 206 493 c 0x78
453 24 m 2
 489 26 l 1
 489 0 l 1
 347 0 l 1
 350 7 352 20 352 72 c 2x78
 352 85 l 1
 325 23 269 -10 195 -10 c 0
 106 -10 69 36 69 148 c 2
 69 376 l 2
 69 389 65 396 56 396 c 2
 20 394 l 1
 20 420 l 1
 155 420 l 1
 155 148 l 2
 155 64 164 23 216 23 c 0xb8
 291 23 345 84 352 186 c 1
 353 375 l 2
 353 389 349 396 341 396 c 2
 294 394 l 1
 294 420 l 1
 440 420 l 1
 440 43 l 2
 440 30 444 24 453 24 c 2
353 220 m 1
 353 226 l 1
 353 220 l 1
EndSplineSet
EndChar
StartChar: ucircumflex
Encoding: 251 251 200
Width: 524
GlyphClass: 2
Flags: MW
HStem: -10 33<190 232> 0 24<448.5 453 448.5 489> 396 24<56 60.5 341 345>
VStem: 69 86<148 376 376 382.5> 353 87<220 226 220 226 375 382>
LayerCount: 2
Back
Fore
SplineSet
115 493 m 0x78
 107 493 106 498 106 501 c 0
 106 510 144 533 185 576 c 2
 208 600 l 1
 232 624 l 2
 248 639 259 649 262 649 c 0
 265 649 276 639 292 624 c 2
 316 600 l 1
 339 576 l 2
 380 533 418 510 418 501 c 0
 418 498 417 493 409 493 c 0
 402 493 389 500 381 505 c 2
 262 579 l 1
 143 505 l 2
 135 500 122 493 115 493 c 0x78
453 24 m 2
 489 26 l 1
 489 0 l 1
 347 0 l 1
 350 7 352 20 352 72 c 2x78
 352 85 l 1
 325 23 269 -10 195 -10 c 0
 106 -10 69 36 69 148 c 2
 69 376 l 2
 69 389 65 396 56 396 c 2
 20 394 l 1
 20 420 l 1
 155 420 l 1
 155 148 l 2
 155 64 164 23 216 23 c 0xb8
 291 23 345 84 352 186 c 1
 353 375 l 2
 353 389 349 396 341 396 c 2
 294 394 l 1
 294 420 l 1
 440 420 l 1
 440 43 l 2
 440 30 444 24 453 24 c 2
353 220 m 1
 353 226 l 1
 353 220 l 1
EndSplineSet
EndChar
StartChar: udieresis
Encoding: 252 252 201
Width: 524
GlyphClass: 2
Flags: MW
HStem: -10 33<190 232> 0 24<448.5 453 448.5 489> 396 24<56 60.5 341 345> 547 97<148.5 178.5 148.5 179.5 343.5 373.5>
VStem: 69 86<148 376 376 382.5> 110 108<580.5 609> 305 108<580.5 609> 353 87<220 226 220 226 375 382>
LayerCount: 2
Back
Fore
SplineSet
164 547 m 0x76
 133 547 110 566 110 595 c 0
 110 623 133 644 164 644 c 0
 193 644 218 623 218 595 c 0
 218 566 195 547 164 547 c 0x76
359 547 m 0
 328 547 305 566 305 595 c 0
 305 623 328 644 359 644 c 0
 388 644 413 623 413 595 c 0
 413 566 390 547 359 547 c 0
453 24 m 2x69
 489 26 l 1
 489 0 l 1
 347 0 l 1
 350 7 352 20 352 72 c 2x69
 352 85 l 1
 325 23 269 -10 195 -10 c 0
 106 -10 69 36 69 148 c 2
 69 376 l 2
 69 389 65 396 56 396 c 2
 20 394 l 1
 20 420 l 1
 155 420 l 1
 155 148 l 2
 155 64 164 23 216 23 c 0xa9
 291 23 345 84 352 186 c 1
 353 375 l 2
 353 389 349 396 341 396 c 2
 294 394 l 1
 294 420 l 1
 440 420 l 1
 440 43 l 2
 440 30 444 24 453 24 c 2x69
353 220 m 1
 353 226 l 1
 353 220 l 1
EndSplineSet
EndChar
StartChar: yacute
Encoding: 253 253 215
Width: 485
GlyphClass: 2
Flags: MW
HStem: -239 58<107 111.5> 396 24<36 40 156.5 161 374 379.5 433.5 439 439 441>
VStem: 327 155<394 420 394 420>
LayerCount: 2
Back
Fore
SplineSet
192 493 m 0
 183 493 179 496 179 501 c 0
 179 506 189 515 197 524 c 2
 292 628 l 2
 309 647 313 653 328 653 c 0
 352 653 385 635 385 627 c 0
 385 620 379 617 375 614 c 2
 212 502 l 2
 208 499 199 493 192 493 c 0
327 420 m 1
 482 420 l 1
 482 394 l 1
 441 396 l 1
 439 396 l 2
 428 396 420 390 414 377 c 2
 203 -132 l 2
 171 -211 138 -239 85 -239 c 0
 50 -239 22 -222 19 -190 c 1
 19 -155 39 -139 58 -139 c 0
 99 -139 93 -181 121 -181 c 0
 136 -181 154 -168 167 -135 c 2
 225 4 l 1
 52 383 l 2
 48 391 44 396 36 396 c 2
 -13 394 l 1
 -13 420 l 1
 206 420 l 1
 206 394 l 1
 161 396 l 2
 152 396 145 387 149 379 c 2
 271 111 l 1
 384 381 l 2
 387 389 385 396 374 396 c 2
 327 394 l 1
 327 420 l 1
EndSplineSet
EndChar
StartChar: thorn
Encoding: 254 254 182
Width: 494
GlyphClass: 2
Flags: MW
HStem: -239 24<56 56 163.5 168> -10 27<241.5 307 233.5 334.5> 403 27<253.5 313> 706 24<56 60.5>
VStem: 69 86<-195 43 340 686 686 692.5> 368 91<136.5 279.5 136.5 281>
LayerCount: 2
Back
Fore
SplineSet
155 730 m 1
 155 340 l 1
 174 396 220 430 287 430 c 0
 404 430 459 350 459 209 c 0
 459 64 400 -10 269 -10 c 0
 214 -10 174 8 155 43 c 1
 155 -195 l 2
 155 -208 159 -215 168 -215 c 2
 230 -213 l 1
 230 -239 l 1
 24 -239 l 1
 24 -213 l 1
 56 -215 l 1
 65 -214 69 -208 69 -195 c 2
 69 686 l 2
 69 699 65 706 56 706 c 2
 20 704 l 1
 20 730 l 1
 155 730 l 1
276 403 m 0
 199 403 157 330 157 226 c 2
 157 184 l 2
 157 64 198 17 269 17 c 0
 345 17 368 62 368 209 c 0
 368 353 350 403 276 403 c 0
EndSplineSet
EndChar
StartChar: ydieresis
Encoding: 255 255 217
Width: 485
GlyphClass: 2
Flags: MW
HStem: -239 58<107 111.5> 396 24<36 40 156.5 161 374 379.5 433.5 439 439 441> 547 97<134.5 164.5 134.5 165.5 329.5 359.5>
VStem: 96 108<580.5 609> 291 108<580.5 609> 327 155<394 420 394 420>
LayerCount: 2
Back
Fore
SplineSet
150 547 m 0x78
 119 547 96 566 96 595 c 0
 96 623 119 644 150 644 c 0
 179 644 204 623 204 595 c 0
 204 566 181 547 150 547 c 0x78
345 547 m 0
 314 547 291 566 291 595 c 0
 291 623 314 644 345 644 c 0
 374 644 399 623 399 595 c 0
 399 566 376 547 345 547 c 0
327 420 m 1xf4
 482 420 l 1
 482 394 l 1
 441 396 l 1
 439 396 l 2
 428 396 420 390 414 377 c 2
 203 -132 l 2
 171 -211 138 -239 85 -239 c 0
 50 -239 22 -222 19 -190 c 1
 19 -155 39 -139 58 -139 c 0
 99 -139 93 -181 121 -181 c 0
 136 -181 154 -168 167 -135 c 2
 225 4 l 1
 52 383 l 2
 48 391 44 396 36 396 c 2
 -13 394 l 1
 -13 420 l 1
 206 420 l 1
 206 394 l 1
 161 396 l 2
 152 396 145 387 149 379 c 2
 271 111 l 1
 384 381 l 2
 387 389 385 396 374 396 c 2
 327 394 l 1
 327 420 l 1xf4
EndSplineSet
EndChar
StartChar: Amacron
Encoding: 256 256 8
Width: 601
GlyphClass: 2
Flags: MW
HStem: 0 27<6 10 10 16.5 6 153 -20 10 583 588> 208 28<155 364 155 376 143 364> 587 20G<282 308 308 308> 706 40<181 420 181 420>
VStem: -20 103 434.92 186.08
LayerCount: 2
Back
Fore
SplineSet
420 746 m 1
 420 706 l 1
 181 706 l 1
 181 746 l 1
 420 746 l 1
588 27 m 1
 621 29 l 1
 621 0 l 1
 356 0 l 1
 356 29 l 1
 405 27 l 1
 445 24 438 59 425 90 c 2
 376 208 l 1
 143 208 l 1
 97 96 l 2
 82 61 72 23 105 26 c 2
 153 29 l 1
 153 0 l 1
 -20 0 l 1
 -20 29 l 1
 6 27 l 1
 10 27 l 2
 23 27 34 33 43 46 c 0
 53 60 63 79 73 104 c 2
 282 607 l 1
 308 607 l 1
 519 102 l 2
 529 77 539 58 548 45 c 0
 557 33 568 27 583 27 c 2
 588 27 l 1
155 236 m 1
 364 236 l 1
 259 488 l 1
 155 236 l 1
EndSplineSet
EndChar
StartChar: abreve
Encoding: 259 259 113
Width: 450
GlyphClass: 2
Flags: MW
HStem: -5 36<164 186> 0 24<388.5 393 388.5 430> 231 27<231 294> 403 27<170.5 233.5> 518 50<193.5 255 193.5 265.5>
VStem: 27 91<87.5 156 87.5 159> 51 74<353 363.5> 90 38<642 642> 294 86<76 76 162 231 231 231 258 289>
LayerCount: 2
Back
Fore
SplineSet
225 518 m 0x7980
 144 518 99 569 90 642 c 1
 128 642 l 1
 137 606 162 568 225 568 c 0
 285 568 314 606 323 642 c 1
 361 642 l 1
 352 569 306 518 225 518 c 0x7980
393 24 m 2
 430 26 l 1
 430 0 l 1
 288 0 l 1
 289 5 292 32 292 37 c 2x7c80
 294 76 l 1
 263 16 217 -5 155 -5 c 0
 72 -5 27 32 27 108 c 0xbc80
 27 210 109 258 294 258 c 1
 294 316 l 2
 294 379 266 403 201 403 c 0
 140 403 125 382 125 361 c 0
 125 345 134 340 134 323 c 0
 134 300 117 289 95 289 c 0
 66 289 51 309 51 336 c 0x7a80
 51 391 113 430 213 430 c 0
 321 430 380 385 380 289 c 2
 380 43 l 2
 380 30 384 24 393 24 c 2
185 31 m 0xbc80
 243 31 290 84 294 162 c 1
 294 231 l 1
 168 231 118 196 118 116 c 0
 118 59 143 31 185 31 c 0xbc80
EndSplineSet
EndChar
StartChar: Aogonek
Encoding: 260 260 9
Width: 601
GlyphClass: 2
Flags: MW
HStem: -159 43<548 553.5> 0 27<6 10 10 16.5 6 153 -20 10 583 588> 208 28<155 364 155 376 143 364> 587 20G<282 308 308 308>
VStem: -20 103 434.92 186.08 458 52<-77 -70.5>
LayerCount: 2
Back
Fore
SplineSet
638 -87 m 1xfa
 650 -99 l 1
 617 -137 575 -159 532 -159 c 0
 495 -159 458 -135 458 -87 c 0
 458 -54 475 -23 508 0 c 1xfa
 356 0 l 1
 356 29 l 1
 405 27 l 1
 445 24 438 59 425 90 c 2
 376 208 l 1
 143 208 l 1
 97 96 l 2
 82 61 72 23 105 26 c 2
 153 29 l 1
 153 0 l 1
 -20 0 l 1
 -20 29 l 1
 6 27 l 1
 10 27 l 2
 23 27 34 33 43 46 c 0
 53 60 63 79 73 104 c 2
 282 607 l 1
 308 607 l 1
 519 102 l 2
 529 77 539 58 548 45 c 0
 557 33 568 27 583 27 c 2
 588 27 l 1
 621 29 l 1
 621 0 l 1xfc
 539 0 l 1
 520 -16 510 -37 510 -62 c 0
 510 -92 528 -116 568 -116 c 0
 592 -116 616 -106 638 -87 c 1xfa
155 236 m 1
 364 236 l 1
 259 488 l 1
 155 236 l 1
EndSplineSet
EndChar
StartChar: aogonek
Encoding: 261 261 118
Width: 450
GlyphClass: 2
Flags: MW
HStem: -163 43<392 397.5> -5 36<164 186> 0 24<388 393 388.5 393 388.5 430> 231 27<231 294> 403 27<170.5 233.5>
VStem: 27 91<87.5 156 87.5 159> 51 74<353 363.5> 294 86<76 76 162 231 231 231 258 289> 302 52<-81 -73.5>
LayerCount: 2
Back
Fore
SplineSet
482 -91 m 1xbd
 494 -103 l 1
 461 -141 419 -163 376 -163 c 0
 339 -163 302 -139 302 -91 c 0
 302 -56 321 -23 358 0 c 1xbc80
 288 0 l 1
 289 5 292 32 292 37 c 2xbd
 294 76 l 1
 263 16 217 -5 155 -5 c 0
 72 -5 27 32 27 108 c 0xdd
 27 210 109 258 294 258 c 1
 294 316 l 2
 294 379 266 403 201 403 c 0
 140 403 125 382 125 361 c 0
 125 345 134 340 134 323 c 0
 134 300 117 289 95 289 c 0
 66 289 51 309 51 336 c 0
 51 391 113 430 213 430 c 0
 321 430 380 385 380 289 c 2
 380 43 l 2
 380 30 384 24 393 24 c 2
 430 26 l 1
 430 0 l 1xbb
 388 0 l 1
 366 -16 354 -39 354 -66 c 0
 354 -96 372 -120 412 -120 c 0xbc80
 436 -120 460 -110 482 -91 c 1xbd
185 31 m 0xdd
 243 31 290 84 294 162 c 1
 294 231 l 1
 168 231 118 196 118 116 c 0
 118 59 143 31 185 31 c 0xdd
EndSplineSet
EndChar
StartChar: Cacute
Encoding: 262 262 15
Width: 607
GlyphClass: 2
Flags: MW
HStem: -10 27<285 383.5> 35 132<534 553 553 559> 433 131<529 553 529 529> 582 25<280 385>
VStem: 45 102<213 381 213 393.5> 529 24<433 433>
AnchorPoint: "Anchor-0" 304 0 basechar 0
LayerCount: 2
Back
Fore
SplineSet
442 800 m 0
 442 793 436 790 432 787 c 2
 269 675 l 2
 265 672 256 666 249 666 c 0
 240 666 236 669 236 674 c 0
 236 679 246 688 254 697 c 2
 349 801 l 2
 366 820 370 826 385 826 c 0
 409 826 442 808 442 800 c 0
45 295 m 0
 45 492 157 607 345 607 c 0x9c
 448 607 478 564 553 564 c 1
 550 541 549 513 549 489 c 0
 549 459 551 435 553 433 c 1xbc
 529 433 l 1
 511 515 430 582 340 582 c 0
 220 582 147 467 147 295 c 0
 147 131 225 17 345 17 c 0x9c
 439 17 515 82 534 167 c 1
 562 167 l 1
 557 128 556 95 556 82 c 0xdc
 556 63 557 47 559 35 c 1
 553 35 l 2
 501 35 427 -10 340 -10 c 0
 158 -10 45 106 45 295 c 0
EndSplineSet
EndChar
StartChar: cacute
Encoding: 263 263 124
Width: 425
GlyphClass: 2
Flags: MW
HStem: -10 27<204 273.5 204 281.5> 403 27<203 254.5>
VStem: 36 93<149.5 274.5> 313 74<342 357 316 369>
AnchorPoint: "Anchor-0" 213 0 basechar 0
LayerCount: 2
Back
Fore
SplineSet
350 627 m 0
 350 620 344 617 340 614 c 2
 177 502 l 2
 173 499 164 493 157 493 c 0
 148 493 144 496 144 501 c 0
 144 506 154 515 162 524 c 2
 257 628 l 2
 274 647 278 653 293 653 c 0
 317 653 350 635 350 627 c 0
232 430 m 0
 315 430 387 386 387 328 c 0
 387 304 375 278 339 278 c 0
 318 278 304 287 304 308 c 0
 304 324 313 333 313 351 c 0
 313 387 274 403 235 403 c 0
 171 403 129 361 129 217 c 0
 129 82 166 17 242 17 c 0
 305 17 366 53 383 124 c 1
 407 106 l 1
 384 36 326 -10 237 -10 c 0
 111 -10 36 72 36 206 c 0
 36 343 115 430 232 430 c 0
EndSplineSet
EndChar
StartChar: Ccaron
Encoding: 268 268 16
Width: 607
GlyphClass: 2
Flags: MW
HStem: -10 27<285 383.5> 35 132<534 553 553 559> 433 131<529 553 529 529> 582 25<280 385>
VStem: 45 102<213 381 213 393.5> 529 24<433 433>
AnchorPoint: "Anchor-0" 304 0 basechar 0
LayerCount: 2
Back
Fore
SplineSet
148 816 m 0
 148 819 149 824 157 824 c 0
 164 824 177 817 185 812 c 2
 304 738 l 1
 423 812 l 2
 431 817 444 824 451 824 c 0
 459 824 460 819 460 816 c 0
 460 807 422 784 381 741 c 2
 358 717 l 1
 334 693 l 2
 318 678 307 668 304 668 c 0
 301 668 290 678 274 693 c 2
 250 717 l 1
 227 741 l 2
 186 784 148 807 148 816 c 0
45 295 m 0
 45 492 157 607 345 607 c 0x9c
 448 607 478 564 553 564 c 1
 550 541 549 513 549 489 c 0
 549 459 551 435 553 433 c 1xbc
 529 433 l 1
 511 515 430 582 340 582 c 0
 220 582 147 467 147 295 c 0
 147 131 225 17 345 17 c 0x9c
 439 17 515 82 534 167 c 1
 562 167 l 1
 557 128 556 95 556 82 c 0xdc
 556 63 557 47 559 35 c 1
 553 35 l 2
 501 35 427 -10 340 -10 c 0
 158 -10 45 106 45 295 c 0
EndSplineSet
EndChar
StartChar: ccaron
Encoding: 269 269 125
Width: 425
GlyphClass: 2
Flags: MW
HStem: -10 27<204 273.5 204 281.5> 403 27<203 254.5>
VStem: 36 93<149.5 274.5> 313 74<342 357 316 369>
AnchorPoint: "Anchor-0" 213 0 basechar 0
LayerCount: 2
Back
Fore
SplineSet
57 649 m 0
 57 652 58 657 66 657 c 0
 73 657 86 650 94 645 c 2
 213 571 l 1
 332 645 l 2
 340 650 353 657 360 657 c 0
 368 657 369 652 369 649 c 0
 369 640 331 617 290 574 c 2
 267 550 l 1
 243 526 l 2
 227 511 216 501 213 501 c 0
 210 501 199 511 183 526 c 2
 159 550 l 1
 136 574 l 2
 95 617 57 640 57 649 c 0
232 430 m 0
 315 430 387 386 387 328 c 0
 387 304 375 278 339 278 c 0
 318 278 304 287 304 308 c 0
 304 324 313 333 313 351 c 0
 313 387 274 403 235 403 c 0
 171 403 129 361 129 217 c 0
 129 82 166 17 242 17 c 0
 305 17 366 53 383 124 c 1
 407 106 l 1
 384 36 326 -10 237 -10 c 0
 111 -10 36 72 36 206 c 0
 36 343 115 430 232 430 c 0
EndSplineSet
EndChar
StartChar: Dcaron
Encoding: 270 270 20
Width: 623
GlyphClass: 2
Flags: MW
HStem: 0 28<213 258 258 287> 569 28<89 95.5 209 213 213 258>
VStem: 108 93<49 548 548 553.5> 486 102<201.5 396>
LayerCount: 2
Back
Fore
SplineSet
156 816 m 0
 156 819 157 824 165 824 c 0
 172 824 185 817 193 812 c 2
 312 738 l 1
 431 812 l 2
 439 817 452 824 459 824 c 0
 467 824 468 819 468 816 c 0
 468 807 430 784 389 741 c 2
 366 717 l 1
 342 693 l 2
 326 678 315 668 312 668 c 0
 309 668 298 678 282 693 c 2
 258 717 l 1
 235 741 l 2
 194 784 156 807 156 816 c 0
50 0 m 1
 50 29 l 1
 93 27 l 2
 104 27 108 37 108 49 c 2
 108 548 l 2
 108 559 102 569 89 569 c 2
 50 567 l 1
 50 597 l 1
 275 597 l 2
 484 597 588 516 588 299 c 0
 588 104 492 0 287 0 c 2
 50 0 l 1
201 41 m 2
 201 32 205 28 213 28 c 2
 258 28 l 2
 423 28 486 101 486 298 c 0
 486 494 423 569 258 569 c 2
 213 569 l 2
 205 569 201 565 201 556 c 2
 201 41 l 2
EndSplineSet
EndChar
StartChar: dcaron
Encoding: 271 271 129
Width: 496
GlyphClass: 2
Flags: MW
HStem: -10 27<186.5 257> 0 24<434.5 439 434.5 476> 403 27<186 256 161.5 263.5> 530 77<488 494.5> 587 20G<488 519.5> 707 23<326 330.5>
VStem: 35 92<138 267 138 281.5> 339 87<348 687 687 692.5> 508 50<502 561>
LayerCount: 2
Back
Fore
SplineSet
35 209 m 0x6f
 35 354 99 430 224 430 c 0
 288 430 326 393 339 348 c 1
 339 687 l 2
 339 698 335 707 326 707 c 2
 280 705 l 1
 280 730 l 1
 426 730 l 1
 426 43 l 2
 426 30 430 24 439 24 c 2
 476 26 l 1
 476 0 l 1
 332 0 l 1
 333 4 334 9 334 16 c 2
 334 38 l 2x6f
 334 51 336 64 336 67 c 1
 321 20 289 -10 225 -10 c 0xaf
 85 -10 35 64 35 209 c 0x6f
468 451 m 1x6f80
 490 467 508 493 508 511 c 0
 508 526 499 530 490 530 c 0x7780
 472 530 460 547 460 564 c 0
 460 585 473 607 503 607 c 0
 536 607 558 577 558 545 c 0
 558 497 522 456 484 438 c 1
 468 451 l 1x6f80
127 209 m 0xaf
 127 67 148 17 225 17 c 0
 308 17 337 71 337 184 c 2
 337 226 l 2
 337 334 303 403 224 403 c 0
 148 403 127 325 127 209 c 0xaf
EndSplineSet
EndChar
StartChar: Dcroat
Encoding: 272 272 21
Width: 631
GlyphClass: 2
Flags: MW
HStem: 0 28<213 258 258 287> 293 36<42 108 42 108 201 391> 569 28<89 95.5 209 213 213 258>
VStem: 108 93<49 293 329 548 548 553.5> 486 102<201.5 396>
LayerCount: 2
Back
Fore
SplineSet
275 597 m 2
 484 597 588 516 588 299 c 0
 588 104 492 0 287 0 c 2
 50 0 l 1
 50 29 l 1
 93 27 l 2
 104 27 108 37 108 49 c 2
 108 293 l 1
 42 293 l 1
 42 329 l 1
 108 329 l 1
 108 548 l 2
 108 559 102 569 89 569 c 2
 50 567 l 1
 50 597 l 1
 275 597 l 2
258 28 m 2
 423 28 486 101 486 298 c 0
 486 494 423 569 258 569 c 2
 213 569 l 2
 205 569 201 565 201 556 c 2
 201 329 l 1
 391 329 l 1
 391 293 l 1
 201 293 l 1
 201 41 l 2
 201 32 205 28 213 28 c 2
 258 28 l 2
EndSplineSet
EndChar
StartChar: dcroat
Encoding: 273 273 130
Width: 496
GlyphClass: 2
Flags: MW
HStem: -10 27<186.5 257> 0 24<434.5 439 434.5 476> 403 27<186 256 161.5 263.5> 558 40<238 339 238 339 426 477> 707 23<326 330.5>
VStem: 35 92<138 267 138 281.5> 339 87<348 558 598 687 687 692.5>
LayerCount: 2
Back
Fore
SplineSet
477 558 m 1x7e
 426 558 l 1
 426 43 l 2
 426 30 430 24 439 24 c 2
 476 26 l 1
 476 0 l 1
 332 0 l 1
 333 4 334 9 334 16 c 2
 334 38 l 2x7e
 334 51 336 64 336 67 c 1
 321 20 289 -10 225 -10 c 0xbe
 85 -10 35 64 35 209 c 0
 35 354 99 430 224 430 c 0
 288 430 326 393 339 348 c 1
 339 558 l 1
 238 558 l 1
 238 598 l 1
 339 598 l 1
 339 687 l 2
 339 698 335 707 326 707 c 2
 280 705 l 1
 280 730 l 1
 426 730 l 1
 426 598 l 1
 477 598 l 1
 477 558 l 1x7e
337 184 m 2
 337 226 l 2
 337 334 303 403 224 403 c 0
 148 403 127 325 127 209 c 0
 127 67 148 17 225 17 c 0xbe
 308 17 337 71 337 184 c 2
EndSplineSet
EndChar
StartChar: Edotaccent
Encoding: 278 278 27
Width: 563
GlyphClass: 2
Flags: MW
HStem: 0 28<213 353 353 398.5> 297 28<201 295 201 295> 406 20G<371 398 398 398> 443 154<462 472 472 476 50 489 462 462> 569 28<88 88 209 213 213 320> 696 97<266.5 296.5 266.5 297.5>
VStem: 108 93<49 297 325 548 548 554> 228 108<729.5 758> 371 27<195 225 394 426> 462 27<443 487.5> 492 27<130.5 179>
AnchorPoint: "Anchor-0" 282 0 basechar 0
LayerCount: 2
Back
Fore
SplineSet
228 744 m 0xefa0
 228 772 251 793 282 793 c 0
 311 793 336 772 336 744 c 0
 336 715 313 696 282 696 c 0
 251 696 228 715 228 744 c 0xefa0
50 0 m 1
 50 30 l 1
 90 27 l 2
 102 27 108 34 108 49 c 2
 108 548 l 2
 108 560 100 570 88 569 c 2
 50 567 l 1
 50 597 l 1
 472 597 l 2
 480 597 486 597 489 598 c 1xeec0
 489 443 l 1
 462 443 l 1xf6c0
 462 532 419 569 320 569 c 2
 213 569 l 2
 205 569 201 564 201 555 c 2
 201 325 l 1
 295 325 l 2
 339 325 371 362 371 426 c 1
 398 426 l 1
 398 195 l 1
 371 195 l 1
 371 255 336 297 295 297 c 2
 201 297 l 1
 201 41 l 2
 201 32 205 28 213 28 c 2xeea0
 353 28 l 2
 444 28 492 82 492 179 c 1
 519 179 l 1
 519 -3 l 1
 504 -1 474 0 431 0 c 2
 50 0 l 1
EndSplineSet
EndChar
StartChar: edotaccent
Encoding: 279 279 136
Width: 449
GlyphClass: 2
Flags: MW
HStem: -10 33<252 275> 212 25<127 309 309 315 127 414 126 309> 403 27<196 270> 547 97<209.5 239.5 209.5 240.5>
VStem: 35 91<151.5 212 151.5 281.5> 171 108<580.5 609> 329 85<212 314.5>
AnchorPoint: "Anchor-0" 225 0 basechar 0
LayerCount: 2
Back
Fore
SplineSet
171 595 m 0
 171 623 194 644 225 644 c 0
 254 644 279 623 279 595 c 0
 279 566 256 547 225 547 c 0
 194 547 171 566 171 595 c 0
236 430 m 0
 341 430 411 360 414 241 c 1
 414 212 l 1
 126 212 l 1
 126 91 168 24 252 23 c 0
 324 23 368 67 387 110 c 1
 410 93 l 1
 383 28 312 -10 238 -10 c 0
 97 -10 35 68 35 209 c 0
 35 354 104 430 236 430 c 0
236 403 m 0
 156 403 127 327 127 237 c 1
 309 237 l 2
 321 237 329 243 329 270 c 0
 329 359 304 403 236 403 c 0
EndSplineSet
EndChar
StartChar: Eogonek
Encoding: 280 280 30
Width: 563
GlyphClass: 2
Flags: MW
HStem: -159 43<454 459.5> 0 28<213 353 353 398.5> 297 28<201 295 201 295> 406 20G<371 398 398 398> 443 154<462 472 472 476 50 489 462 462> 569 28<88 88 209 213 213 320>
VStem: 108 93<49 297 325 548 548 554> 364 52<-77 -70.5> 371 27<195 225 394 426> 462 27<443 487.5> 492 27<130.5 179>
AnchorPoint: "Anchor-0" 282 0 basechar 0
LayerCount: 2
Back
Fore
SplineSet
544 -87 m 1xf6a0
 556 -99 l 1
 523 -137 481 -159 438 -159 c 0
 401 -159 364 -135 364 -87 c 0
 364 -54 381 -23 414 0 c 1
 50 0 l 1
 50 30 l 1
 90 27 l 2
 102 27 108 34 108 49 c 2
 108 548 l 2
 108 560 100 570 88 569 c 2
 50 567 l 1
 50 597 l 1
 472 597 l 2
 480 597 486 597 489 598 c 1xf740
 489 443 l 1
 462 443 l 1xfac0
 462 532 419 569 320 569 c 2
 213 569 l 2
 205 569 201 564 201 555 c 2
 201 325 l 1
 295 325 l 2
 339 325 371 362 371 426 c 1
 398 426 l 1
 398 195 l 1
 371 195 l 1
 371 255 336 297 295 297 c 2xf6a0
 201 297 l 1
 201 41 l 2
 201 32 205 28 213 28 c 2
 353 28 l 2
 444 28 492 82 492 179 c 1
 519 179 l 1
 519 -3 l 1
 506 -1 481 0 445 0 c 1
 426 -16 416 -37 416 -62 c 0
 416 -92 434 -116 474 -116 c 0xf720
 498 -116 522 -106 544 -87 c 1xf6a0
EndSplineSet
EndChar
StartChar: eogonek
Encoding: 281 281 139
Width: 449
GlyphClass: 2
Flags: MW
HStem: -159 43<323 328.5> -10 33<167.5 288> 212 25<127 309 309 315 127 414 126 309> 403 27<196 270>
VStem: 35 91<151.5 212 151.5 281.5> 233 52<-77 -72.5> 329 85<212 314.5>
AnchorPoint: "Anchor-0" 225 0 basechar 0
LayerCount: 2
Back
Fore
SplineSet
413 -87 m 1
 425 -99 l 1
 392 -137 350 -159 307 -159 c 0
 270 -159 233 -135 233 -87 c 0
 233 -58 247 -29 274 -7 c 1
 262 -9 250 -10 238 -10 c 0
 97 -10 35 68 35 209 c 0
 35 354 104 430 236 430 c 0
 341 430 411 360 414 241 c 1
 414 212 l 1
 126 212 l 1
 126 91 168 24 252 23 c 0
 324 23 368 67 387 110 c 1
 410 93 l 1
 395 56 365 28 329 11 c 1
 301 -5 285 -31 285 -62 c 0
 285 -92 303 -116 343 -116 c 0
 367 -116 391 -106 413 -87 c 1
236 403 m 0
 156 403 127 327 127 237 c 1
 309 237 l 2
 321 237 329 243 329 270 c 0
 329 359 304 403 236 403 c 0
EndSplineSet
EndChar
StartChar: Ecaron
Encoding: 282 282 24
Width: 563
GlyphClass: 2
Flags: MW
HStem: 0 28<213 353 353 398.5> 297 28<201 295 201 295> 406 20G<371 398 398 398> 443 154<462 472 472 476 50 489 462 462> 569 28<88 88 209 213 213 320>
VStem: 108 93<49 297 325 548 548 554> 371 27<195 225 394 426> 462 27<443 487.5> 492 27<130.5 179>
AnchorPoint: "Anchor-0" 282 0 basechar 0
LayerCount: 2
Back
Fore
SplineSet
126 816 m 0xee80
 126 819 127 824 135 824 c 0
 142 824 155 817 163 812 c 2
 282 738 l 1
 401 812 l 2
 409 817 422 824 429 824 c 0
 437 824 438 819 438 816 c 0
 438 807 400 784 359 741 c 2
 336 717 l 1
 312 693 l 2
 296 678 285 668 282 668 c 0
 279 668 268 678 252 693 c 2
 228 717 l 1
 205 741 l 2
 164 784 126 807 126 816 c 0xee80
50 0 m 1
 50 30 l 1
 90 27 l 2
 102 27 108 34 108 49 c 2
 108 548 l 2
 108 560 100 570 88 569 c 2
 50 567 l 1
 50 597 l 1
 472 597 l 2
 480 597 486 597 489 598 c 1xef
 489 443 l 1
 462 443 l 1xf7
 462 532 419 569 320 569 c 2
 213 569 l 2
 205 569 201 564 201 555 c 2
 201 325 l 1
 295 325 l 2
 339 325 371 362 371 426 c 1
 398 426 l 1
 398 195 l 1
 371 195 l 1
 371 255 336 297 295 297 c 2
 201 297 l 1
 201 41 l 2
 201 32 205 28 213 28 c 2
 353 28 l 2
 444 28 492 82 492 179 c 1
 519 179 l 1
 519 -3 l 1
 504 -1 474 0 431 0 c 2
 50 0 l 1
EndSplineSet
EndChar
StartChar: ecaron
Encoding: 283 283 133
Width: 449
GlyphClass: 2
Flags: MW
HStem: -10 33<252 275> 212 25<127 309 309 315 127 414 126 309> 403 27<196 270>
VStem: 35 91<151.5 212 151.5 281.5> 329 85<212 314.5>
AnchorPoint: "Anchor-0" 225 0 basechar 0
LayerCount: 2
Back
Fore
SplineSet
69 649 m 0
 69 652 70 657 78 657 c 0
 85 657 98 650 106 645 c 2
 225 571 l 1
 344 645 l 2
 352 650 365 657 372 657 c 0
 380 657 381 652 381 649 c 0
 381 640 343 617 302 574 c 2
 279 550 l 1
 255 526 l 2
 239 511 228 501 225 501 c 0
 222 501 211 511 195 526 c 2
 171 550 l 1
 148 574 l 2
 107 617 69 640 69 649 c 0
236 430 m 0
 341 430 411 360 414 241 c 1
 414 212 l 1
 126 212 l 1
 126 91 168 24 252 23 c 0
 324 23 368 67 387 110 c 1
 410 93 l 1
 383 28 312 -10 238 -10 c 0
 97 -10 35 68 35 209 c 0
 35 354 104 430 236 430 c 0
236 403 m 0
 156 403 127 327 127 237 c 1
 309 237 l 2
 321 237 329 243 329 270 c 0
 329 359 304 403 236 403 c 0
EndSplineSet
EndChar
StartChar: Gbreve
Encoding: 286 286 33
Width: 646
GlyphClass: 2
Flags: MW
HStem: -10 27<283 374.5 283 392.5> 245 27<454 460.5 579 585> 433 131<531 553 531 553 513 553> 582 25<284.5 397.5> 666 50<290.5 352 290.5 362.5>
VStem: 45 102<197.5 392.5 197.5 399> 187 38<790 790> 473 93<63 223 223 224 35 230.5> 514 39<433 489>
AnchorPoint: "Anchor-0" 323 0 basechar 0
LayerCount: 2
Back
Fore
SplineSet
458 790 m 1xdf
 449 717 403 666 322 666 c 0
 241 666 196 717 187 790 c 1
 225 790 l 1
 234 754 259 716 322 716 c 0
 382 716 411 754 420 790 c 1
 458 790 l 1xdf
45 295 m 0
 45 503 154 607 345 607 c 0xde80
 457 607 509 564 553 564 c 1
 550 549 549 526 549 495 c 0
 549 472 552 454 553 433 c 1
 513 433 l 1xfe80
 514 438 514 443 514 448 c 0xde80
 514 530 455 582 340 582 c 0
 229 582 147 490 147 295 c 0
 147 100 221 17 345 17 c 0
 404 17 436 27 473 63 c 1
 473 223 l 2
 473 238 467 245 454 245 c 2
 395 243 l 1
 395 272 l 1
 626 272 l 1
 626 243 l 1
 585 245 l 2
 573 245 566 235 566 224 c 2
 566 35 l 1
 562 36 556 36 553 36 c 0
 509 36 445 -10 340 -10 c 0
 156 -10 45 91 45 295 c 0
EndSplineSet
EndChar
StartChar: gbreve
Encoding: 287 287 142
Width: 460
GlyphClass: 2
Flags: MW
HStem: -245 26<168.5 270.5 168.5 287> 0 65<171 189 189 289> 131 23<213.5 259 195 279> 403 27<196.5 240.5 177 258.5> 424 81<419 439.5 407.5 445> 518 50<198.5 260 198.5 270.5>
VStem: 32 49<-141.5 -84> 48 67<52.5 110.5> 57 89<252 324.5> 95 38<642 642> 309 89<236 313 236 324> 387 66<-121.5 -53.5>
LayerCount: 2
Back
Fore
SplineSet
230 518 m 0xf650
 149 518 104 569 95 642 c 1
 133 642 l 1
 142 606 167 568 230 568 c 0
 290 568 319 606 328 642 c 1
 366 642 l 1
 357 569 311 518 230 518 c 0xf650
390 447 m 0xee10
 380 447 343 433 324 409 c 1
 368 387 398 346 398 280 c 0
 398 192 331 131 227 131 c 0
 200 131 173 136 149 146 c 1
 128 133 115 119 115 102 c 0
 115 77 134 65 171 65 c 2xed20
 304 65 l 2
 399 65 453 29 453 -74 c 0
 453 -178 359 -245 215 -245 c 0
 98 -245 32 -199 32 -112 c 0xf610
 32 -56 65 -22 122 5 c 1
 76 14 48 34 48 71 c 0
 48 99 65 114 95 138 c 2xf510
 122 160 l 1
 84 184 57 224 57 280 c 0
 57 369 127 430 227 430 c 0xf490
 254 430 280 426 303 418 c 1
 337 463 394 505 421 505 c 0
 458 505 467 479 467 461 c 0
 467 445 455 424 435 424 c 0
 403 424 409 447 390 447 c 0xee10
227 154 m 0xf4a0
 291 154 309 191 309 280 c 0
 309 368 290 403 227 403 c 0
 166 403 146 373 146 280 c 0
 146 185 163 154 227 154 c 0xf4a0
289 0 m 2xf610
 189 0 l 2
 129 0 81 -55 81 -110 c 0
 81 -173 123 -219 214 -219 c 0
 327 -219 387 -162 387 -81 c 0
 387 -26 357 0 289 0 c 2xf610
EndSplineSet
EndChar
StartChar: Gcommaaccent
Encoding: 290 290 34
Width: 646
GlyphClass: 2
Flags: MW
HStem: -111 77<308 313> -10 27<283 374.5 283 392.5> 245 27<454 460.5 579 585> 433 131<531 553 531 553 513 553> 582 25<284.5 397.5>
VStem: 45 102<197.5 392.5 197.5 399> 334 50<-149 -80> 473 93<63 223 223 224 35 230.5> 514 39<433 489>
AnchorPoint: "Anchor-0" 323 0 basechar 0
LayerCount: 2
Back
Fore
SplineSet
45 295 m 0x6d
 45 503 154 607 345 607 c 0x6c80
 457 607 509 564 553 564 c 1
 550 549 549 526 549 495 c 0
 549 472 552 454 553 433 c 1
 513 433 l 1x7c80
 514 438 514 443 514 448 c 0x6c80
 514 530 455 582 340 582 c 0
 229 582 147 490 147 295 c 0
 147 100 221 17 345 17 c 0
 404 17 436 27 473 63 c 1
 473 223 l 2
 473 238 467 245 454 245 c 2
 395 243 l 1
 395 272 l 1
 626 272 l 1
 626 243 l 1
 585 245 l 2
 573 245 566 235 566 224 c 2
 566 35 l 1
 562 36 556 36 553 36 c 0
 509 36 445 -10 340 -10 c 0
 156 -10 45 91 45 295 c 0x6d
284 -200 m 1xef
 311 -185 334 -158 334 -140 c 0
 334 -117 320 -111 306 -111 c 0
 288 -111 276 -94 276 -77 c 0
 276 -56 292 -34 324 -34 c 0
 362 -34 384 -64 384 -96 c 0
 384 -149 343 -193 300 -213 c 1
 284 -200 l 1xef
EndSplineSet
EndChar
StartChar: Imacron
Encoding: 298 298 43
Width: 310
GlyphClass: 2
Flags: MW
HStem: 0 27<89 95.5 214.5 221> 568 29 706 40<35 274 35 274>
VStem: 108 93<49 548>
LayerCount: 2
Back
Fore
SplineSet
35 706 m 1
 35 746 l 1
 274 746 l 1
 274 706 l 1
 35 706 l 1
50 0 m 1
 50 29 l 1
 89 27 l 2
 102 27 108 34 108 49 c 2
 108 548 l 2
 108 559 102 570 89 569 c 2
 50 567 l 1
 50 597 l 1
 260 597 l 1
 260 567 l 1
 221 569 l 2
 209 570 201 560 201 548 c 2
 201 49 l 2
 201 34 208 27 221 27 c 2
 260 29 l 1
 260 0 l 1
 50 0 l 1
EndSplineSet
EndChar
StartChar: imacron
Encoding: 299 299 153
Width: 255
GlyphClass: 2
Flags: MW
HStem: 0 24<72 76.5 179.5 184> 395 25 567 40<8 247 8 247>
VStem: 85 86<43 376 376 381.5>
LayerCount: 2
Back
Fore
SplineSet
8 567 m 1
 8 607 l 1
 247 607 l 1
 247 567 l 1
 8 567 l 1
171 420 m 1
 171 43 l 2
 171 30 175 24 184 24 c 2
 220 26 l 1
 220 0 l 1
 35 0 l 1
 35 26 l 1
 72 24 l 2
 81 24 85 30 85 43 c 2
 85 376 l 2
 85 387 81 394 73 396 c 1
 36 394 l 1
 36 420 l 1
 171 420 l 1
EndSplineSet
EndChar
StartChar: Iogonek
Encoding: 302 302 44
Width: 310
GlyphClass: 2
Flags: MW
HStem: -159 43<206 211.5> 0 27<89 95.5 89 166 214.5 221> 568 29
VStem: 108 93<49 548> 116 52<-77 -70.5>
LayerCount: 2
Back
Fore
SplineSet
296 -87 m 1xf0
 308 -99 l 1
 275 -137 233 -159 190 -159 c 0
 153 -159 116 -135 116 -87 c 0
 116 -54 133 -23 166 0 c 1
 50 0 l 1
 50 29 l 1xe8
 89 27 l 2
 102 27 108 34 108 49 c 2
 108 548 l 2
 108 559 102 570 89 569 c 2
 50 567 l 1
 50 597 l 1
 260 597 l 1
 260 567 l 1
 221 569 l 2
 209 570 201 560 201 548 c 2
 201 49 l 2
 201 34 208 27 221 27 c 2
 260 29 l 1
 260 0 l 1xf0
 197 0 l 1
 178 -16 168 -37 168 -62 c 0
 168 -92 186 -116 226 -116 c 0xe8
 250 -116 274 -106 296 -87 c 1xf0
EndSplineSet
EndChar
StartChar: iogonek
Encoding: 303 303 154
Width: 255
GlyphClass: 2
Flags: MW
HStem: -160 43<179 184.5> 0 24<72 76.5 72 141 179.5 184> 395 25 547 97<112.5 142.5 112.5 143.5>
VStem: 74 108<580.5 609> 85 86<43 376 376 381.5> 89 52<-78 -71.5>
LayerCount: 2
Back
Fore
SplineSet
128 547 m 0xf8
 97 547 74 566 74 595 c 0
 74 623 97 644 128 644 c 0
 157 644 182 623 182 595 c 0
 182 566 159 547 128 547 c 0xf8
269 -88 m 1
 281 -100 l 1
 248 -138 206 -160 163 -160 c 0
 126 -160 89 -136 89 -88 c 0
 89 -55 106 -23 141 0 c 1
 35 0 l 1
 35 26 l 1xf2
 72 24 l 2
 81 24 85 30 85 43 c 2
 85 376 l 2
 85 387 81 394 73 396 c 1
 36 394 l 1
 36 420 l 1
 171 420 l 1
 171 43 l 2
 171 30 175 24 184 24 c 2
 220 26 l 1
 220 0 l 1xf4
 171 0 l 1
 152 -16 141 -38 141 -63 c 0
 141 -93 159 -117 199 -117 c 0xf2
 223 -117 247 -107 269 -88 c 1
EndSplineSet
EndChar
StartChar: Idotaccent
Encoding: 304 304 41
Width: 310
GlyphClass: 2
Flags: MW
HStem: 0 27<89 95.5 214.5 221> 568 29 696 97<139.5 169.5 139.5 170.5>
VStem: 101 108<729.5 758> 108 93<49 548>
LayerCount: 2
Back
Fore
SplineSet
101 744 m 0xf0
 101 772 124 793 155 793 c 0
 184 793 209 772 209 744 c 0
 209 715 186 696 155 696 c 0
 124 696 101 715 101 744 c 0xf0
50 0 m 1
 50 29 l 1
 89 27 l 2
 102 27 108 34 108 49 c 2
 108 548 l 2
 108 559 102 570 89 569 c 2
 50 567 l 1
 50 597 l 1
 260 597 l 1
 260 567 l 1
 221 569 l 2
 209 570 201 560 201 548 c 2
 201 49 l 2
 201 34 208 27 221 27 c 2
 260 29 l 1
 260 0 l 1xc8
 50 0 l 1
EndSplineSet
EndChar
StartChar: IJ
Encoding: 306 306 37
Width: 761
GlyphClass: 2
Flags: MW
HStem: -10 26<463 507 433.5 545.5> 0 27<89 95.5 214.5 221> 568 29
VStem: 108 93<49 548> 334 36<142.5 172 142.5 172 142.5 172> 565 93<179 548 548 549>
LayerCount: 2
Back
Fore
SplineSet
50 0 m 1x7c
 50 29 l 1
 89 27 l 2
 102 27 108 34 108 49 c 2
 108 548 l 2
 108 559 102 570 89 569 c 2
 50 567 l 1
 50 597 l 1
 260 597 l 1
 260 567 l 1
 221 569 l 2
 209 570 201 560 201 548 c 2
 201 49 l 2
 201 34 208 27 221 27 c 2
 260 29 l 1
 260 0 l 1
 50 0 l 1x7c
334 -1 m 1
 334 172 l 1
 370 172 l 1
 370 113 392 16 475 16 c 0
 539 16 565 59 565 179 c 2
 565 548 l 2
 565 560 557 570 546 569 c 2
 477 567 l 1
 477 597 l 1
 716 597 l 1
 716 567 l 1
 678 569 l 2
 665 570 658 560 658 549 c 2
 658 179 l 2
 658 51 600 -10 491 -10 c 0xbc
 435 -10 397 5 369 5 c 0
 358 5 341 6 334 -1 c 1
EndSplineSet
EndChar
StartChar: ij
Encoding: 307 307 152
Width: 506
GlyphClass: 2
Flags: MW
HStem: -243 27<279.5 306.5 279.5 329.5> 0 24<72 76.5 179.5 184> 396 24<73 73 327 331.5> 548 95<105.5 137 362 393.5>
VStem: 67 109<580.5 610.5> 85 86<43 376 376 381.5> 182 76<-193.5 -186.5 -199 -162.5> 324 109<580.5 610.5> 340 86<-59 -4 -4 376 376 381.5>
LayerCount: 2
Back
Fore
SplineSet
121 643 m 0xf9
 153 643 176 625 176 596 c 0
 176 565 153 548 121 548 c 0
 90 548 67 565 67 596 c 0
 67 625 90 643 121 643 c 0xf9
378 643 m 0
 409 643 433 625 433 596 c 0
 433 565 409 548 378 548 c 0
 346 548 324 565 324 596 c 0
 324 625 346 643 378 643 c 0
171 420 m 1xe480
 171 43 l 2
 171 30 175 24 184 24 c 2
 220 26 l 1
 220 0 l 1
 35 0 l 1
 35 26 l 1
 72 24 l 2
 81 24 85 30 85 43 c 2
 85 376 l 2
 85 387 81 394 73 396 c 1
 36 394 l 1
 36 420 l 1
 171 420 l 1xe480
426 420 m 1
 426 -4 l 2
 426 -169 376 -243 283 -243 c 0
 219 -243 182 -211 182 -176 c 0
 182 -149 201 -132 229 -132 c 0
 239 -132 264 -136 264 -160 c 0
 264 -170 258 -182 258 -191 c 0xe680
 258 -207 270 -216 289 -216 c 0
 324 -216 342 -188 342 -133 c 0
 342 -128 340 -85 340 -59 c 2
 340 376 l 2
 340 387 336 396 327 396 c 2
 286 394 l 1
 286 420 l 1
 426 420 l 1
EndSplineSet
EndChar
StartChar: Kcommaaccent
Encoding: 310 310 47
Width: 617
GlyphClass: 2
Flags: MW
HStem: -111 77<294 299> 0 27<89 95.5 214.5 221 572.5 582.5> 569 28<89 89 214.5 221 423 426.5 525 525>
VStem: 108 93<49 234 278 547> 320 50<-149 -80> 381 178<567 597 567 597> 445.1 165.9
AnchorPoint: "Anchor-0" 309 0 basechar 0
LayerCount: 2
Back
Fore
SplineSet
577 27 m 0x74
 588 27 605 29 611 30 c 1
 611 0 l 1
 374 0 l 1
 374 30 l 1
 425 27 l 2
 442 26 452 33 440 52 c 1x72
 257 299 l 1
 201 234 l 1
 201 49 l 2
 201 34 208 27 221 27 c 2
 270 29 l 1
 270 0 l 1
 50 0 l 1
 50 29 l 1
 89 27 l 2
 102 27 108 34 108 49 c 2
 108 548 l 2
 108 560 102 570 89 569 c 2
 50 567 l 1
 50 597 l 1
 270 597 l 1
 270 567 l 1
 221 569 l 2
 208 569 201 562 201 547 c 2
 201 278 l 1
 416 533 l 2
 432 552 433 557 433 560 c 0
 433 566 430 569 423 569 c 2
 381 567 l 1
 381 597 l 1
 559 597 l 1
 559 567 l 1
 525 569 l 2
 505 570 490 565 467 540 c 2
 314 365 l 1
 553 41 l 2
 560 32 568 27 577 27 c 0x74
310 -34 m 0xfc
 348 -34 370 -64 370 -96 c 0
 370 -149 329 -193 286 -213 c 1
 270 -200 l 1
 297 -185 320 -158 320 -140 c 0
 320 -117 306 -111 292 -111 c 0
 274 -111 262 -94 262 -77 c 0
 262 -56 278 -34 310 -34 c 0xfc
EndSplineSet
EndChar
StartChar: Lacute
Encoding: 313 313 49
Width: 514
GlyphClass: 2
Flags: MW
HStem: 0 28<213 326 326 368> 568 29
VStem: 108 93<49 548> 466 26<124.5 171>
AnchorPoint: "Anchor-0" 257 0 basechar 0
LayerCount: 2
Back
Fore
SplineSet
315 800 m 0
 315 793 309 790 305 787 c 2
 142 675 l 2
 138 672 129 666 122 666 c 0
 113 666 109 669 109 674 c 0
 109 679 119 688 127 697 c 2
 222 801 l 2
 239 820 243 826 258 826 c 0
 282 826 315 808 315 800 c 0
50 0 m 1
 50 30 l 1
 93 27 l 2
 104 27 108 37 108 49 c 2
 108 548 l 2
 108 559 100 570 89 569 c 2
 50 567 l 1
 50 597 l 1
 270 597 l 1
 270 567 l 1
 221 569 l 2
 209 570 201 560 201 548 c 2
 201 41 l 2
 201 32 205 28 213 28 c 2
 326 28 l 2
 418 28 466 78 466 171 c 1
 492 171 l 1
 492 -3 l 1
 480 -1 439 0 368 0 c 2
 50 0 l 1
EndSplineSet
EndChar
StartChar: lacute
Encoding: 314 314 160
Width: 255
GlyphClass: 2
Flags: MW
HStem: 0 24<72 72 179.5 184> 707 24
VStem: 85 86<43 687 687 692.5>
AnchorPoint: "Anchor-0" 128 0 basechar 0
LayerCount: 2
Back
Fore
SplineSet
261 845 m 0
 261 840 257 837 251 834 c 2
 90 762 l 2
 85 760 80 758 73 758 c 0
 66 758 59 761 59 767 c 0
 59 771 63 777 72 783 c 2
 186 866 l 2
 199 876 206 878 213 878 c 0
 231 878 261 855 261 845 c 0
35 0 m 1
 35 26 l 1
 72 24 l 1
 81 26 85 32 85 43 c 2
 85 687 l 2
 85 698 81 705 73 708 c 1
 36 706 l 1
 36 731 l 1
 171 731 l 1
 171 43 l 2
 171 30 175 24 184 24 c 2
 220 26 l 1
 220 0 l 1
 35 0 l 1
EndSplineSet
EndChar
StartChar: Lcommaaccent
Encoding: 315 315 51
Width: 514
GlyphClass: 2
Flags: MW
HStem: -111 77<242 247> 0 28<213 326 326 368> 568 29
VStem: 108 93<49 548> 268 50<-149 -80> 466 26<124.5 171>
AnchorPoint: "Anchor-0" 257 0 basechar 0
LayerCount: 2
Back
Fore
SplineSet
50 0 m 1
 50 30 l 1
 93 27 l 2
 104 27 108 37 108 49 c 2
 108 548 l 2
 108 559 100 570 89 569 c 2
 50 567 l 1
 50 597 l 1
 270 597 l 1
 270 567 l 1
 221 569 l 2
 209 570 201 560 201 548 c 2
 201 41 l 2
 201 32 205 28 213 28 c 2
 326 28 l 2
 418 28 466 78 466 171 c 1
 492 171 l 1
 492 -3 l 1
 480 -1 439 0 368 0 c 2
 50 0 l 1
218 -200 m 1
 245 -185 268 -158 268 -140 c 0
 268 -117 254 -111 240 -111 c 0
 222 -111 210 -94 210 -77 c 0
 210 -56 226 -34 258 -34 c 0
 296 -34 318 -64 318 -96 c 0
 318 -149 277 -193 234 -213 c 1
 218 -200 l 1
EndSplineSet
EndChar
StartChar: lcommaaccent
Encoding: 316 316 162
Width: 255
GlyphClass: 2
Flags: MW
HStem: -111 77<113 118> 0 24<72 72 179.5 184> 707 24
VStem: 85 86<43 687 687 692.5> 139 50<-149 -80>
AnchorPoint: "Anchor-0" 128 0 basechar 0
LayerCount: 2
Back
Fore
SplineSet
35 0 m 1x70
 35 26 l 1
 72 24 l 1
 81 26 85 32 85 43 c 2
 85 687 l 2
 85 698 81 705 73 708 c 1
 36 706 l 1
 36 731 l 1
 171 731 l 1
 171 43 l 2
 171 30 175 24 184 24 c 2
 220 26 l 1
 220 0 l 1
 35 0 l 1x70
89 -200 m 1xe8
 116 -185 139 -158 139 -140 c 0
 139 -117 125 -111 111 -111 c 0
 93 -111 81 -94 81 -77 c 0
 81 -56 97 -34 129 -34 c 0
 167 -34 189 -64 189 -96 c 0
 189 -149 148 -193 105 -213 c 1
 89 -200 l 1xe8
EndSplineSet
EndChar
StartChar: Lcaron
Encoding: 317 317 50
Width: 514
GlyphClass: 2
Flags: MW
HStem: 0 28<213 326 326 368> 530 77<418 424.5> 568 29 587 20G<418 449.5>
VStem: 108 93<49 548> 438 50<502 561> 466 26<124.5 171>
AnchorPoint: "Anchor-0" 257 0 basechar 0
LayerCount: 2
Back
Fore
SplineSet
398 451 m 1x9c
 420 467 438 493 438 511 c 0
 438 526 429 530 420 530 c 0xcc
 402 530 390 547 390 564 c 0
 390 585 403 607 433 607 c 0
 466 607 488 577 488 545 c 0
 488 497 452 456 414 438 c 1
 398 451 l 1x9c
50 0 m 1xaa
 50 30 l 1
 93 27 l 2
 104 27 108 37 108 49 c 2
 108 548 l 2
 108 559 100 570 89 569 c 2
 50 567 l 1
 50 597 l 1
 270 597 l 1
 270 567 l 1
 221 569 l 2
 209 570 201 560 201 548 c 2
 201 41 l 2
 201 32 205 28 213 28 c 2
 326 28 l 2
 418 28 466 78 466 171 c 1
 492 171 l 1
 492 -3 l 1
 480 -1 439 0 368 0 c 2
 50 0 l 1xaa
EndSplineSet
EndChar
StartChar: lcaron
Encoding: 318 318 161
Width: 255
GlyphClass: 2
Flags: MW
HStem: 0 24<72 72 179.5 184> 530 77<228 234.5> 587 20G<228 259.5> 707 24
VStem: 85 86<43 687 687 692.5> 248 50<502 561>
AnchorPoint: "Anchor-0" 128 0 basechar 0
LayerCount: 2
Back
Fore
SplineSet
35 0 m 1xbc
 35 26 l 1
 72 24 l 1
 81 26 85 32 85 43 c 2
 85 687 l 2
 85 698 81 705 73 708 c 1
 36 706 l 1
 36 731 l 1
 171 731 l 1
 171 43 l 2
 171 30 175 24 184 24 c 2
 220 26 l 1
 220 0 l 1
 35 0 l 1xbc
208 451 m 1
 230 467 248 493 248 511 c 0
 248 526 239 530 230 530 c 0xdc
 212 530 200 547 200 564 c 0
 200 585 213 607 243 607 c 0
 276 607 298 577 298 545 c 0
 298 497 262 456 224 438 c 1
 208 451 l 1
EndSplineSet
EndChar
StartChar: Ldot
Encoding: 319 319 52
Width: 514
GlyphClass: 2
Flags: MW
HStem: 0 28<213 326 326 368> 277 115<386.5 423.5> 568 29
VStem: 108 93<49 548> 340 130<316.5 351.5> 466 26<124.5 171>
AnchorPoint: "Anchor-0" 257 0 basechar 0
LayerCount: 2
Back
Fore
SplineSet
50 0 m 1xb4
 50 30 l 1
 93 27 l 2
 104 27 108 37 108 49 c 2
 108 548 l 2
 108 559 100 570 89 569 c 2
 50 567 l 1
 50 597 l 1
 270 597 l 1
 270 567 l 1
 221 569 l 2
 209 570 201 560 201 548 c 2
 201 41 l 2
 201 32 205 28 213 28 c 2
 326 28 l 2
 418 28 466 78 466 171 c 1
 492 171 l 1
 492 -3 l 1
 480 -1 439 0 368 0 c 2
 50 0 l 1xb4
340 334 m 0xf8
 340 369 368 392 405 392 c 0
 442 392 470 370 470 334 c 0
 470 299 442 277 405 277 c 0
 368 277 340 299 340 334 c 0xf8
EndSplineSet
Ligature2: "Ligature Substitution lookup 16 subtable" L periodcentered
EndChar
StartChar: ldot
Encoding: 320 320 163
Width: 255
GlyphClass: 2
Flags: MW
HStem: 0 24<72 72 179.5 184> 306 97<240.5 270.5 240.5 271.5> 707 24
VStem: 85 86<43 687 687 692.5> 202 108<339.5 368>
AnchorPoint: "Anchor-0" 128 0 basechar 0
LayerCount: 2
Back
Fore
SplineSet
35 0 m 1
 35 26 l 1
 72 24 l 1
 81 26 85 32 85 43 c 2
 85 687 l 2
 85 698 81 705 73 708 c 1
 36 706 l 1
 36 731 l 1
 171 731 l 1
 171 43 l 2
 171 30 175 24 184 24 c 2
 220 26 l 1
 220 0 l 1
 35 0 l 1
202 354 m 0
 202 382 225 403 256 403 c 0
 285 403 310 382 310 354 c 0
 310 325 287 306 256 306 c 0
 225 306 202 325 202 354 c 0
EndSplineSet
Ligature2: "Ligature Substitution lookup 16 subtable" l periodcentered
EndChar
StartChar: lslash
Encoding: 322 322 164
Width: 255
GlyphClass: 2
Flags: MW
HStem: 0 24<72 72 179.5 184> 707 24
VStem: 85 86<43 351 351 351 396 415 461 687 687 692.5>
AnchorPoint: "Anchor-0" 128 0 basechar 0
LayerCount: 2
Back
Fore
SplineSet
231 465 m 1
 171 415 l 1
 171 43 l 2
 171 30 175 24 184 24 c 2
 220 26 l 1
 220 0 l 1
 35 0 l 1
 35 26 l 1
 72 24 l 1
 81 26 85 32 85 43 c 2
 85 351 l 1
 25 301 l 1
 25 346 l 1
 85 396 l 1
 85 687 l 2
 85 698 81 705 73 708 c 1
 36 706 l 1
 36 731 l 1
 171 731 l 1
 171 461 l 1
 231 511 l 1
 231 465 l 1
EndSplineSet
EndChar
StartChar: Nacute
Encoding: 323 323 56
Width: 662
GlyphClass: 2
Flags: MW
HStem: -6 21G<529 559 529 529> 0 27<84 90.5 150.5 157> 569 28<84 84 505 505 505 508 570.5 576 576 578>
VStem: 104 34<49 525> 525 34<155 548 -6 549 -6 555.5>
AnchorPoint: "Anchor-0" 331 0 basechar 0
LayerCount: 2
Back
Fore
SplineSet
276 666 m 0x78
 267 666 263 669 263 674 c 0
 263 679 273 688 281 697 c 2
 376 801 l 2
 393 820 397 826 412 826 c 0
 436 826 469 808 469 800 c 0
 469 793 463 790 459 787 c 2
 296 675 l 2
 292 672 283 666 276 666 c 0x78
456 597 m 1
 617 597 l 1
 617 567 l 1
 578 569 l 1
 576 569 l 2
 565 569 559 562 559 548 c 2
 559 -6 l 1
 529 -6 l 1xb8
 138 525 l 1
 138 49 l 2
 138 34 144 27 157 27 c 2
 206 29 l 1
 206 0 l 1
 45 0 l 1
 45 29 l 1
 84 27 l 2
 97 27 104 34 104 49 c 2
 104 548 l 2
 104 559 97 570 84 569 c 2
 45 567 l 1
 45 597 l 1
 200 597 l 1
 525 155 l 1
 525 549 l 2
 525 562 519 569 508 569 c 2
 505 569 l 1
 456 567 l 1
 456 597 l 1
EndSplineSet
EndChar
StartChar: nacute
Encoding: 324 324 167
Width: 525
GlyphClass: 2
Flags: MW
HStem: 0 24<72 72 179.5 184 463.5 468> 395 25 398 32<286.5 332.5>
VStem: 85 86<43 219 330 376 376 381.5> 369 86<43 270 270 288>
AnchorPoint: "Anchor-0" 263 0 basechar 0
LayerCount: 2
Back
Fore
SplineSet
207 493 m 0xd8
 198 493 194 496 194 501 c 0
 194 506 204 515 212 524 c 2
 307 628 l 2
 324 647 328 653 343 653 c 0
 367 653 400 635 400 627 c 0
 400 620 394 617 390 614 c 2
 227 502 l 2
 223 499 214 493 207 493 c 0xd8
468 24 m 2
 505 26 l 1
 505 0 l 1
 310 0 l 1
 310 26 l 1
 356 24 l 1
 365 26 369 32 369 43 c 2
 369 270 l 2
 369 355 363 398 302 398 c 0xb8
 225 398 175 327 171 219 c 1
 171 43 l 2
 171 30 175 24 184 24 c 2
 230 26 l 1
 230 0 l 1
 35 0 l 1
 35 26 l 1
 72 24 l 1
 81 26 85 32 85 43 c 2
 85 376 l 2
 85 387 81 394 72 396 c 1
 35 394 l 1
 35 420 l 1
 176 420 l 1
 173 411 171 400 171 385 c 2xd8
 171 330 l 1
 198 391 252 430 321 430 c 0xb8
 416 430 455 388 455 288 c 2
 455 43 l 2
 455 30 459 24 468 24 c 2
EndSplineSet
EndChar
StartChar: Ncommaaccent
Encoding: 325 325 58
Width: 662
GlyphClass: 2
Flags: MW
HStem: -111 77<316 321> -6 21G<529 559 529 529> 0 27<84 90.5 150.5 157> 569 28<84 84 505 505 505 508 570.5 576 576 578>
VStem: 104 34<49 525> 342 50<-149 -80> 525 34<155 548 -6 549 -6 555.5>
AnchorPoint: "Anchor-0" 331 0 basechar 0
LayerCount: 2
Back
Fore
SplineSet
456 597 m 1x3a
 617 597 l 1
 617 567 l 1
 578 569 l 1
 576 569 l 2
 565 569 559 562 559 548 c 2
 559 -6 l 1
 529 -6 l 1x5a
 138 525 l 1
 138 49 l 2
 138 34 144 27 157 27 c 2
 206 29 l 1
 206 0 l 1
 45 0 l 1
 45 29 l 1
 84 27 l 2
 97 27 104 34 104 49 c 2
 104 548 l 2
 104 559 97 570 84 569 c 2
 45 567 l 1
 45 597 l 1
 200 597 l 1
 525 155 l 1
 525 549 l 2
 525 562 519 569 508 569 c 2
 505 569 l 1
 456 567 l 1
 456 597 l 1x3a
332 -34 m 0xbe
 370 -34 392 -64 392 -96 c 0
 392 -149 351 -193 308 -213 c 1
 292 -200 l 1
 319 -185 342 -158 342 -140 c 0
 342 -117 328 -111 314 -111 c 0
 296 -111 284 -94 284 -77 c 0
 284 -56 300 -34 332 -34 c 0xbe
EndSplineSet
EndChar
StartChar: Ncaron
Encoding: 327 327 57
Width: 662
GlyphClass: 2
Flags: MW
HStem: -6 21G<529 559 529 529> 0 27<84 90.5 150.5 157> 569 28<84 84 505 505 505 508 570.5 576 576 578>
VStem: 104 34<49 525> 525 34<155 548 -6 549 -6 555.5>
AnchorPoint: "Anchor-0" 331 0 basechar 0
LayerCount: 2
Back
Fore
SplineSet
254 741 m 2x78
 213 784 175 807 175 816 c 0
 175 819 176 824 184 824 c 0
 191 824 204 817 212 812 c 2
 331 738 l 1
 450 812 l 2
 458 817 471 824 478 824 c 0
 486 824 487 819 487 816 c 0
 487 807 449 784 408 741 c 2
 385 717 l 1
 361 693 l 2
 345 678 334 668 331 668 c 0
 328 668 317 678 301 693 c 2
 277 717 l 1
 254 741 l 2x78
456 597 m 1
 617 597 l 1
 617 567 l 1
 578 569 l 1
 576 569 l 2
 565 569 559 562 559 548 c 2
 559 -6 l 1
 529 -6 l 1xb8
 138 525 l 1
 138 49 l 2
 138 34 144 27 157 27 c 2
 206 29 l 1
 206 0 l 1
 45 0 l 1
 45 29 l 1
 84 27 l 2
 97 27 104 34 104 49 c 2
 104 548 l 2
 104 559 97 570 84 569 c 2
 45 567 l 1
 45 597 l 1
 200 597 l 1
 525 155 l 1
 525 549 l 2
 525 562 519 569 508 569 c 2
 505 569 l 1
 456 567 l 1
 456 597 l 1
EndSplineSet
EndChar
StartChar: Omacron
Encoding: 332 332 66
Width: 670
GlyphClass: 2
Flags: MW
HStem: -10 27<271 399 271 426.5> 580 27<271 399> 706 40<215 454 215 454>
VStem: 45 102<201 399> 523 102<201 396 201 400>
LayerCount: 2
Back
Fore
SplineSet
215 706 m 1
 215 746 l 1
 454 746 l 1
 454 706 l 1
 215 706 l 1
45 299 m 0
 45 499 154 607 335 607 c 0
 522 607 625 493 625 299 c 0
 625 103 518 -10 335 -10 c 0
 152 -10 45 103 45 299 c 0
147 299 m 0
 147 96 207 17 335 17 c 0
 463 17 523 96 523 299 c 0
 523 501 463 580 335 580 c 0
 207 580 147 501 147 299 c 0
EndSplineSet
EndChar
StartChar: omacron
Encoding: 333 333 177
Width: 472
GlyphClass: 2
Flags: MW
HStem: -10 27<196 276 196 303.5> 403 27<196 276> 567 40<116 355 116 355>
VStem: 35 91<143.5 276.5 142.5 277> 346 91<143.5 276.5>
LayerCount: 2
Back
Fore
SplineSet
116 567 m 1
 116 607 l 1
 355 607 l 1
 355 567 l 1
 116 567 l 1
35 211 m 0
 35 343 101 430 236 430 c 0
 371 430 437 343 437 211 c 0
 437 76 371 -10 236 -10 c 0
 101 -10 35 76 35 211 c 0
126 209 m 0
 126 76 156 17 236 17 c 0
 316 17 346 76 346 209 c 0
 346 344 316 403 236 403 c 0
 156 403 126 344 126 209 c 0
EndSplineSet
EndChar
StartChar: Ohungarumlaut
Encoding: 336 336 65
Width: 670
GlyphClass: 2
Flags: MW
HStem: -10 27<271 399 271 426.5> 580 27<271 399>
VStem: 45 102<201 399> 523 102<201 396 201 400>
LayerCount: 2
Back
Fore
SplineSet
217 683 m 0
 281 792 292 811 297 817 c 0
 303 825 305 826 310 826 c 0
 317 826 345 817 353 813 c 0
 358 811 362 807 362 801 c 0
 362 798 360 794 356 789 c 0
 348 780 333 765 238 672 c 0
 233 667 228 666 223 666 c 0
 217 666 214 670 214 674 c 0
 214 676 215 679 217 683 c 0
337 683 m 0
 401 792 412 811 417 817 c 0
 423 825 425 826 430 826 c 0
 437 826 465 817 473 813 c 0
 478 811 482 807 482 801 c 0
 482 798 480 794 476 789 c 0
 468 780 453 765 358 672 c 0
 353 667 348 666 343 666 c 0
 337 666 334 670 334 674 c 0
 334 676 335 679 337 683 c 0
45 299 m 0
 45 499 154 607 335 607 c 0
 522 607 625 493 625 299 c 0
 625 103 518 -10 335 -10 c 0
 152 -10 45 103 45 299 c 0
147 299 m 0
 147 96 207 17 335 17 c 0
 463 17 523 96 523 299 c 0
 523 501 463 580 335 580 c 0
 207 580 147 501 147 299 c 0
EndSplineSet
EndChar
StartChar: ohungarumlaut
Encoding: 337 337 176
Width: 472
GlyphClass: 2
Flags: MW
HStem: -10 27<196 276 196 303.5> 403 27<196 276>
VStem: 35 91<143.5 276.5 142.5 277> 346 91<143.5 276.5>
LayerCount: 2
Back
Fore
SplineSet
125 510 m 0
 189 619 200 638 205 644 c 0
 211 652 213 653 218 653 c 0
 225 653 253 644 261 640 c 0
 266 638 270 634 270 628 c 0
 270 625 268 621 264 616 c 0
 256 607 241 592 146 499 c 0
 141 494 136 493 131 493 c 0
 125 493 122 497 122 501 c 0
 122 503 123 506 125 510 c 0
245 510 m 0
 309 619 320 638 325 644 c 0
 331 652 333 653 338 653 c 0
 345 653 373 644 381 640 c 0
 386 638 390 634 390 628 c 0
 390 625 388 621 384 616 c 0
 376 607 361 592 266 499 c 0
 261 494 256 493 251 493 c 0
 245 493 242 497 242 501 c 0
 242 503 243 506 245 510 c 0
35 211 m 0
 35 343 101 430 236 430 c 0
 371 430 437 343 437 211 c 0
 437 76 371 -10 236 -10 c 0
 101 -10 35 76 35 211 c 0
126 209 m 0
 126 76 156 17 236 17 c 0
 316 17 346 76 346 209 c 0
 346 344 316 403 236 403 c 0
 156 403 126 344 126 209 c 0
EndSplineSet
EndChar
StartChar: OE
Encoding: 338 338 69
Width: 861
GlyphClass: 2
Flags: MW
HStem: -10 28<266.5 340.5> 0 27<535 650 650 696> 297 27<522 598 522 598> 406 20G<675 702 702 702> 443 154<771 798 771 771> 569 28<530.5 535 535 629> 581 26<267 362.5>
VStem: 45 97<197.5 392.5> 434 88<90 297 324 526 526 541.5> 675 27<195 225 394 426> 771 27<443 488.5> 790 27<130.5 179>
LayerCount: 2
Back
Fore
SplineSet
45 292 m 0xb3d0
 45 493 137 607 342 607 c 0
 395 607 424 597 471 597 c 2
 798 597 l 1x75e0
 798 443 l 1
 771 443 l 1x79e0
 771 534 728 569 629 569 c 2
 535 569 l 2
 526 569 522 564 522 555 c 2
 522 324 l 1
 598 324 l 2
 641 324 675 362 675 426 c 1
 702 426 l 1
 702 195 l 1
 675 195 l 1
 675 255 639 297 598 297 c 2
 522 297 l 1
 522 40 l 2
 522 31 526 27 535 27 c 2
 650 27 l 2
 742 27 790 82 790 179 c 1
 817 179 l 1
 817 -3 l 1
 801 -1 772 0 729 0 c 2
 479 0 l 2x75d0
 407 0 342 -10 339 -10 c 0
 150 -10 45 97 45 292 c 0xb3d0
142 296 m 0
 142 99 198 18 335 18 c 0
 415 18 434 56 434 90 c 2
 434 526 l 2
 434 557 390 581 335 581 c 0
 199 581 142 496 142 296 c 0
EndSplineSet
Position2: "'cpsp' Capital Spacing lookup 0 per glyph data 2" dx=5 dy=0 dh=10 dv=0
EndChar
StartChar: oe
Encoding: 339 339 180
Width: 761
GlyphClass: 2
Flags: MW
HStem: -10 27<188 271> -10 33<524 596.5> 217 25<432 629 629 633.5 432 726 432 629> 403 27<191.5 266.5 157.5 271 510.5 580>
VStem: 35 91<152 264> 345 87<155.5 217 242 281.5> 641 85<217 309>
LayerCount: 2
Back
Fore
SplineSet
551 430 m 0xbe
 660 430 726 359 726 239 c 2
 726 217 l 1
 432 217 l 1
 432 94 480 23 568 23 c 0
 627 23 687 70 700 110 c 1x7e
 723 93 l 1
 700 33 637 -10 556 -10 c 0
 485 -10 434 11 391 64 c 1
 351 8 314 -10 228 -10 c 0
 105 -10 35 79 35 202 c 0
 35 326 88 430 227 430 c 0
 306 430 361 405 391 356 c 1
 426 407 467 430 551 430 c 0xbe
227 403 m 0
 156 403 126 340 126 203 c 0
 126 101 148 17 228 17 c 0
 327 17 345 86 345 207 c 0
 345 356 315 403 227 403 c 0
546 403 m 0
 475 403 432 358 432 242 c 1
 629 242 l 2
 638 242 641 250 641 257 c 0
 641 361 614 403 546 403 c 0
EndSplineSet
EndChar
StartChar: Racute
Encoding: 340 340 74
Width: 581
GlyphClass: 2
Flags: MW
HStem: 0 27<89 95.5 214.5 221> 286 27<201 243 201 294> 569 28<86 86 209 213 213 275>
VStem: 108 93<49 286 313 548 548 553.5> 392 94<403.5 484> 410 90<105.5 137 137 178.5 105.5 191>
AnchorPoint: "Anchor-0" 291 0 basechar 0
LayerCount: 2
Back
Fore
SplineSet
429 800 m 0xf4
 429 793 423 790 419 787 c 2
 256 675 l 2
 252 672 243 666 236 666 c 0
 227 666 223 669 223 674 c 0
 223 679 233 688 241 697 c 2
 336 801 l 2
 353 820 357 826 372 826 c 0
 396 826 429 808 429 800 c 0xf4
50 0 m 1
 50 29 l 1
 89 27 l 2
 102 27 108 34 108 49 c 2
 108 548 l 2
 108 559 102 570 86 569 c 2
 50 567 l 1
 50 597 l 1
 275 597 l 2
 423 597 486 550 486 438 c 0xf8
 486 369 436 316 364 297 c 1
 423 297 500 235 500 122 c 0
 500 89 509 31 529 28 c 1
 537 25 554 25 562 30 c 1
 562 0 l 1
 426 0 l 1
 418 16 413 39 412 66 c 0
 411 79 410 92 410 104 c 2
 410 137 l 2
 410 245 326 286 243 286 c 2
 201 286 l 1
 201 49 l 2
 201 34 208 27 221 27 c 2
 270 29 l 1
 270 0 l 1
 50 0 l 1
201 313 m 1
 294 313 l 2
 354 313 392 358 392 438 c 0
 392 530 355 569 275 569 c 2
 213 569 l 2
 205 569 201 566 201 559 c 2
 201 313 l 1
EndSplineSet
EndChar
StartChar: racute
Encoding: 341 341 185
Width: 383
GlyphClass: 2
Flags: MW
HStem: 0 24<71 75.5 178.5 183> 396 24<71 75.5> 402 28<263.5 284>
VStem: 84 86<43 216 325 374> 290 79<336 345>
AnchorPoint: "Anchor-0" 137 0 basechar 0
LayerCount: 2
Back
Fore
SplineSet
86 493 m 0xd0
 77 493 73 496 73 501 c 0
 73 506 83 515 91 524 c 2
 186 628 l 2
 203 647 207 653 222 653 c 0
 246 653 279 635 279 627 c 0
 279 620 273 617 269 614 c 2
 106 502 l 2
 102 499 93 493 86 493 c 0xd0
287 430 m 0xb8
 341 430 369 395 369 352 c 0
 369 320 351 305 327 305 c 0
 311 305 290 313 290 336 c 0
 290 354 298 364 298 381 c 0
 298 390 293 402 275 402 c 0xb8
 209 402 173 290 170 216 c 1
 170 43 l 2
 170 30 174 24 183 24 c 2
 244 26 l 1
 244 0 l 1
 39 0 l 1
 39 26 l 1
 71 24 l 2
 80 24 84 30 84 43 c 2
 84 376 l 2
 84 389 80 396 71 396 c 2
 35 394 l 1
 35 420 l 1
 176 420 l 1
 173 412 170 390 170 374 c 2xd0
 170 325 l 1
 202 402 240 430 287 430 c 0xb8
EndSplineSet
EndChar
StartChar: Rcommaaccent
Encoding: 342 342 76
Width: 581
GlyphClass: 2
Flags: MW
HStem: -111 77<276 281> 0 27<89 95.5 214.5 221> 286 27<201 243 201 294> 569 28<86 86 209 213 213 275>
VStem: 108 93<49 286 313 548 548 553.5> 302 50<-149 -80> 392 94<403.5 484> 410 90<105.5 137 137 178.5 105.5 191>
AnchorPoint: "Anchor-0" 291 0 basechar 0
LayerCount: 2
Back
Fore
SplineSet
50 0 m 1x7d
 50 29 l 1
 89 27 l 2
 102 27 108 34 108 49 c 2
 108 548 l 2
 108 559 102 570 86 569 c 2
 50 567 l 1
 50 597 l 1
 275 597 l 2
 423 597 486 550 486 438 c 0xfe
 486 369 436 316 364 297 c 1
 423 297 500 235 500 122 c 0
 500 89 509 31 529 28 c 1
 537 25 554 25 562 30 c 1
 562 0 l 1
 426 0 l 1
 418 16 413 39 412 66 c 0
 411 79 410 92 410 104 c 2
 410 137 l 2
 410 245 326 286 243 286 c 2
 201 286 l 1
 201 49 l 2
 201 34 208 27 221 27 c 2
 270 29 l 1
 270 0 l 1
 50 0 l 1x7d
201 313 m 1
 294 313 l 2
 354 313 392 358 392 438 c 0
 392 530 355 569 275 569 c 2
 213 569 l 2
 205 569 201 566 201 559 c 2
 201 313 l 1
252 -200 m 1
 279 -185 302 -158 302 -140 c 0
 302 -117 288 -111 274 -111 c 0
 256 -111 244 -94 244 -77 c 0
 244 -56 260 -34 292 -34 c 0
 330 -34 352 -64 352 -96 c 0
 352 -149 311 -193 268 -213 c 1
 252 -200 l 1
EndSplineSet
EndChar
StartChar: rcommaaccent
Encoding: 343 343 187
Width: 383
GlyphClass: 2
Flags: MW
HStem: -111 77<122 127> 0 24<71 75.5 178.5 183> 396 24<71 75.5> 402 28<263.5 284>
VStem: 84 86<43 216 325 374> 148 50<-149 -80> 290 79<336 345>
AnchorPoint: "Anchor-0" 137 0 basechar 0
LayerCount: 2
Back
Fore
SplineSet
287 430 m 0x5a
 341 430 369 395 369 352 c 0
 369 320 351 305 327 305 c 0
 311 305 290 313 290 336 c 0
 290 354 298 364 298 381 c 0
 298 390 293 402 275 402 c 0x5a
 209 402 173 290 170 216 c 1
 170 43 l 2
 170 30 174 24 183 24 c 2
 244 26 l 1
 244 0 l 1
 39 0 l 1
 39 26 l 1
 71 24 l 2
 80 24 84 30 84 43 c 2
 84 376 l 2
 84 389 80 396 71 396 c 2
 35 394 l 1
 35 420 l 1
 176 420 l 1
 173 412 170 390 170 374 c 2x68
 170 325 l 1
 202 402 240 430 287 430 c 0x5a
138 -34 m 0xe4
 176 -34 198 -64 198 -96 c 0
 198 -149 157 -193 114 -213 c 1
 98 -200 l 1
 125 -185 148 -158 148 -140 c 0
 148 -117 134 -111 120 -111 c 0
 102 -111 90 -94 90 -77 c 0
 90 -56 106 -34 138 -34 c 0xe4
EndSplineSet
EndChar
StartChar: Rcaron
Encoding: 344 344 75
Width: 581
GlyphClass: 2
Flags: MW
HStem: 0 27<89 95.5 214.5 221> 286 27<201 243 201 294> 569 28<86 86 209 213 213 275>
VStem: 108 93<49 286 313 548 548 553.5> 392 94<403.5 484> 410 90<105.5 137 137 178.5 105.5 191>
AnchorPoint: "Anchor-0" 291 0 basechar 0
LayerCount: 2
Back
Fore
SplineSet
135 816 m 0xf4
 135 819 136 824 144 824 c 0
 151 824 164 817 172 812 c 2
 291 738 l 1
 410 812 l 2
 418 817 431 824 438 824 c 0
 446 824 447 819 447 816 c 0
 447 807 409 784 368 741 c 2
 345 717 l 1
 321 693 l 2
 305 678 294 668 291 668 c 0
 288 668 277 678 261 693 c 2
 237 717 l 1
 214 741 l 2
 173 784 135 807 135 816 c 0xf4
50 0 m 1
 50 29 l 1
 89 27 l 2
 102 27 108 34 108 49 c 2
 108 548 l 2
 108 559 102 570 86 569 c 2
 50 567 l 1
 50 597 l 1
 275 597 l 2
 423 597 486 550 486 438 c 0xf8
 486 369 436 316 364 297 c 1
 423 297 500 235 500 122 c 0
 500 89 509 31 529 28 c 1
 537 25 554 25 562 30 c 1
 562 0 l 1
 426 0 l 1
 418 16 413 39 412 66 c 0
 411 79 410 92 410 104 c 2
 410 137 l 2
 410 245 326 286 243 286 c 2
 201 286 l 1
 201 49 l 2
 201 34 208 27 221 27 c 2
 270 29 l 1
 270 0 l 1
 50 0 l 1
201 313 m 1
 294 313 l 2
 354 313 392 358 392 438 c 0
 392 530 355 569 275 569 c 2
 213 569 l 2
 205 569 201 566 201 559 c 2
 201 313 l 1
EndSplineSet
EndChar
StartChar: rcaron
Encoding: 345 345 186
Width: 383
GlyphClass: 2
Flags: MW
HStem: 0 24<71 75.5 178.5 183> 396 24<71 75.5> 402 28<263.5 284>
VStem: 84 86<43 216 325 374> 290 79<336 345>
AnchorPoint: "Anchor-0" 137 0 basechar 0
LayerCount: 2
Back
Fore
SplineSet
65 574 m 2xd0
 24 617 -14 640 -14 649 c 0
 -14 652 -13 657 -5 657 c 0
 2 657 15 650 23 645 c 2
 142 571 l 1
 261 645 l 2
 269 650 282 657 289 657 c 0
 297 657 298 652 298 649 c 0
 298 640 260 617 219 574 c 2
 196 550 l 1
 172 526 l 2
 156 511 145 501 142 501 c 0
 139 501 128 511 112 526 c 2
 88 550 l 1
 65 574 l 2xd0
287 430 m 0xb8
 341 430 369 395 369 352 c 0
 369 320 351 305 327 305 c 0
 311 305 290 313 290 336 c 0
 290 354 298 364 298 381 c 0
 298 390 293 402 275 402 c 0xb8
 209 402 173 290 170 216 c 1
 170 43 l 2
 170 30 174 24 183 24 c 2
 244 26 l 1
 244 0 l 1
 39 0 l 1
 39 26 l 1
 71 24 l 2
 80 24 84 30 84 43 c 2
 84 376 l 2
 84 389 80 396 71 396 c 2
 35 394 l 1
 35 420 l 1
 176 420 l 1
 173 412 170 390 170 374 c 2xd0
 170 325 l 1
 202 402 240 430 287 430 c 0xb8
EndSplineSet
EndChar
StartChar: Sacute
Encoding: 346 346 78
Width: 494
GlyphClass: 2
Flags: MW
HStem: -10 28<249.5 290.5> 434 138<393.5 429 393.5 403> 580 27<220 267 179.5 296>
VStem: 56 82<449.5 485> 367 90<138 164.5> 403 20<434 518>
AnchorPoint: "Anchor-0" 247 0 basechar 0
LayerCount: 2
Back
Fore
SplineSet
385 800 m 0xb4
 385 793 379 790 375 787 c 2
 212 675 l 2
 208 672 199 666 192 666 c 0
 183 666 179 669 179 674 c 0
 179 679 189 688 197 697 c 2
 292 801 l 2
 309 820 313 826 328 826 c 0
 352 826 385 808 385 800 c 0xb4
48 203 m 1
 73 203 l 1
 88 82 148 18 257 18 c 0
 324 18 366 66 367 138 c 0
 367 191 327 231 268 254 c 2
 166 295 l 2
 94 324 56 374 56 441 c 0
 56 529 118 607 241 607 c 0xb8
 293 607 321 595 370 578 c 0
 381 574 390 572 397 572 c 0
 408 572 418 573 426 576 c 1
 424 560 423 535 423 501 c 0
 423 461 424 449 429 434 c 1xf4
 403 434 l 1xb4
 403 522 338 580 254 580 c 0
 186 580 138 541 138 472 c 0
 138 427 171 391 224 370 c 2
 316 333 l 2
 417 292 457 247 457 168 c 0xb8
 457 62 370 -10 268 -10 c 0
 231 -10 202 -8 165 3 c 0
 126 14 105 18 86 18 c 0
 78 18 53 14 52 13 c 1
 55 29 56 57 56 96 c 0
 56 145 53 187 48 203 c 1
EndSplineSet
EndChar
StartChar: sacute
Encoding: 347 347 189
Width: 411
GlyphClass: 2
Flags: MW
HStem: -10 27<197.5 246.5 181 260> 16 127 302 106<325 329 308.5 347 325 325> 403 27<182 231.5 157 246>
VStem: 46.5 28.5 52 75<315.5 342> 304 74<81.5 111.5> 325 25
AnchorPoint: "Anchor-0" 216 0 basechar 0
LayerCount: 2
Back
Fore
SplineSet
343 627 m 0x99
 343 620 337 617 333 614 c 2
 170 502 l 2
 166 499 157 493 150 493 c 0
 141 493 137 496 137 501 c 0
 137 506 147 515 155 524 c 2
 250 628 l 2
 267 647 271 653 286 653 c 0
 310 653 343 635 343 627 c 0x99
44 10 m 1x59
 49 142 l 1x59
 75 144 l 1x99
 75 69 142 17 220 17 c 0
 273 17 304 46 304 93 c 0
 304 130 286 153 234 168 c 2
 138 195 l 2
 86 210 52 249 52 306 c 0
 52 378 109 430 205 430 c 0x96
 258 430 292 408 325 408 c 0
 333 408 345 411 353 416 c 1
 347 302 l 1xa9
 325 302 l 1x99
 325 352 284 403 208 403 c 0
 156 403 127 372 127 332 c 0
 127 299 148 277 189 266 c 2
 285 239 l 2
 356 219 378 182 378 126 c 0
 378 37 308 -10 212 -10 c 0x96
 183 -10 160 -5 100 12 c 0
 89 15 80 16 73 16 c 0
 60 16 50 14 44 10 c 1x59
EndSplineSet
EndChar
StartChar: Scedilla
Encoding: 350 350 80
Width: 494
GlyphClass: 2
Flags: MW
HStem: -214 27<196.5 261.5> -10 28<266 266 266 268> -9 27<232 232> 434 138<393.5 429 393.5 403> 580 27<220 267 179.5 296>
VStem: 56 82<449.5 485> 192 47<-67.5 -62.5> 260 65<-148.5 -124.5> 367 90<138 164.5> 403 20<434 518>
AnchorPoint: "Anchor-0" 247 0 basechar 0
LayerCount: 2
Back
Fore
SplineSet
266 -10 m 1xcd40
 245 -43 l 2
 241 -50 239 -57 239 -62 c 0xcf40
 239 -85 325 -70 325 -122 c 0
 325 -178 292 -214 231 -214 c 0
 214 -214 185 -213 162 -198 c 1
 169 -174 l 1
 177 -183 189 -187 204 -187 c 0
 235 -187 260 -164 260 -133 c 0
 260 -116 243 -103 226 -94 c 1xcd40
 203 -80 l 2
 196 -75 192 -70 192 -65 c 0
 192 -60 194 -56 198 -52 c 2
 232 -9 l 1
 210 -8 189 -4 165 3 c 0
 126 14 105 18 86 18 c 0
 78 18 53 14 52 13 c 1xaf40
 55 29 56 57 56 96 c 0
 56 145 53 187 48 203 c 1
 73 203 l 1
 88 82 148 18 257 18 c 0
 324 18 366 66 367 138 c 0
 367 191 327 231 268 254 c 2
 166 295 l 2
 94 324 56 374 56 441 c 0
 56 529 118 607 241 607 c 0xcd80
 293 607 321 595 370 578 c 0
 381 574 390 572 397 572 c 0
 408 572 418 573 426 576 c 1
 424 560 423 535 423 501 c 0
 423 461 424 449 429 434 c 1xdd40
 403 434 l 1xcd40
 403 522 338 580 254 580 c 0
 186 580 138 541 138 472 c 0
 138 427 171 391 224 370 c 2
 316 333 l 2
 417 292 457 247 457 168 c 0xcd80
 457 62 370 -10 268 -10 c 2
 266 -10 l 1xcd40
EndSplineSet
EndChar
StartChar: scedilla
Encoding: 351 351 191
Width: 411
GlyphClass: 2
Flags: MW
HStem: -214 27<165.5 230.5> -10 27<200 200> 16 127 302 106<325 329 308.5 347 325 325> 403 27<182 231.5 157 246>
VStem: 46.5 28.5 52 75<315.5 342> 161 47<-67.5 -62.5> 229 65<-148.5 -124.5> 304 74<85 111.5> 325 25
AnchorPoint: "Anchor-0" 216 0 basechar 0
LayerCount: 2
Back
Fore
SplineSet
235 -9 m 1xcca0
 214 -43 l 2
 210 -50 208 -57 208 -62 c 0xcda0
 208 -85 294 -70 294 -122 c 0
 294 -178 261 -214 200 -214 c 0
 183 -214 154 -213 131 -198 c 1
 138 -174 l 1
 146 -183 158 -187 173 -187 c 0
 204 -187 229 -164 229 -133 c 0
 229 -116 212 -103 195 -94 c 1xcca0
 172 -80 l 2
 165 -75 161 -70 161 -65 c 0
 161 -60 163 -56 167 -52 c 2
 200 -10 l 1xcda0
 176 -8 152 -3 100 12 c 0
 89 15 80 16 73 16 c 0
 60 16 50 14 44 10 c 1
 49 142 l 1xada0
 75 144 l 1xcca0
 75 69 142 17 220 17 c 0
 273 17 304 46 304 93 c 0
 304 130 286 153 234 168 c 2
 138 195 l 2
 86 210 52 249 52 306 c 0
 52 378 109 430 205 430 c 0xcac0
 258 430 292 408 325 408 c 0
 333 408 345 411 353 416 c 1
 347 302 l 1xd4a0
 325 302 l 1xcca0
 325 352 284 403 208 403 c 0
 156 403 127 372 127 332 c 0
 127 299 148 277 189 266 c 2
 285 239 l 2
 356 219 378 182 378 126 c 0xcac0
 378 44 319 -2 235 -9 c 1xcca0
EndSplineSet
EndChar
StartChar: Scaron
Encoding: 352 352 79
Width: 494
GlyphClass: 2
Flags: MW
HStem: -10 28<249.5 290.5> 434 138<393.5 429 393.5 403> 580 27<220 267 179.5 296>
VStem: 56 82<449.5 485> 367 90<138 164.5> 403 20<434 518>
AnchorPoint: "Anchor-0" 247 0 basechar 0
LayerCount: 2
Back
Fore
SplineSet
91 816 m 0xb4
 91 819 92 824 100 824 c 0
 107 824 120 817 128 812 c 2
 247 738 l 1
 366 812 l 2
 374 817 387 824 394 824 c 0
 402 824 403 819 403 816 c 0
 403 807 365 784 324 741 c 2
 301 717 l 1
 277 693 l 2
 261 678 250 668 247 668 c 0
 244 668 233 678 217 693 c 2
 193 717 l 1
 170 741 l 2
 129 784 91 807 91 816 c 0xb4
48 203 m 1
 73 203 l 1
 88 82 148 18 257 18 c 0
 324 18 366 66 367 138 c 0
 367 191 327 231 268 254 c 2
 166 295 l 2
 94 324 56 374 56 441 c 0
 56 529 118 607 241 607 c 0xb8
 293 607 321 595 370 578 c 0
 381 574 390 572 397 572 c 0
 408 572 418 573 426 576 c 1
 424 560 423 535 423 501 c 0
 423 461 424 449 429 434 c 1xf4
 403 434 l 1xb4
 403 522 338 580 254 580 c 0
 186 580 138 541 138 472 c 0
 138 427 171 391 224 370 c 2
 316 333 l 2
 417 292 457 247 457 168 c 0xb8
 457 62 370 -10 268 -10 c 0
 231 -10 202 -8 165 3 c 0
 126 14 105 18 86 18 c 0
 78 18 53 14 52 13 c 1
 55 29 56 57 56 96 c 0
 56 145 53 187 48 203 c 1
EndSplineSet
Position2: "'cpsp' Capital Spacing lookup 0 per glyph data 2" dx=5 dy=0 dh=10 dv=0
EndChar
StartChar: scaron
Encoding: 353 353 190
Width: 411
GlyphClass: 2
Flags: MW
HStem: -10 27<197.5 246.5 181 260> 16 127 302 106<325 329 308.5 347 325 325> 403 27<182 231.5 157 246>
VStem: 46.5 28.5 52 75<315.5 342> 304 74<81.5 111.5> 325 25
AnchorPoint: "Anchor-0" 216 0 basechar 0
LayerCount: 2
Back
Fore
SplineSet
50 649 m 0x99
 50 652 51 657 59 657 c 0
 66 657 79 650 87 645 c 2
 206 571 l 1
 325 645 l 2
 333 650 346 657 353 657 c 0
 361 657 362 652 362 649 c 0
 362 640 324 617 283 574 c 2
 260 550 l 1
 236 526 l 2
 220 511 209 501 206 501 c 0
 203 501 192 511 176 526 c 2
 152 550 l 1
 129 574 l 2
 88 617 50 640 50 649 c 0x99
44 10 m 1x59
 49 142 l 1x59
 75 144 l 1x99
 75 69 142 17 220 17 c 0
 273 17 304 46 304 93 c 0
 304 130 286 153 234 168 c 2
 138 195 l 2
 86 210 52 249 52 306 c 0
 52 378 109 430 205 430 c 0x96
 258 430 292 408 325 408 c 0
 333 408 345 411 353 416 c 1
 347 302 l 1xa9
 325 302 l 1x99
 325 352 284 403 208 403 c 0
 156 403 127 372 127 332 c 0
 127 299 148 277 189 266 c 2
 285 239 l 2
 356 219 378 182 378 126 c 0
 378 37 308 -10 212 -10 c 0x96
 183 -10 160 -5 100 12 c 0
 89 15 80 16 73 16 c 0
 60 16 50 14 44 10 c 1x59
EndSplineSet
EndChar
StartChar: uni0162
Encoding: 354 354 84
Width: 529
GlyphClass: 2
Flags: MW
HStem: -214 27<214.5 279.5> 0 27<199 205 199 257 324.5 331> 444 154<15 474 15 474 55 514 55 488> 570 28<120.5 165 165 206 319.5 323 323 365>
VStem: 15 26<444 486.5 444 600> 210 47<-67.5 -62.5> 218 93<52 558 558 559> 278 65<-148.5 -124.5> 488 26<444 486.5>
AnchorPoint: "Anchor-0" 265 0 basechar 0
LayerCount: 2
Back
Fore
SplineSet
474 598 m 2xda80
 497 598 510 599 514 600 c 1xda80
 514 444 l 1
 488 444 l 1xea80
 488 529 454 570 365 570 c 2
 323 570 l 2
 316 570 312 566 311 559 c 1
 311 49 l 2
 311 34 318 27 331 27 c 2
 384 29 l 1
 384 0 l 1
 290 0 l 1xda80
 263 -43 l 2
 259 -50 257 -57 257 -62 c 0xdc80
 257 -85 343 -70 343 -122 c 0
 343 -178 310 -214 249 -214 c 0
 232 -214 203 -213 180 -198 c 1
 187 -174 l 1
 195 -183 207 -187 222 -187 c 0
 253 -187 278 -164 278 -133 c 0
 278 -116 261 -103 244 -94 c 1xd980
 221 -80 l 2
 214 -75 210 -70 210 -65 c 0
 210 -60 212 -56 216 -52 c 2
 257 0 l 1
 145 0 l 1
 145 29 l 1xdc80
 199 27 l 2
 211 27 218 39 218 52 c 2
 218 558 l 2
 218 566 214 570 206 570 c 2
 165 570 l 2xda80
 76 570 41 529 41 444 c 1
 15 444 l 1xea80
 15 600 l 1
 22 599 36 598 55 598 c 2
 474 598 l 2xda80
EndSplineSet
EndChar
StartChar: uni0163
Encoding: 355 355 196
Width: 313
GlyphClass: 2
Flags: MW
HStem: -214 27<106.5 171.5> -6 29<196.5 209> -3 21G<147 147> 395 25<25 62.5 25 85 25 62.5 171 281>
VStem: 85 86<96 395> 102 47<-67.5 -62.5> 170 65<-148.5 -124.5>
AnchorPoint: "Anchor-0" 157 0 basechar 0
LayerCount: 2
Back
Fore
SplineSet
178 -6 m 1xd8
 155 -43 l 2
 151 -50 149 -57 149 -62 c 0xd4
 149 -85 235 -70 235 -122 c 0
 235 -178 202 -214 141 -214 c 0
 124 -214 95 -213 72 -198 c 1
 79 -174 l 1
 87 -183 99 -187 114 -187 c 0
 145 -187 170 -164 170 -133 c 0
 170 -116 153 -103 136 -94 c 1xd2
 113 -80 l 2
 106 -75 102 -70 102 -65 c 0
 102 -60 104 -56 108 -52 c 2xd4
 147 -3 l 1
 103 6 85 37 85 96 c 2xb8
 85 395 l 1
 25 395 l 1
 25 420 l 1
 100 420 122 434 143 522 c 1
 171 522 l 1
 171 420 l 1
 281 420 l 1
 281 395 l 1
 171 395 l 1
 171 88 l 2
 171 37 181 23 212 23 c 0
 231 23 257 40 264 63 c 1
 285 50 l 1
 272 14 240 -6 178 -6 c 1xd8
EndSplineSet
EndChar
StartChar: Tcaron
Encoding: 356 356 83
Width: 529
GlyphClass: 2
Flags: MW
HStem: 0 27<199 205 324.5 331> 444 154<15 474 15 474 55 488 55 514> 570 28<120.5 165 165 206 319.5 323 323 365>
VStem: 15 26<444 486.5 444 600> 218 93<52 558 558 559> 488 26<444 486.5>
AnchorPoint: "Anchor-0" 265 0 basechar 0
LayerCount: 2
Back
Fore
SplineSet
109 816 m 0xbc
 109 819 110 824 118 824 c 0
 125 824 138 817 146 812 c 2
 265 738 l 1
 384 812 l 2
 392 817 405 824 412 824 c 0
 420 824 421 819 421 816 c 0
 421 807 383 784 342 741 c 2
 319 717 l 1
 295 693 l 2
 279 678 268 668 265 668 c 0
 262 668 251 678 235 693 c 2
 211 717 l 1
 188 741 l 2
 147 784 109 807 109 816 c 0xbc
15 444 m 1xdc
 15 600 l 1
 22 599 36 598 55 598 c 2
 474 598 l 2
 497 598 510 599 514 600 c 1xbc
 514 444 l 1
 488 444 l 1xdc
 488 529 454 570 365 570 c 2
 323 570 l 2
 316 570 312 566 311 559 c 1
 311 49 l 2
 311 34 318 27 331 27 c 2
 384 29 l 1
 384 0 l 1
 145 0 l 1
 145 29 l 1
 199 27 l 2
 211 27 218 39 218 52 c 2
 218 558 l 2
 218 566 214 570 206 570 c 2
 165 570 l 2xbc
 76 570 41 529 41 444 c 1
 15 444 l 1xdc
EndSplineSet
EndChar
StartChar: tcaron
Encoding: 357 357 195
Width: 313
GlyphClass: 2
Flags: MW
HStem: -6 29<196.5 209.5> 395 25<25 62.5 25 85 25 62.5 171 281> 530 77<238 244.5> 587 20G<238 269.5>
VStem: 85 86<96 395> 258 50<502 561>
AnchorPoint: "Anchor-0" 157 0 basechar 0
LayerCount: 2
Back
Fore
SplineSet
218 451 m 1xdc
 240 467 258 493 258 511 c 0
 258 526 249 530 240 530 c 0xec
 222 530 210 547 210 564 c 0
 210 585 223 607 253 607 c 0
 286 607 308 577 308 545 c 0
 308 497 272 456 234 438 c 1
 218 451 l 1xdc
171 522 m 1
 171 420 l 1
 281 420 l 1
 281 395 l 1
 171 395 l 1
 171 88 l 2
 171 37 181 23 212 23 c 0
 231 23 257 40 264 63 c 1
 285 50 l 1
 272 14 240 -6 179 -6 c 0
 111 -6 85 24 85 96 c 2
 85 395 l 1
 25 395 l 1
 25 420 l 1
 100 420 122 434 143 522 c 1
 171 522 l 1
EndSplineSet
EndChar
StartChar: Umacron
Encoding: 362 362 92
Width: 651
GlyphClass: 2
Flags: MW
HStem: -10 31<306 408.5> 568 29 706 40<216 455 216 455>
VStem: 92 93<199 548 548 549> 532 35<198 548 548 549>
LayerCount: 2
Back
Fore
SplineSet
216 706 m 1
 216 746 l 1
 455 746 l 1
 455 706 l 1
 216 706 l 1
35 567 m 1
 35 597 l 1
 254 597 l 1
 254 567 l 1
 205 569 l 2
 193 570 185 561 185 549 c 2
 185 199 l 2
 185 87 250 21 362 21 c 0
 460 21 532 97 532 198 c 2
 532 548 l 2
 532 561 525 570 514 569 c 2
 465 567 l 1
 465 597 l 1
 626 597 l 1
 626 567 l 1
 587 569 l 2
 575 570 567 561 567 549 c 2
 567 189 l 2
 567 74 473 -10 344 -10 c 0
 183 -10 92 62 92 199 c 2
 92 548 l 2
 92 559 84 570 73 569 c 2
 35 567 l 1
EndSplineSet
EndChar
StartChar: umacron
Encoding: 363 363 204
Width: 524
GlyphClass: 2
Flags: MW
HStem: -10 33<190 232> 0 24<448.5 453 448.5 489> 396 24<56 60.5 341 345> 567 40<142 381 142 381>
VStem: 69 86<148 376 376 382.5> 353 87<220 226 220 226 375 382>
LayerCount: 2
Back
Fore
SplineSet
381 607 m 1x7c
 381 567 l 1
 142 567 l 1
 142 607 l 1
 381 607 l 1x7c
453 24 m 2
 489 26 l 1
 489 0 l 1
 347 0 l 1
 350 7 352 20 352 72 c 2x7c
 352 85 l 1
 325 23 269 -10 195 -10 c 0
 106 -10 69 36 69 148 c 2
 69 376 l 2
 69 389 65 396 56 396 c 2
 20 394 l 1
 20 420 l 1
 155 420 l 1
 155 148 l 2
 155 64 164 23 216 23 c 0xbc
 291 23 345 84 352 186 c 1
 353 375 l 2
 353 389 349 396 341 396 c 2
 294 394 l 1
 294 420 l 1
 440 420 l 1
 440 43 l 2
 440 30 444 24 453 24 c 2
353 220 m 1
 353 226 l 1
 353 220 l 1
EndSplineSet
EndChar
StartChar: Uring
Encoding: 366 366 94
Width: 651
GlyphClass: 2
Flags: MW
HStem: -10 31<306 408.5> 568 29 666 36<322.5 347.5 322.5 358> 793 36<322.5 347.5>
VStem: 92 93<199 548 548 549> 252 42<734 761.5 734 770.5> 377 42<734 761.5> 532 35<198 548 548 549>
LayerCount: 2
Back
Fore
SplineSet
252 748 m 0
 252 793 289 829 335 829 c 0
 381 829 419 793 419 748 c 0
 419 703 381 666 335 666 c 0
 289 666 252 703 252 748 c 0
294 748 m 0
 294 720 310 702 335 702 c 0
 360 702 377 720 377 748 c 0
 377 775 360 793 335 793 c 0
 310 793 294 775 294 748 c 0
35 567 m 1
 35 597 l 1
 254 597 l 1
 254 567 l 1
 205 569 l 2
 193 570 185 561 185 549 c 2
 185 199 l 2
 185 87 250 21 362 21 c 0
 460 21 532 97 532 198 c 2
 532 548 l 2
 532 561 525 570 514 569 c 2
 465 567 l 1
 465 597 l 1
 626 597 l 1
 626 567 l 1
 587 569 l 2
 575 570 567 561 567 549 c 2
 567 189 l 2
 567 74 473 -10 344 -10 c 0
 183 -10 92 62 92 199 c 2
 92 548 l 2
 92 559 84 570 73 569 c 2
 35 567 l 1
EndSplineSet
EndChar
StartChar: uring
Encoding: 367 367 206
Width: 524
GlyphClass: 2
Flags: MW
HStem: -10 33<190 232> 0 24<448.5 453 448.5 489> 396 24<56 60.5 341 345> 493 36<248.5 273.5 248.5 284> 620 36<248.5 273.5>
VStem: 69 86<148 376 376 382.5> 178 42<561 588.5 561 597.5> 303 42<561 588.5> 353 87<220 226 220 226 375 382>
LayerCount: 2
Back
Fore
SplineSet
261 493 m 0x7f80
 215 493 178 530 178 575 c 0
 178 620 215 656 261 656 c 0
 307 656 345 620 345 575 c 0
 345 530 307 493 261 493 c 0x7f80
261 620 m 0
 236 620 220 602 220 575 c 0
 220 547 236 529 261 529 c 0
 286 529 303 547 303 575 c 0
 303 602 286 620 261 620 c 0
453 24 m 2x7c80
 489 26 l 1
 489 0 l 1
 347 0 l 1
 350 7 352 20 352 72 c 2x7c80
 352 85 l 1
 325 23 269 -10 195 -10 c 0
 106 -10 69 36 69 148 c 2
 69 376 l 2
 69 389 65 396 56 396 c 2
 20 394 l 1
 20 420 l 1
 155 420 l 1
 155 148 l 2
 155 64 164 23 216 23 c 0xbc80
 291 23 345 84 352 186 c 1
 353 375 l 2
 353 389 349 396 341 396 c 2
 294 394 l 1
 294 420 l 1
 440 420 l 1
 440 43 l 2
 440 30 444 24 453 24 c 2x7c80
353 220 m 1
 353 226 l 1
 353 220 l 1
EndSplineSet
EndChar
